<?xml version="1.0" standalone="no"?>
<!DOCTYPE svg PUBLIC "-//W3C//DTD SVG 1.1//EN" "http://www.w3.org/Graphics/SVG/1.1/DTD/svg11.dtd" >
<svg xmlns="http://www.w3.org/2000/svg" xmlns:xlink="http://www.w3.org/1999/xlink" version="1.1">
<metadata>
Created by FontForge 20170731 at Fri Jan  1 02:30:17 1904
 By Aleksey,,,
AzBuki pres 1991
</metadata>
<defs>
<font id="GaramondCondLight-Italic" horiz-adv-x="930" >
  <font-face 
    font-family="Garamond cond"
    font-weight="300"
    font-style="italic"
    font-stretch="normal"
    units-per-em="2048"
    panose-1="2 2 4 0 0 0 0 0 0 0"
    ascent="1638"
    descent="-410"
    x-height="905"
    cap-height="1233"
    bbox="-94 -463 1839 1573"
    underline-thickness="56"
    underline-position="-254"
    unicode-range="U+0020-2219"
  />
<missing-glyph horiz-adv-x="1536" 
d="M256 0v1280h1024v-1280h-1024zM1247 33v1214h-958v-1214h958z" />
    <glyph glyph-name=".notdef" horiz-adv-x="1536" 
d="M256 0v1280h1024v-1280h-1024zM1247 33v1214h-958v-1214h958z" />
    <glyph glyph-name=".null" horiz-adv-x="0" 
 />
    <glyph glyph-name="nonmarkingreturn" horiz-adv-x="0" 
 />
    <glyph glyph-name="space" unicode=" " 
 />
    <glyph glyph-name="exclam" unicode="!" horiz-adv-x="604" 
d="M233 332h-45l131 663q28 129 55.5 193.5t100.5 64.5h12q66 -5 66 -82q0 -43 -45 -163zM127 12q-29 0 -47.5 14.5t-18.5 39.5q0 2 2.5 9t2.5 11q12 32 44 57t66 25q27 0 44.5 -17.5t17.5 -39.5q0 -17 -5 -25q-10 -32 -39.5 -53t-66.5 -21z" />
    <glyph glyph-name="quotedbl" unicode="&#x22;" horiz-adv-x="645" 
d="M225 827h-32l-58 439q-4 12 -4 32q0 103 78 103q43 0 62.5 -29.5t19.5 -73.5q0 -7 -2 -18t-2 -14zM541 827h-33l-62 439q0 3 -2 14t-2 18q0 48 24 75.5t58 27.5q30 0 54 -28.5t24 -78.5v-28z" />
    <glyph glyph-name="numbersign" unicode="#" horiz-adv-x="1509" 
d="M786 1393h127l-159 -451h274l160 451h127l-160 -451h295l-41 -111h-295l-94 -274h315l-41 -111h-315l-160 -446h-127l160 446h-274l-160 -446h-123l160 446h-312l41 111h308l98 274h-336l41 111h336zM713 831l-95 -274h275l98 274h-278z" />
    <glyph glyph-name="dollar" unicode="$" horiz-adv-x="989" 
d="M365 66q84 6 145.5 56.5t79.5 131.5v53q0 88 -90 193zM205 -250l78 262q-89 19 -168 51.5t-82 83.5q0 3 -2 7t-2 6q0 45 28.5 145t44.5 113q4 4 21 4q21 0 29 -12q8 -18 8 -41q0 -14 -2 -43t-2 -35q0 -101 28.5 -151t114.5 -70l152 479q-91 95 -136 166.5t-45 156.5
q0 24 17 103q39 123 137.5 183t234.5 67l66 213h70l-66 -217q209 -46 209 -95q0 -40 -27 -138t-47 -111q0 -4 -6 -6.5t-10 -2.5q-8 0 -21 13q-12 12 -12 37q0 9 2 25t2 20q0 87 -19.5 133t-90.5 63l-136 -426q85 -87 131 -164.5t46 -162.5q0 -61 -33 -148
q-34 -73 -89.5 -126.5t-127 -84.5t-148.5 -35l-82 -262h-65zM520 782l123 385q-138 0 -197 -90q-36 -55 -36 -106q0 -90 110 -189z" />
    <glyph glyph-name="percent" unicode="%" horiz-adv-x="1358" 
d="M328 -49l651 1069q-57 -34 -105 -52t-100 -18q-57 0 -131 29v-61q0 -117 -41 -193q-89 -194 -217 -229q-36 -13 -70 -13q-53 0 -92.5 27.5t-59.5 73.5t-20 104q0 53 29 135q23 62 72.5 130t113 112.5t125.5 44.5q72 0 127 -61q29 -31 71.5 -46.5t88.5 -15.5h16
q155 12 263 152h57l-717 -1188h-61zM1241 217q-86 -188 -217 -229q-50 -8 -74 -8q-76 0 -122 58.5t-46 145.5q0 67 25 131q22 61 74.5 129.5t117.5 113t127 44.5q73 0 123 -61q8 -9 19 -34t14 -36q12 -37 12 -78q0 -42 -13.5 -82t-39.5 -94zM545 705q61 107 61 213
q0 29 -8 77q-56 29 -90 58h-12q-31 0 -58 -25q-38 -33 -64.5 -72t-66.5 -108q-69 -129 -69 -213q0 -58 36 -82q30 -21 62 -21q18 0 45 9q51 16 91 59t73 105zM1200 524q-29 25 -61 25q-53 0 -101 -61.5t-88 -143.5q-69 -121 -69 -209q0 -34 11 -58.5t33 -38t46 -13.5
q51 0 110 45t103 123q61 135 61 217q0 81 -45 114z" />
    <glyph glyph-name="ampersand" unicode="&#x26;" horiz-adv-x="1087" 
d="M377 795q-37 86 -37 151q0 60 21.5 115.5t59.5 97.5t92.5 68t121.5 26q56 0 138.5 -33t82.5 -77q0 -11 -13 -61.5t-32 -91t-37 -40.5l-4 4q-15 4 -27 32t-23 58.5t-33.5 54.5t-63.5 31h-33q-85 0 -143 -67t-58 -154q0 -6 2 -16t2 -16q6 -43 22.5 -58.5t47.5 -15.5
q11 0 37 2t41 2q24 0 37 -4q28 -3 42.5 -17.5t14.5 -31.5q0 -23 -23 -40.5t-59 -17.5q-47 0 -89 24.5t-58 24.5q-25 0 -41 -16q-50 -33 -84 -83.5t-51 -110.5t-17 -121q0 -113 57 -205t160 -123q37 -12 70 -12q78 0 148.5 38.5t114.5 102t44 133.5q0 20 -8 62
q-8 24 -34.5 38.5t-55.5 14.5q-46 0 -123 -33q-16 -9 -51.5 -43.5t-42.5 -34.5q-9 0 -9 8q0 3 -2 10t-2 11q0 33 37 82q63 96 225 119q69 3 118.5 8t92.5 28.5t43 73.5v13q0 28 9 28q10 0 21 -20t11 -54v-8q0 -100 -45.5 -147t-146.5 -53q4 -25 4 -74q0 -111 -57.5 -204.5
t-154 -147.5t-206.5 -54q-77 0 -131 17q-114 38 -176 142t-62 226q0 100 41 197q76 155 275 242z" />
    <glyph glyph-name="quotesingle" unicode="'" horiz-adv-x="334" 
d="M225 827h-32l-62 439v28q0 51 22.5 79t55.5 28q31 0 56.5 -28.5t25.5 -78.5q0 -4 -2 -14t-2 -14z" />
    <glyph glyph-name="parenleft" unicode="(" horiz-adv-x="780" 
d="M516 -324v-20l-8 -4q-112 29 -189 118t-116 219.5t-39 280.5q0 233 88.5 470t262.5 416.5t415 240.5l12 -8v-21q-13 -9 -60.5 -26.5t-77 -30t-63.5 -37.5q-100 -74 -173.5 -191t-116 -237t-86.5 -289q-32 -134 -51 -244.5t-19 -218.5q0 -158 49 -262q46 -103 168 -143z
" />
    <glyph glyph-name="parenright" unicode=")" horiz-adv-x="838" 
d="M430 1368v21l8 8q84 -22 149.5 -80t109 -141.5t64.5 -184t21 -213.5q0 -173 -48.5 -350.5t-146 -336.5t-242.5 -275t-329 -164l-12 4v20q13 10 45 21q80 23 156 78q146 108 228.5 286t148.5 426q65 286 65 467q0 164 -45 258q-48 107 -168 148z" />
    <glyph glyph-name="asterisk" unicode="*" horiz-adv-x="1010" 
d="M602 889q-1 65 -11.5 103t-28.5 83t-21 80q0 2 -2 6t-2 6q0 35 20.5 60.5t56.5 25.5h9q57 -5 57 -86v-32q-5 -22 -22 -56t-23 -55q-7 -37 -17 -139q63 34 85.5 56t53.5 63.5t66 68.5q30 21 62 21q39 0 61 -33q8 -24 8 -37q0 -27 -17 -48t-44 -30q-21 -6 -66 -12t-69 -12
q-57 -18 -127 -54q60 -35 93 -44.5t84.5 -16t88.5 -21.5q25 -9 41 -31t16 -46q0 -9 -8 -33q-24 -37 -61 -37q-26 0 -66 25q-22 22 -47 55.5t-39 46.5q-31 31 -110 86v-21q0 -59 6.5 -84.5t25 -71t25.5 -81.5q0 -4 2 -14t2 -11q0 -37 -19.5 -63.5t-54.5 -26.5t-54 24t-19 58
q0 2 2 6t2 6q3 32 41 123q8 26 11.5 50t5.5 55t3 47q-46 -24 -71.5 -45.5t-44 -44t-36.5 -46t-49 -48.5q-38 -25 -65 -25q-35 0 -53 25q-17 30 -17 45q0 27 23.5 51.5t54.5 30.5q20 6 60 11t59 9q40 11 127 53q-59 35 -91.5 44.5t-83 16t-87.5 21.5q-62 32 -62 78
q0 22 17 45q17 29 49 29q21 0 44 -11.5t34 -25.5q20 -20 53.5 -59.5t56 -58.5t82.5 -54z" />
    <glyph glyph-name="plus" unicode="+" horiz-adv-x="1493" 
d="M803 1167h115v-524h516v-115h-516v-528h-115v528h-516v115h516v524z" />
    <glyph glyph-name="comma" unicode="," horiz-adv-x="334" 
d="M270 8q-38 -141 -209 -295q-28 -28 -45 -28q-8 0 -12 8v4q0 12 30.5 45t68 74.5t61.5 79.5t24 75v13q-5 22 -35.5 34.5t-37.5 18.5q-21 26 -21 57q0 22 7.5 45t21.5 37q26 37 65 37q37 0 66 -35.5t29 -95.5q0 -38 -13 -74z" />
    <glyph glyph-name="hyphen" unicode="-" horiz-adv-x="526" 
d="M82 516h393l-41 -143h-389z" />
    <glyph glyph-name="period" unicode="." horiz-adv-x="276" 
d="M156 168q28 0 46.5 -17.5t18.5 -39.5q0 -5 -2 -13t-2 -12q-13 -32 -43 -53t-68 -21q-27 0 -44 14.5t-17 39.5v20q7 20 25.5 39.5t42.5 31t43 11.5z" />
    <glyph glyph-name="slash" unicode="/" horiz-adv-x="702" 
d="M12 -180l561 1433h82l-557 -1433h-86z" />
    <glyph glyph-name="zero" unicode="0" horiz-adv-x="932" 
d="M135 741q32 92 108.5 212t179 208t204.5 88h37q81 -16 130 -87t70 -167q13 -86 13 -164q0 -53 -5.5 -106.5t-18 -109.5t-26.5 -99q-32 -100 -104.5 -228t-175.5 -222.5t-211 -94.5h-33q-67 13 -114.5 63.5t-73.5 117.5q-45 119 -45 249q0 85 16.5 171t48.5 169zM315 705
q-94 -291 -94 -476q0 -172 90 -200q8 -4 29 -4q71 0 135.5 103.5t104 218.5t63.5 206q82 292 82 500q0 125 -78 143q-2 0 -10 2t-10 2q-57 0 -109 -59t-92.5 -145t-68.5 -167.5t-42 -123.5z" />
    <glyph glyph-name="one" unicode="1" horiz-adv-x="780" 
d="M475 1004q12 30 12 57q0 24 -24 24q-17 0 -33 -4q-69 -28 -98 -32q-10 0 -15.5 6.5t-5.5 13.5q0 2 2 8t2 8q7 7 39.5 20t84.5 31.5t61 22.5q32 12 85.5 41t90.5 45q8 4 24 4q17 0 17 -16q0 -21 -4 -29l-328 -1036q-20 -55 -20 -74q0 -21 12.5 -26.5t48 -9.5t57.5 -13
q13 -6 13 -20q0 -11 -6.5 -20t-14.5 -9h-57q-25 0 -77 2t-71 2h-32q-26 0 -76 -2t-72 -2h-29q-11 0 -21.5 8.5t-10.5 15.5q0 4 5 11t11 10q21 16 45 16q6 0 19 -2t18 -2q22 0 41.5 26.5t44.5 104.5z" />
    <glyph glyph-name="two" unicode="2" horiz-adv-x="1047" 
d="M0 0h41v49q102 123 205 213q52 50 106 97t126.5 112t119 109.5t78.5 83.5q123 163 123 311q0 64 -24 116t-79 72q-7 0 -26 2t-27 2q-86 0 -159.5 -73.5t-102.5 -163.5q-8 -36 -17 -53t-32 -17q-17 0 -21 4q-12 0 -12 21q0 22 20.5 71t20.5 52q53 106 157 175.5t220 69.5
q28 0 78 -8q78 -18 130.5 -78.5t61.5 -142.5q4 -12 4 -45q0 -154 -123 -291q-42 -49 -98 -95t-134.5 -99.5t-131.5 -92.5q-109 -76 -258 -217h336q84 0 120 34t60 90.5t45 64.5q8 4 20 4q13 0 21 -10.5t8 -22.5q0 -13 -8 -37l-78 -254q-14 -53 -61 -53q-10 0 -34 2t-40 2
h-299q-197 0 -336 -4z" />
    <glyph glyph-name="three" unicode="3" horiz-adv-x="993" 
d="M569 672q90 -17 154 -58.5t98.5 -107.5t34.5 -154v-28q-10 -141 -85.5 -259.5t-197 -198t-258.5 -108.5q-36 -8 -102 -8h-12q-95 0 -146 43t-51 96q0 29 11 54t32.5 41t46.5 16q27 0 62 -20q27 -17 36 -36.5t23.5 -63.5t30.5 -56q24 -8 41 -8q41 0 98 25.5t86 47.5
q97 77 147 190t50 228q0 77 -23 142t-66.5 103t-103.5 38q-45 0 -115 -29q-48 -24 -61 -24q-20 0 -20 20q0 1 2 8t2 13q4 15 16 25t28 17.5t33 14.5q91 37 157.5 73.5t125.5 90.5q119 110 119 233q0 43 -24.5 80.5t-65.5 46.5q-8 0 -21 2t-16 2q-65 0 -122 -45t-95 -110
q-3 -7 -15.5 -36.5t-26.5 -50t-28 -20.5q-4 0 -12 8q-12 6 -12 25q0 8 2.5 18.5t9 28.5t10.5 27t6 16q64 115 176 184q82 41 160 41q103 0 174.5 -56.5t71.5 -160.5q0 -129 -105 -214t-260 -146z" />
    <glyph glyph-name="four" unicode="4" horiz-adv-x="895" 
d="M569 172q-20 -62 -20 -78q0 -25 14 -30.5t49 -7.5t56 -11q12 -6 12 -20q0 -11 -5.5 -18t-15.5 -7q-16 -4 -61 -4q-26 0 -75 4t-68 4q-8 0 -19 -2t-14 -2h-180q-13 0 -23 7.5t-10 17.5q0 4 16 20q25 12 45 12h33q26 0 48 25t46 102l66 217h-422l16 82l725 848q20 25 66 25
h33q16 0 16 -13q0 -12 -16 -28l-746 -832h357l131 418q10 35 39.5 47.5t91.5 26.5q32 8 41 8q20 0 20 -16l-2 -9t-2 -16l-143 -459h147l-24 -82h-152z" />
    <glyph glyph-name="five" unicode="5" horiz-adv-x="1067" 
d="M299 737l147 422q15 42 19.5 49.5t17 12t45.5 4.5l492 28q-9 -35 -18.5 -74.5t-26 -72t-41.5 -33.5l-414 -16q-12 -2 -25 -5t-20 -12q-23 -23 -78 -196q197 -4 329.5 -76.5t154.5 -251.5q4 -16 4 -49q0 -107 -54.5 -207.5t-142.5 -179t-188 -125.5q-58 -28 -121.5 -47.5
t-129 -29.5t-138.5 -17h-45q-33 0 -46 4q-8 8 -8 16q0 10 8 22t13 15q14 6 79.5 11t92.5 10q239 35 356 167q34 40 62 92t44.5 110t16.5 114q0 70 -29 128t-90 89q-70 33 -147 33h-94q-33 0 -33 24q0 1 8 41z" />
    <glyph glyph-name="six" unicode="6" horiz-adv-x="911" 
d="M127 643q38 125 100.5 229t150 189.5t193.5 151t224 106.5q183 61 229 61q15 0 25 -8v-16q0 -18 -29 -33q-240 -73 -381 -188q-87 -74 -156 -168.5t-118 -206.5t-74.5 -227t-28.5 -230v-20q0 -240 123 -258h16q74 0 134.5 85.5t94.5 209.5t34 229q0 76 -17 110
q-25 82 -98 82q-24 0 -60 -14t-38 -14q-4 0 -4.5 1.5t-0.5 2.5q-8 8 -8 20q0 30 53 54t115 24q41 0 58 -4q87 -26 131.5 -104t44.5 -183q0 -95 -35 -196t-99.5 -184t-144.5 -124q-87 -49 -180 -49q-128 0 -201 90q-98 116 -98 304q0 130 45 278z" />
    <glyph glyph-name="seven" unicode="7" horiz-adv-x="989" 
d="M90 -102l668 1159h-504q-74 0 -74 57q0 22 12 64t17 63q65 -29 311 -29q177 0 418 13v-33q-451 -709 -741 -1294h-107z" />
    <glyph glyph-name="eight" unicode="8" horiz-adv-x="973" 
d="M422 602q-110 -53 -171.5 -123.5t-74.5 -183.5v-33q0 -90 50 -163.5t139 -73.5q66 0 120.5 39t88.5 101.5t40 129.5v29q0 61 -24.5 108.5t-65 85t-102.5 84.5zM238 1024q28 70 85 122t128 79.5t147 27.5q9 0 32 -2t34 -2q68 -11 125 -50.5t90.5 -99.5t33.5 -124
q0 -53 -16 -90q-52 -143 -291 -201q92 -68 142.5 -141.5t50.5 -169.5q0 -10 -2 -25t-2 -20q-10 -101 -73.5 -183t-158.5 -128t-198 -46h-9q-89 0 -167 40t-123.5 111.5t-45.5 160.5v20q10 143 102 220.5t247 123.5q-152 131 -152 271q0 46 21 106zM406 1036q-17 -45 -17 -78
q0 -117 160 -225q107 33 166 110.5t59 164.5q0 54 -25.5 103t-68.5 69q-33 16 -78 16q-65 0 -121.5 -47.5t-74.5 -112.5z" />
    <glyph glyph-name="nine" unicode="9" horiz-adv-x="1087" 
d="M987 578q-37 -119 -102 -228.5t-153 -201t-196 -159.5t-229 -108q-176 -57 -246 -57q-24 0 -28 4q-5 0 -9 5.5t-4 10.5q0 11 6 20t11 9q23 11 69 21q96 30 161.5 57t129.5 69q128 85 223.5 215.5t153.5 283t82 312.5q8 74 8 136q0 180 -98 221q-12 8 -41 8
q-61 0 -127 -66q-46 -47 -83 -124.5t-55 -161.5t-18 -160q0 -4 2 -13t2 -12q0 -58 34.5 -106.5t88.5 -48.5q1 0 9 2t12 2q6 0 36 12t33 12h5q8 0 8 -12t-5 -25t-12 -16q-43 -37 -118 -37h-21q-114 16 -173.5 99.5t-59.5 203.5q0 121 60.5 245t164.5 190q48 33 107.5 53
t113.5 20q124 0 201 -90q102 -124 102 -315q0 -137 -45 -270z" />
    <glyph glyph-name="colon" unicode=":" horiz-adv-x="469" 
d="M344 860q31 0 52.5 -22.5t21.5 -51.5v-8q-3 -33 -24.5 -55.5t-57.5 -22.5q-32 0 -57 21t-25 49v8q3 34 29.5 58t60.5 24zM229 102q-3 -33 -24 -55t-58 -22q-19 0 -38.5 9.5t-31 25t-11.5 34.5v8q3 34 29.5 58t60.5 24q31 0 52 -23t21 -50v-9z" />
    <glyph glyph-name="semicolon" unicode=";" horiz-adv-x="526" 
d="M307 762q3 33 27.5 57.5t58.5 24.5q32 0 55 -23t23 -55v-4q-3 -35 -25.5 -58.5t-56.5 -23.5q-35 0 -60.5 21.5t-25.5 52.5q4 0 4 8zM119 37q-21 20 -21 57q0 22 8 46t17 36q26 37 70 37q36 0 63 -35.5t27 -95.5q0 -29 -9 -74q-23 -83 -75 -150t-133 -145q-35 -28 -50 -28
q-8 0 -8 8v4q0 12 53 68.5t90 107.5t37 98v13q-2 21 -32 33.5t-37 19.5z" />
    <glyph glyph-name="less" unicode="&#x3c;" horiz-adv-x="1473" 
d="M1421 1098v-123l-954 -389l954 -389v-123l-1126 463v98z" />
    <glyph glyph-name="equal" unicode="=" horiz-adv-x="1493" 
d="M287 823h1147v-110h-1147v110zM287 344v115h1147v-115h-1147z" />
    <glyph glyph-name="greater" unicode="&#x3e;" horiz-adv-x="1473" 
d="M295 1098l1126 -463v-98l-1126 -463v123l958 389l-958 389v123z" />
    <glyph glyph-name="question" unicode="?" horiz-adv-x="817" 
d="M180 307l66 271q16 62 46.5 101t66.5 63.5t100.5 61.5t97.5 64q105 86 115 193v8q0 31 -13.5 62t-35.5 45q-13 8 -41 8q-41 0 -70.5 -32.5t-73.5 -94.5q-14 -19 -34 -34t-39 -15q-9 0 -25 16q-8 16 -8 33q0 45 26.5 104.5t51.5 75.5q37 16 90 16q69 0 136 -39t97 -100
q25 -54 25 -123q0 -73 -33 -147q-29 -68 -92 -119.5t-158 -110.5q-103 -66 -138.5 -93t-63.5 -72.5t-56 -141.5h-37zM225 123q-3 -33 -26.5 -55.5t-59.5 -22.5q-32 0 -57 21t-25 49v8q3 34 29.5 58t60.5 24q31 0 54.5 -22.5t23.5 -51.5v-8z" />
    <glyph glyph-name="at" unicode="@" horiz-adv-x="1894" 
d="M1073 926q-59 -7 -109 -58t-90 -124.5t-65 -146.5t-39 -142q-12 -87 -12 -103q0 -69 28 -114q45 -70 123 -70q34 0 66 12q71 31 135 120.5t101.5 205.5t37.5 211q0 92 -37.5 150.5t-113.5 58.5h-25zM1593 201q-114 -86 -217 -86q-50 0 -93 22t-69 69t-30 118
q-129 -205 -295 -205q-9 0 -23 2t-22 2q-76 10 -125 57.5t-72.5 117t-23.5 144.5q0 34 8 82q18 90 63 167.5t112.5 141.5t140 99t138.5 35q75 0 131 -47t82 -142l50 172h139l-164 -585q-16 -58 -16 -95q0 -110 86 -110q29 0 69 20q102 39 177.5 124t115 199t39.5 230
q0 120 -43 232t-133 200.5t-221 132.5q-117 45 -271 45q-163 0 -314.5 -58t-266.5 -167q-105 -105 -168 -240t-78 -284q0 -16 -4 -54t-4 -57q0 -75 14 -145.5t43 -140.5q57 -133 170 -226.5t258.5 -140.5t296.5 -47q49 0 131 8q136 19 240.5 64t218.5 125l29 -37
q-119 -83 -235 -132.5t-257 -68.5q-98 -8 -151 -8q-120 0 -233.5 24t-215.5 73.5t-186 127.5q-114 108 -174 252t-60 297q0 164 67.5 325.5t186.5 280.5q90 90 201 152t232 92.5t247 30.5q83 0 176 -13q121 -21 222 -75.5t174.5 -138t113 -191t39.5 -230.5v-8
q0 -74 -15 -149t-46 -145.5t-78.5 -132t-106.5 -105.5z" />
    <glyph glyph-name="A" unicode="A" horiz-adv-x="1104" 
d="M750 434q0 18 -10 23.5t-31 9.5h-238q-37 0 -53 -33l-94 -184q-33 -71 -33 -107q0 -37 25 -51t71 -22.5t59 -16.5q6 -2 11.5 -12t5.5 -16q0 -17 -8 -25q-18 -8 -49 -8q-27 0 -72 4t-51 4h-37q-25 0 -85 -2t-79 -2h-25q-9 0 -14.5 6.5t-5.5 13.5q0 17 20 37q30 19 56 27
t43 23.5t53 76.5l602 1049q6 14 19 23.5t26 9.5q8 0 16.5 -7.5t8.5 -21.5l65 -1065q4 -64 20 -81t46 -23.5t37 -26.5q0 -3 1.5 -6.5t2.5 -5.5q0 -13 -11 -21t-26 -8h-25q-32 0 -100 4t-100 4q-11 0 -53 -4t-62 -4q-33 0 -41 4q-12 12 -12 16q0 11 9.5 24.5t18.5 16.5
q35 12 60.5 21t40 31t14.5 71zM504 520h205q17 0 26.5 12.5t9.5 28.5l-20 418l-242 -422l-4 -12q0 -10 10.5 -17.5t14.5 -7.5z" />
    <glyph glyph-name="B" unicode="B" horiz-adv-x="1165" 
d="M618 1053l-102 -353q8 0 23 -2t22 -2q110 0 197 45q46 26 84.5 68t61 95t22.5 104q0 25 -8 57q-14 60 -65.5 87.5t-115.5 27.5q-38 0 -70 -32.5t-49 -94.5zM737 184q32 44 55 113.5t23 136.5q0 114 -61 164q-61 45 -164 45q-66 0 -90 -4l-131 -451q-2 -9 -9.5 -38
t-7.5 -48q0 -43 41 -49q42 -8 66 -8q82 0 158 36t120 103zM78 -4l-4 4q-17 0 -27 6.5t-10 13.5q0 9 12 19.5t33 13.5q37 8 52.5 15t22.5 19t13 38.5t14 54.5l250 877q21 65 21 82q0 29 -66 41q-16 3 -26.5 10t-10.5 14q0 11 14.5 20t34.5 9q148 -8 222 -8h77q18 0 60 2t63 2
q192 0 262 -94q33 -52 33 -111q0 -66 -33 -127.5t-86 -101.5q-87 -74 -241 -111q99 -30 158.5 -79.5t82.5 -145.5q0 -11 2.5 -32t2.5 -38q0 -96 -47.5 -183t-125.5 -140q-110 -74 -290 -74q-58 0 -156 8q-24 0 -77 2t-79 2h-36q-19 0 -58 -4t-57 -4z" />
    <glyph glyph-name="C" unicode="C" horiz-adv-x="1087" 
d="M791 115q-7 -29 -16 -48t-30 -30q-105 -59 -249 -66h-25q-133 0 -222.5 61t-134 164t-44.5 226q0 92 36 225q40 124 122 236t192 194.5t241 129t261 46.5q62 0 88 -10t26 -43q0 -13 -8 -53l-61 -225q-19 -45 -41 -45q-9 0 -25 8q-24 18 -24 61q0 18 6 54t6 44q0 5 4 32
t4 42q0 74 -41 74h-20q-62 0 -135.5 -32.5t-137 -82t-108.5 -102.5q-79 -101 -140 -279.5t-61 -330.5q0 -151 61 -242q62 -94 172 -94q104 0 177 86q18 24 32 55t39.5 99.5t39 97.5t24.5 34q4 5 20 5q12 0 18.5 -12.5t6.5 -28.5v-17z" />
    <glyph glyph-name="D" unicode="D" horiz-adv-x="1239" 
d="M184 180l250 877q3 12 12 39t9 39q0 34 -54 41q-5 1 -17.5 3t-21 5.5t-10.5 11.5v4q0 23 13 29q3 0 17 2t24 2q21 0 64 -4t50 -4h25q36 0 112 2t113 2h86q73 -5 133 -34.5t104 -82.5t66 -121q29 -84 29 -192q0 -203 -107 -422q-70 -146 -180.5 -246t-257.5 -127
q-61 -12 -131 -12q-24 0 -75 2t-77 2q-98 8 -151 8q-57 0 -82 -4q-5 0 -25 -2t-28 -2q-21 0 -29 4q-8 8 -8 16q0 13 8 21q5 8 15 11t25.5 5.5t20.5 3.5q20 1 34 13.5t22 31.5t13.5 43t8.5 35zM778 1180h-41q-47 0 -66.5 -8.5t-26 -27t-26.5 -91.5l-249 -865
q-2 -18 -9.5 -45.5t-7.5 -40.5q0 -25 26 -41t77 -16q162 0 278.5 117.5t180.5 287t85 332.5q5 29 5 103q0 126 -51 209t-175 86z" />
    <glyph glyph-name="E" unicode="E" horiz-adv-x="1124" 
d="M373 193q-2 -10 -11.5 -39.5t-9.5 -47.5q0 -34 29 -40q29 -13 86 -13q68 0 143 17.5t111 44.5q36 29 58.5 65t40 79.5t30 73t22.5 36.5q18 8 17 8q16 0 16 -33v-29l-78 -266q-3 -10 -7 -22.5t-10.5 -19t-18.5 -7.5h-50q-25 0 -73 2t-70 2h-102q-73 0 -216 -4t-214 -4
q-29 0 -29 20q0 11 12 22.5t33 14.5q30 6 47 16t24.5 23.5t15 36.5t15.5 51l250 877q12 36 12 61q0 46 -53 58q-12 3 -25 6.5t-16 13.5v4q0 23 13 29q3 0 17 2t24 2q25 0 78 -4t61 -4q13 0 42 -2t44 -2q62 0 182 4t182 4h33q37 0 37 -25q0 -4 -2 -13t-2 -15l-70 -242
q-6 -18 -17 -27.5t-20 -9.5q-20 0 -20 21q0 17 4 59t4 63q0 69 -29 103q-21 37 -135 37q-45 0 -90 -9q-27 -4 -39.5 -23t-18.5 -45t-12 -54l-106 -365q16 0 52 -2t54 -2q100 0 152 37q28 21 55.5 78t34.5 61h8q25 0 25 -16q0 -9 -5 -25t-7 -24q-49 -122 -74 -250
q-2 -17 -5.5 -50.5t-12 -57t-27.5 -23.5q-15 0 -22 13t-7 32q0 6 2 17t2 15v50q0 59 -19.5 78.5t-74.5 19.5q-13 0 -61 -2t-82 -2z" />
    <glyph glyph-name="F" unicode="F" horiz-adv-x="1104" 
d="M365 168q-13 -36 -13 -62q0 -24 11 -30t39.5 -10t43.5 -13q13 -6 13 -28q0 -21 -4 -25q-18 -8 -45 -8q-25 0 -74 6t-57 6h-17q-27 0 -93 -4t-87 -4h-25q-9 0 -14.5 6.5t-5.5 13.5q0 24 20 37q19 10 47.5 14t43.5 23t36 90l250 877q12 36 12 61q0 46 -53 58q-45 13 -45 32
q0 3 6 10t15 11h41q32 0 99 -2t77 -2q258 0 389 4h41q37 0 37 -25q0 -20 -4 -28l-74 -242q-7 -17 -19.5 -29t-21.5 -12t-16 20v21q0 13 2 51t2 59q0 54 -9 74q-14 31 -39.5 43t-62.5 15h-74q-37 0 -57 -5q-22 -6 -33.5 -26t-16.5 -43t-12 -53l-106 -365q17 0 52 -2t50 -2
q96 0 148 37q28 23 54 78.5t32 60.5h16q21 0 21 -16q0 -19 -17 -49q-14 -35 -25 -73t-22 -84.5t-22 -92.5q-2 -12 -6.5 -47.5t-14.5 -59.5t-28 -24q-25 0 -25 41q0 6 2 19t2 17v45q0 63 -19 83t-71 20q-13 0 -59 -2t-80 -2z" />
    <glyph glyph-name="G" unicode="G" horiz-adv-x="1145" 
d="M717 414q12 42 12 65q0 21 -11 27t-37.5 9t-45.5 13q-5 2 -11 12.5t-6 16.5q0 12 13 25q4 4 57 4q39 0 107 -4t69 -4q10 0 62 4t78 4q28 0 32 -4q8 -4 8 -21q0 -28 -16 -33q-21 -10 -52 -14t-45 -22.5t-34 -90.5l-94 -331q-7 -28 -17 -41.5t-36 -24.5q-89 -37 -238 -37
q-102 0 -184 39t-137.5 106.5t-84 154t-28.5 179.5q0 83 28 197q39 133 121.5 247t195 195t244 124.5t271.5 43.5h41q64 0 91.5 -7.5t27.5 -33.5q0 -23 -13 -65l-69 -213q-6 -22 -19 -33.5t-26 -11.5q-17 0 -27 14.5t-10 42.5q0 16 8 76t8 88q0 39 -17.5 64.5t-51.5 25.5
q-117 0 -225 -63t-193 -162q-90 -114 -145.5 -268.5t-55.5 -300.5q0 -115 37 -205q24 -75 80.5 -125.5t128.5 -50.5q17 0 57 8q62 20 78 119z" />
    <glyph glyph-name="H" unicode="H" horiz-adv-x="1415" 
d="M365 168q-13 -42 -13 -66q0 -21 10 -26t39.5 -9.5t44.5 -13.5q6 -2 11.5 -12t5.5 -16q0 -17 -8 -25q-18 -8 -62 -8q-33 0 -91 4t-64 4t-59 -2t-81 -2q-45 0 -53 4q-8 8 -8 16q0 10 7 22t13 15q19 10 47.5 14t43.5 23t36 90l250 877q12 42 12 65q0 21 -10 28.5t-34 11
t-46 9.5q-20 8 -20 29q0 13 8 21q12 12 57 12q21 0 58 -2t41 -2q16 0 48 -2t46 -2q20 0 64 2t67 2h8q21 0 25 -4t4 -17q0 -10 -7.5 -21.5t-17.5 -15.5q-16 -8 -48 -15t-45 -26.5t-30 -85.5l-98 -348q3 -4 9.5 -10t15.5 -6h344q34 0 41 29l98 348q12 49 12 65q0 21 -10 28
t-33 10.5t-47 10.5q-20 8 -20 29q0 13 8 21q12 12 57 12q21 0 58 -2t41 -2q13 0 42 -2t44 -2q22 0 69 2t70 2h8q20 0 24.5 -4t4.5 -17q0 -10 -8 -21.5t-17 -15.5q-13 -6 -45.5 -13t-45.5 -27t-32 -87l-250 -876q-12 -43 -12 -66q0 -21 10 -26t39 -9.5t45 -13.5q13 -6 13 -28
q0 -7 -9 -25q-8 -8 -57 -8q-30 0 -90 4t-66 4q-5 0 -58 -4t-81 -4q-37 0 -53 8q-12 12 -12 16q0 10 7 22t13 15q19 12 37.5 15t36 8t29.5 26t28 78l119 414q0 9 -12 19t-21 10h-328q-22 0 -32 -6t-17 -23z" />
    <glyph glyph-name="I" unicode="I" horiz-adv-x="817" 
d="M356 168q0 -4 -2 -14t-2 -11q0 -22 13.5 -38.5t35.5 -29.5t37 -22q13 -6 13 -28q0 -16 -9 -25q-16 -8 -57 -8q-33 0 -93 4t-63 4q-6 0 -60 -2t-79 -2q-45 0 -53 4q-12 6 -12 16q0 7 7.5 19.5t12.5 17.5q18 10 48.5 14t46 22.5t36.5 90.5l246 877q12 42 12 65q0 21 -10 28
t-33 11t-43 10q-24 10 -24 29l2 6t2.5 6t3.5 6t4 7q16 8 53 8q23 0 69 -4t50 -4q3 0 64 2t100 2q69 0 73 -4q9 -7 9 -17q0 -11 -9.5 -21.5t-19.5 -15.5q-13 -6 -45.5 -13t-45.5 -27t-32 -87z" />
    <glyph glyph-name="J" unicode="J" horiz-adv-x="1047" 
d="M582 188q-41 -143 -89.5 -248t-132.5 -186q-113 -113 -229 -119h-4q-52 0 -81.5 40.5t-29.5 95.5q0 52 24 89.5t66 37.5q6 0 13 -2t8 -2q29 -7 39.5 -34t14 -69.5t8.5 -60t24 -17.5h4q34 7 64.5 59t52 118t42.5 152.5t25 100.5l250 914q13 45 13 65q0 24 -11 29.5
t-39 9.5t-45 15q-16 8 -16 24q0 19 12 25q8 8 58 8q34 0 97 -4t62 -4q9 0 63 4t81 4q12 0 29 -2t16 -2q12 -6 12 -21q0 -8 -6.5 -18.5t-13.5 -13.5q-24 -14 -53 -17.5t-44 -24t-35 -90.5z" />
    <glyph glyph-name="K" unicode="K" horiz-adv-x="1239" 
d="M893 1073q33 41 33 57q0 25 -66 46q-24 8 -24 24q0 2 4.5 8.5t7.5 12.5q4 8 33 8q9 0 26 -2t19 -2h245q6 0 9.5 -6.5t3.5 -10.5q0 -18 -13 -28q-9 -8 -21.5 -12.5t-30 -9t-25.5 -7.5q-50 -21 -119 -90l-328 -307q-12 -13 -12 -33t16 -53.5t17 -40.5l172 -467
q18 -49 38.5 -72t67.5 -47q17 -6 17 -21q0 -10 -6 -17t-15 -7h-201q-21 0 -27 9.5t-18 43.5l-168 512q-3 15 -12 24t-16 9q-15 0 -21 -25l-114 -401q-13 -42 -13 -66q0 -21 10 -26t39.5 -9.5t44.5 -13.5q6 -2 11.5 -12t5.5 -16q0 -17 -8 -25q-18 -8 -49 -8q-27 0 -72 4
t-51 4h-37q-27 0 -86 -2t-78 -2h-25q-9 0 -14.5 6.5t-5.5 13.5q0 24 20 37q19 10 47.5 14t43.5 23t36 90l250 877q12 42 12 65q0 21 -10 28.5t-34 11t-46 9.5q-20 8 -20 33q0 9 8 17q6 12 57 12q21 0 58 -2t41 -2q13 0 42 -2t44 -2q22 0 69 2t70 2h8q21 0 25 -4t4 -17
q0 -10 -7.5 -21.5t-17.5 -15.5t-44.5 -12t-46.5 -26.5t-32 -88.5l-102 -344z" />
    <glyph glyph-name="L" unicode="L" horiz-adv-x="874" 
d="M434 1057q12 42 12 65q0 21 -11.5 27t-38 9t-44.5 13q-20 15 -20 33q0 9 12 21q16 8 57 8q34 0 96 -4t64 -4q7 0 61 4t83 4q11 0 28 -2t21 -2q8 -4 8 -21q0 -16 -21 -37q-20 -11 -45 -14.5t-33.5 -6.5t-21.5 -25.5t-31 -80.5l-237 -851q-2 -10 -11.5 -39.5t-9.5 -47.5
q0 -34 29 -40q42 -13 57 -13q53 0 107 18t90 44q43 33 62.5 70.5t48 106t45.5 77.5q4 4 16 4q16 0 16 -29q0 -4 -2 -14t-2 -15l-74 -266q-9 -32 -26.5 -40.5t-50.5 -8.5q-50 0 -150 2t-149 2q-99 0 -295 -8q-15 0 -26 8.5t-11 15.5q0 9 12 19.5t33 13.5q54 10 70.5 36
t31.5 91z" />
    <glyph glyph-name="M" unicode="M" horiz-adv-x="1608" 
d="M270 221q-20 -50 -20 -98q0 -17 8 -33q8 -19 32 -25t46 -12q41 -8 41 -33q0 -24 -37 -24q-13 0 -30 2t-19 2h-29q-24 0 -78 -2t-82 -2h-45q-15 0 -23.5 8.5t-8.5 20.5q0 4 5.5 12.5t10.5 11.5q20 9 60 21.5t60 34.5t36 75l295 877q8 24 8 57q0 26 -14.5 36.5t-43.5 16.5
t-39 10.5t-10 22.5v4q0 29 37 29q32 0 91 -4t89 -4q15 0 34 2t24 2q37 0 37 -45l36 -840l496 852q18 33 53 33h49q8 0 19 -2t14 -2h103q6 0 18 2t18 2q33 0 33 -25q0 -21 -18.5 -27t-45 -12t-49.5 -32t-38 -89l-205 -876q-3 -19 -7.5 -37.5t-4.5 -28.5q0 -14 7.5 -22
t26.5 -13t52 -10q8 0 14 -11.5t6 -20.5v-9q-5 -24 -45 -24q-14 0 -37 4t-29 4q-24 0 -67.5 -0.5t-86.5 -1.5t-75.5 -1.5t-52.5 -0.5q-8 0 -14.5 6.5t-6.5 13.5q0 23 21 37q10 5 46.5 13.5t53 29.5t31.5 84l209 877l-594 -1024q-8 -12 -17.5 -18.5t-15.5 -6.5q-24 0 -24 37
l-37 1008z" />
    <glyph glyph-name="N" unicode="N" horiz-adv-x="1415" 
d="M274 221q-3 -12 -7.5 -31.5t-8.5 -37t-4 -29.5q0 -53 82 -70q45 0 45 -33v-4q0 -24 -41 -24q-14 0 -37 4t-29 4h-24q-24 0 -76 -2t-76 -2h-41q-12 0 -20 9t-8 20q0 5 4 13t12 11q22 12 58 16t56.5 23.5t41.5 91.5l250 877q4 24 4 57q0 28 -13 37.5t-40.5 14t-38.5 9.5
t-11 25v4q0 29 66 29q21 0 62 -4t48 -4q12 0 30 2t24 2q43 0 53 -45l287 -856l188 688q20 68 20 98q0 48 -86 70q-11 0 -28 8.5t-17 19.5q0 3 9 21q8 8 57 8q26 0 71 -2t48 -2q4 0 48 2t71 2q9 0 26 -2t19 -2q12 -6 12 -25q0 -7 -5 -15.5t-12 -8.5q-35 -9 -62.5 -16
t-42.5 -16.5t-27 -31.5t-27 -67l-287 -1032q-6 -41 -25 -41q-12 0 -36 49l-336 1024z" />
    <glyph glyph-name="O" unicode="O" horiz-adv-x="1145" 
d="M127 729q40 128 127.5 248.5t209 198t253.5 77.5q92 0 165.5 -46.5t121.5 -129.5q77 -131 77 -299q0 -94 -28 -217q-23 -103 -77 -206t-134 -191.5t-180.5 -140.5t-215.5 -52q-83 0 -160 49.5t-126 126.5q-78 137 -78 308q0 119 45 274zM324 700q-27 -98 -46.5 -194.5
t-19.5 -194.5q0 -68 23.5 -134.5t68.5 -109t101 -42.5q101 0 183.5 97t135 215t86.5 232q13 56 25 114.5t20 113.5t8 112q0 66 -25.5 134.5t-73 112.5t-105.5 44q-72 0 -134 -52.5t-111 -133t-81.5 -161t-54.5 -153.5z" />
    <glyph glyph-name="P" unicode="P" horiz-adv-x="1124" 
d="M631 1106l-131 -463v-20q0 -21 37 -21q77 0 146 40t118 106.5t67 140.5q13 48 13 102q0 170 -131 180q-10 0 -22 2.5t-19 2.5q-36 0 -52.5 -14t-25.5 -56zM184 180l250 877q12 36 12 61q0 28 -17 42.5t-56 23.5q-10 0 -15.5 6.5t-5.5 13.5q0 8 4 13q5 16 50 16
q16 0 47 -4t34 -4h226q123 0 168 -13q90 -20 139 -92t49 -166v-49q-17 -131 -96.5 -210.5t-195.5 -112.5t-245 -33h-57l-110 -381q-13 -42 -13 -66q0 -21 10 -26t39.5 -9.5t44.5 -13.5q6 -2 11.5 -12t5.5 -16q0 -17 -8.5 -25t-53.5 -8q-26 0 -73 4t-54 4h-28q-22 0 -69 -2
t-71 -2h-49q-9 0 -14.5 6.5t-5.5 13.5q0 30 20 37q19 10 47.5 14t43.5 23t36 90z" />
    <glyph glyph-name="Q" unicode="Q" horiz-adv-x="1223" 
d="M401 700q-65 -237 -65 -389q0 -113 37 -189t119 -93q12 -4 36 -4q102 0 184.5 97t135 215t86.5 232q13 56 25 114.5t20 113.5t8 112q0 244 -160 287q-5 0 -20 2t-25 2q-72 0 -134 -52.5t-111 -133t-81.5 -161t-54.5 -153.5zM913 160q-58 -59 -122.5 -96.5t-135.5 -62.5
t-149.5 -52.5t-140.5 -63.5q100 -22 204 -73q7 -3 29 -13t45.5 -19t44 -13.5t37.5 -4.5h20q63 5 101.5 40t68.5 83.5t39 53.5q2 0 9 2t8 2q16 0 16 -25q0 -13 -6 -40t-6 -30q-53 -108 -150 -183t-202 -75q-34 0 -70 9q-65 15 -107.5 50.5t-104 101t-83.5 65.5v-4
q-14 0 -38 -18.5t-52 -42t-50.5 -37t-47.5 -13.5q-5 0 -17 2t-16 2q-29 11 -29 45q0 35 33 70q20 19 49.5 31t63.5 18t67 12q20 2 110.5 50t106.5 53q-96 39 -157.5 110.5t-89 162.5t-27.5 194q0 224 110 446q80 146 218.5 251t289.5 105q66 0 115 -16q77 -27 132 -85.5
t86.5 -136.5t39.5 -159q0 -15 2 -45t2 -45q0 -110 -29 -221t-86 -211.5t-131 -173.5z" />
    <glyph glyph-name="R" unicode="R" horiz-adv-x="1165" 
d="M467 524l-102 -356q-13 -42 -13 -66q0 -19 10 -25.5t35.5 -9.5t44.5 -10q17 -5 17 -32q0 -17 -4 -21q-6 -12 -70 -12q-31 0 -82 4t-53 4q-9 0 -76 -2t-92 -2h-25q-9 0 -14.5 6.5t-5.5 13.5q0 24 20 37q19 10 47.5 14t43.5 23t36 90l250 877q12 42 12 65q0 30 -14 38.5
t-41.5 13t-34.5 18.5q-3 3 -3.5 6.5t-0.5 5.5q0 12 14 20.5t27 8.5q56 0 166 -4t166 -4q89 0 177.5 -19.5t152 -71t63.5 -139.5q0 -140 -101 -244.5t-247 -156.5q-37 -12 -37 -21q0 1 18 -16t23 -41l90 -356q11 -40 21 -63t28.5 -36t53.5 -20q16 -5 16 -21q0 -7 -6.5 -15.5
t-18.5 -8.5q-16 -4 -53 -4q-23 0 -69 4t-66 4q-2 0 -6 -2t-6 -2q-29 0 -35.5 8.5t-17.5 44.5l-107 434q-9 45 -66 45q-45 0 -65 -4zM709 1171q-35 0 -51 -11.5t-27 -53.5l-131 -475q-4 -8 -4 -21q0 -24 32 -24q9 0 27 4t27 4q91 7 164.5 61t119 136.5t56.5 171.5v49
q0 77 -58.5 118t-154.5 41z" />
    <glyph glyph-name="S" unicode="S" horiz-adv-x="932" 
d="M33 119l45 221q9 45 37 45h16q12 -4 12 -82v-37q4 -105 37.5 -175.5t122.5 -70.5q59 0 113.5 36.5t87.5 94.5t33 119q0 72 -29 135t-75.5 123.5t-97.5 129.5t-73 124q-29 59 -29 131q0 59 33 118t90 109t125 79.5t137 29.5q81 0 153.5 -13t100.5 -40q13 -12 13 -33
q0 -8 -4 -26t-4 -23l-58 -196q-4 -15 -14 -28t-23 -13q-4 0 -20 16q-2 7 -4.5 56.5t-6 94.5t-6.5 58q-7 31 -28.5 55.5t-51 35.5t-59.5 11q-51 0 -99 -26.5t-79 -74.5t-31 -108q0 -50 32 -105t104.5 -150t114.5 -159.5t57 -125.5q8 -50 8 -86q0 -111 -56 -205.5t-153 -143.5
q-79 -49 -197 -49q-104 0 -217 45q-61 25 -61 74q0 21 4 29z" />
    <glyph glyph-name="T" unicode="T" horiz-adv-x="1087" 
d="M430 168q-12 -43 -12 -66q0 -19 10 -25.5t35.5 -9.5t44.5 -10q7 -2 13.5 -14t6.5 -18q0 -17 -4 -21q-12 -12 -73 -12q-33 0 -84 4t-52 4q-6 0 -74 -2t-94 -2h-24q-8 0 -14.5 6.5t-6.5 13.5q0 16 21 37q19 12 36 14t34.5 6.5t31 28.5t29.5 78l283 987q-114 0 -166 -14.5
t-80 -58t-70 -160.5q-6 -18 -17.5 -27.5t-23.5 -9.5q-16 0 -16 25q0 4 2 12t2 12l102 328q8 16 20 30.5t21 14.5q3 0 8 -5.5t5 -15.5v-45q0 -28 36 -28h525q31 0 46.5 4t27 16.5t28.5 40.5q5 21 25 21q16 0 16 -21v-16l-102 -348q-14 -45 -33 -45q-4 0 -16 12q0 3 -2.5 10
t-2.5 14q0 27 17 99q12 55 12 86q0 43 -21 56t-69 13h-94z" />
    <glyph glyph-name="U" unicode="U" horiz-adv-x="1260" 
d="M188 578l140 479q12 42 12 65q0 20 -10.5 28t-35.5 11.5t-44 9.5q-21 9 -21 29q0 14 9 21q6 12 53 12q21 0 59 -2t43 -2q15 0 44 -2t42 -2q22 0 69 2t70 2h9q20 0 20 -4q8 -8 8 -17q0 -8 -8 -19.5t-16 -17.5q-22 -9 -44.5 -12.5t-34 -9.5t-21.5 -28t-27 -77l-168 -589
q-9 -33 -19 -76.5t-16 -84t-6 -73.5q0 -80 57 -142.5t148 -62.5q130 0 204 103.5t115 257.5l185 680q8 66 8 69q0 19 -8 24.5t-35 10t-43 10.5q-21 8 -21 33q0 2 2 9t2 8q13 12 45 12q14 0 41 -2t33 -2h102q21 0 41 -1.5t29 -2.5q8 -8 8 -17q0 -8 -8 -19.5t-16 -17.5
q-17 -7 -49.5 -14.5t-44.5 -26t-33 -86.5l-189 -675q-49 -185 -143 -293.5t-250 -108.5q-56 0 -115 13q-225 52 -225 299q0 65 15.5 140t37.5 159z" />
    <glyph glyph-name="V" unicode="V" horiz-adv-x="1145" 
d="M397 -4q-19 -33 -37 -33q-20 0 -20 29l-78 1065q-5 66 -21.5 82.5t-46 21.5t-38.5 27q0 2 -2 6t-2 6q0 13 12 21t29 8h24q39 0 123 -4t123 -4q4 0 30 4t39 4q41 0 41 -21v-4q0 -14 -9.5 -25.5t-22.5 -11.5q-66 -13 -84.5 -25.5t-18.5 -56.5q0 -5 2 -20t2 -25l54 -725
l360 742q16 32 16 57q0 21 -13.5 28t-45.5 12.5t-47 12.5q-25 19 -25 33q0 5 9 21q12 12 53 12q19 0 56 -4t42 -4h131q58 0 62 -4t4 -17q0 -9 -8.5 -21.5t-16.5 -15.5q-14 -8 -49 -20.5t-55.5 -32.5t-46.5 -74z" />
    <glyph glyph-name="W" unicode="W" horiz-adv-x="1608" 
d="M1315 1090q16 32 16 53q0 12 -23.5 21.5t-33.5 15.5q-17 8 -17 20q0 9 8.5 17.5t20.5 11.5h17q21 0 64 -4t63 -4q4 0 14 2t14 2q2 0 20 2t29 2q37 0 37 -21q0 -27 -33 -37q-33 -9 -54 -15t-37.5 -19t-26.5 -35l-570 -1106q-13 -33 -37 -33q-14 0 -20 29l-49 532
l-287 -528q-19 -33 -41 -33q-14 0 -20 29l-107 1065q-5 49 -10 67t-35 31q-11 4 -23.5 7.5t-22 8.5t-15.5 17q0 2 -2 6t-2 6q0 9 9 19t19 10h33q25 0 94 -4t99 -4q1 0 10 2t14 2q3 0 20 2t25 2q33 0 33 -21q0 -24 -33 -41q-57 -28 -57 -69q0 -8 8 -58l82 -778l197 356
l-46 439q-6 63 -20.5 82.5t-38 22.5t-35.5 18q-8 8 -8 16q0 9 7 19t18 14h45q25 0 79 -4t76 -4q6 0 12 1t12.5 1.5t16 1t21.5 0.5q16 0 30.5 -5.5t14.5 -15.5q0 -14 -17 -24q-14 -18 -29 -24.5t-19.5 -11t-4.5 -26.5q0 -2 2 -15t2 -26l21 -205l135 242q12 24 12 33
q0 13 -23.5 21t-33.5 20q0 2 -2 8t-2 8q0 25 78 25q20 0 58 -2t48 -2h25q57 0 57 -21q0 -9 -9.5 -18.5t-23.5 -14.5q-68 -18 -82.5 -24.5t-36.5 -44.5l-192 -328l53 -495z" />
    <glyph glyph-name="X" unicode="X" horiz-adv-x="1223" 
d="M434 1057q-11 50 -27.5 71t-37 28.5t-35.5 12.5t-23 19q0 2 -2 6t-2 6q0 9 8 19t21 10h16q11 0 35 -2t35 -2q15 0 43 -2t43 -2q18 0 47 2t43 2q3 0 28 4t42 4t33 -6.5t16 -18.5q0 -10 -7 -18.5t-14.5 -12.5t-19.5 -10q-70 -17 -70 -73q0 -12 8 -54l66 -262l221 307
q17 30 17 50q0 16 -28.5 30t-33.5 19q-12 6 -12 16q0 9 10 19t23 10q26 0 82 -2t85 -2h50q4 0 15.5 1.5t12.5 2t13 0.5q41 0 41 -21v-4q0 -21 -37 -33q-97 -12 -156 -90l-287 -376l135 -537q16 -65 36.5 -82.5t51 -26.5t35.5 -30v-4q0 -15 -14.5 -22t-30.5 -7q-41 0 -125 2
t-125 2h-8q-6 0 -35 -2t-43 -2q-28 0 -32 8q-9 9 -9 16q0 10 15 22t26 15q51 13 68.5 24.5t17.5 45.5q0 9 -8 57l-86 340l-270 -393q-21 -28 -21 -45q0 -12 8.5 -16.5t31.5 -10t37 -11t18 -19.5q2 -2 3 -5t1 -4q0 -11 -11.5 -17.5t-25.5 -6.5q-38 0 -113 2t-108 2
q-8 0 -31 -4t-35 -4q-8 0 -24 8q-9 7 -9 16q0 18 29 33q15 6 50 15.5t58.5 21t39.5 33.5l352 475z" />
    <glyph glyph-name="Y" unicode="Y" horiz-adv-x="1124" 
d="M262 1057q-16 68 -33 86t-40.5 23t-32.5 22q0 2 -2 6t-2 6q0 13 12 21t29 8q33 0 106 -2t111 -2h86q61 0 61 -25q0 -9 -12.5 -21.5t-28.5 -15.5q-46 -6 -64 -22t-18 -51q0 -8 8 -50l86 -405l299 422q29 33 29 61q0 33 -82 53q-29 12 -29 29q0 6 9 17q4 8 57 8h82
q18 0 61 2t62 2q8 0 24 -2t21 -2t8.5 -6.5t3.5 -10.5q0 -16 -12 -28q-16 -14 -30 -17t-30.5 -6.5t-45 -32.5t-66.5 -84l-291 -409q-43 -57 -53 -107l-94 -356q-17 -55 -17 -66q0 -19 10 -25.5t36.5 -9.5t47.5 -10q9 -3 13 -13t4 -19q0 -17 -4 -21q-4 -8 -70 -8q-31 0 -82 2
t-53 2q-19 0 -72 -2t-76 -2h-49q-9 0 -14.5 6.5t-5.5 13.5q0 10 7 22t13 15q21 12 50.5 16t45.5 23.5t35 87.5l82 299q13 41 13 78q0 22 -9 78z" />
    <glyph glyph-name="Z" unicode="Z" horiz-adv-x="1067" 
d="M33 -4v45l762 1126h-66q-152 0 -241.5 -37t-139.5 -167q-4 -15 -8 -32t-10.5 -35t-18 -31t-28.5 -13t-17 25q0 7 2 19t2 13l78 271q6 24 10.5 35t18.5 14h33q16 0 50 -2t48 -2q42 0 121 -2t116 -2q95 0 267 8v-41l-762 -1118q23 0 65 -2t62 -2q91 0 156 13.5t118.5 57
t81.5 125.5l7 24.5t13.5 39.5t19.5 34.5t26 12.5h8q12 0 12 -25q0 -4 -2 -16t-2 -17l-78 -266q-16 -53 -57 -53q-9 0 -34 2t-44 2q-94 4 -287 4q-188 0 -282 -8z" />
    <glyph glyph-name="bracketleft" unicode="[" horiz-adv-x="682" 
d="M45 -274l442 1568q16 51 37.5 66.5t61.5 15.5q7 0 38 -2t52 -2q6 0 33 4t41 4q32 0 32 -24v-13q-11 -40 -45 -40q-5 0 -25 2t-28 2q-43 0 -57 -54l-422 -1470q-12 -31 -12 -45q0 -33 36 -33h78q3 0 17 -2t20 -2q4 0 4 -20q0 -16 -7 -31t-22 -15h-221q-65 0 -65 37
q0 22 12 54z" />
    <glyph glyph-name="backslash" unicode="\" horiz-adv-x="547" 
d="M487 -180h-81l-267 1433h82z" />
    <glyph glyph-name="bracketright" unicode="]" horiz-adv-x="801" 
d="M758 1282l-447 -1569q-11 -36 -23.5 -52.5t-30 -23t-44.5 -6.5q-11 0 -40 2t-50 2q-16 0 -42 -4t-36 -4q-12 0 -22.5 6.5t-10.5 18.5q0 2 2 6t2 6q5 37 33 37h37q44 0 59 7t27 42l422 1475q8 40 8 45q0 33 -41 33q-15 0 -37 -2.5t-32 -2.5q-8 0 -20 4.5t-17 4.5
q-2 0 -5.5 6.5t-3.5 13.5q0 14 9.5 29.5t23.5 15.5h226q61 0 61 -41q0 -17 -8 -49z" />
    <glyph glyph-name="asciicircum" unicode="^" horiz-adv-x="932" 
d="M877 1020h-54l-159 188l-254 -188h-62l283 319h98z" />
    <glyph glyph-name="underscore" unicode="_" horiz-adv-x="1087" 
d="M45 -348h979v-115h-979v115z" />
    <glyph glyph-name="grave" unicode="`" horiz-adv-x="817" 
d="M770 1020h-61l-226 188q-49 38 -49 82q0 23 16.5 38t41.5 15q48 0 81 -45z" />
    <glyph glyph-name="a" unicode="a" horiz-adv-x="952" 
d="M680 688q25 60 25 98q0 31 -18 50.5t-56 19.5q-94 0 -191.5 -115t-164 -265.5t-66.5 -233.5q0 -45 10 -82t35 -37q17 0 41 12q96 41 213.5 226.5t171.5 326.5zM590 -16q-70 0 -70 102q0 53 17.5 125.5t46 157.5t30.5 94q-59 -105 -135 -212t-165.5 -187t-166.5 -80
q-43 0 -74.5 48.5t-31.5 106.5q0 117 55.5 252.5t143.5 252t188 187t186 70.5q79 0 123 -45q19 43 27 54.5t39 11.5h53q19 0 32 -7.5t13 -21.5q0 -8 -4 -16l-176 -594q-7 -22 -18 -63t-11 -64q0 -21 8 -21q10 0 25 17q33 30 52 68.5t46 107.5q5 10 17.5 22.5t19.5 18.5
q17 0 17 -45q0 -46 -53 -128.5t-121.5 -147t-112.5 -64.5z" />
    <glyph glyph-name="b" unicode="b" horiz-adv-x="874" 
d="M221 324q-45 -124 -45 -205q0 -94 78 -94q64 0 124 57.5t112.5 149t87 179t49.5 146.5q16 42 16 131q0 98 -57 98q-63 0 -138.5 -84.5t-137 -195t-89.5 -182.5zM737 344q-50 -106 -132.5 -192t-175.5 -133.5t-171 -47.5q-90 0 -143.5 62t-53.5 184q0 94 45 258l209 672
q1 7 9 33.5t8 40.5q0 17 -10.5 29.5t-30.5 15.5q-1 0 -10 -2t-11 -2q-34 0 -41 20q-4 0 -4 8q0 10 12.5 17.5t24.5 7.5q107 8 160 28q16 4 34 12t34.5 14t33.5 7h4q17 0 17 -16q0 -17 -8 -33l-230 -741q80 127 167.5 225t172.5 98q60 0 102.5 -55.5t53.5 -120.5q8 -56 8 -86
q0 -76 -20.5 -154t-53.5 -149z" />
    <glyph glyph-name="c" unicode="c" horiz-adv-x="780" 
d="M668 889q30 -20 47.5 -58.5t17.5 -76.5t-30 -72.5t-68 -34.5q-37 0 -50 26.5t-19 80t-19 80t-55 26.5q-81 0 -160 -142t-107 -239q-28 -114 -28 -192q0 -111 49 -160q42 -37 90 -37q34 0 74 21q61 26 101.5 75.5t71.5 106t40 59.5h8q12 0 12 -16q0 -34 -41.5 -102
t-69.5 -107q-63 -75 -134 -113.5t-136 -38.5q-66 0 -120 36t-85.5 107.5t-31.5 164.5q0 5 2 24t2 29q8 106 52.5 209.5t120 188.5t167.5 130q44 21 96 35t96 14q57 0 107 -24z" />
    <glyph glyph-name="d" unicode="d" horiz-adv-x="1010" 
d="M545 414q-28 -47 -71 -119t-87.5 -131.5t-93 -105t-105.5 -66.5q-32 -8 -53 -8q-60 0 -91.5 62t-31.5 142q0 130 52 263t144.5 242t205.5 171q88 49 172 49q63 0 98 -28l74 262q2 12 9 37t7 33q0 44 -49 49q-61 5 -61 24q0 11 15 20t34 9q55 0 102.5 12.5t92 28.5
t59.5 16q12 0 12 -16q0 -21 -4 -33l-303 -1044q-7 -21 -18 -60.5t-11 -62.5q0 -25 12 -25q9 0 21 12q38 38 90 156q7 17 21 41.5t24 24.5q8 0 8 -13v-12q0 -41 -46 -129.5t-110 -157.5t-118 -69q-33 0 -55.5 28t-22.5 66q0 39 7 74t20 82t30 103.5t21 72.5zM631 688
q24 67 24 111q0 36 -16 54.5t-45 18.5q-53 0 -132.5 -70.5t-153.5 -204.5t-111 -310q-13 -55 -13 -86q0 -78 45 -78q52 0 136.5 107.5t162.5 247t103 210.5z" />
    <glyph glyph-name="e" unicode="e" horiz-adv-x="817" 
d="M258 516q-20 -50 -20 -65q0 -17 24 -17h21q129 28 215 99t100 188q0 9 2 24t2 17q0 50 -18.5 78t-46.5 28q-39 0 -91 -41.5t-102 -120.5t-86 -190zM705 557q-49 -62 -127.5 -97t-167.5 -52.5t-185 -26.5q-12 -55 -12 -111q0 -86 37.5 -133t97.5 -47t129 50t117 139
q5 6 17.5 35t27.5 34h4q16 0 16 -12v-8q0 -8 -4 -23t-9 -26t-11 -25q-74 -154 -201 -234q-78 -53 -160 -53q-70 0 -125.5 42t-87.5 117.5t-32 164.5q0 18 4.5 44t7.5 50q19 119 90.5 242t180.5 202.5t233 79.5q49 0 73 -4q69 -11 104.5 -66.5t35.5 -125.5q0 -88 -53 -156z
" />
    <glyph glyph-name="f" unicode="f" horiz-adv-x="1300" 
d="M639 823q-3 0 -35 -4t-51 -4q-61 0 -61 29v8q3 9 5.5 18.5t10.5 14.5q2 0 22 2t31 2q21 0 56 -2t42 -2q50 150 100.5 251t139 172.5t219.5 71.5q66 0 100.5 -36t34.5 -82q0 -36 -22.5 -63.5t-63.5 -27.5h-4q-47 0 -58.5 22.5t-17.5 66t-26 51.5q-3 0 -14 2t-15 2
q-56 0 -94.5 -73t-60.5 -152l-58 -205q2 0 33 2t53 2q66 0 78 -12q4 0 4 -13v-16q-7 -21 -20 -25q-6 0 -25 -2t-29 -2q-18 0 -56 2t-54 2l-221 -807q-87 -339 -263 -438q-83 -37 -147 -37q-61 0 -102 25q-33 15 -49.5 46t-16.5 69q0 41 24.5 75.5t57.5 34.5q19 0 37 -12
q37 -22 37 -74v-61q0 -40 20 -45q8 -5 29 -5q48 0 87.5 66.5t69 160t40.5 130.5z" />
    <glyph glyph-name="g" unicode="g" horiz-adv-x="1051" 
d="M332 360q-82 102 -82 222q0 71 29.5 135t89.5 114q47 41 98.5 59.5t105.5 18.5q83 0 193 -45h233l-45 -78h-135q33 -83 33 -159q0 -96 -51 -176t-130.5 -126t-162.5 -46q-47 0 -94 20q-14 8 -29 16.5t-25 8.5q-7 0 -20 -13q-16 -24 -16 -41q0 -36 28 -57
q44 -40 164.5 -102.5t181 -117.5t60.5 -145q0 -61 -36 -117.5t-96 -100t-126.5 -66.5t-122.5 -23q-54 0 -119 18t-123.5 51.5t-94.5 79t-36 101.5q0 95 85 155.5t206 102.5q-78 66 -78 139q0 91 115 172zM401 -406q71 0 150.5 50.5t79.5 113.5q0 49 -41 90q-26 33 -91.5 71
t-158.5 89q-95 -12 -144 -62t-49 -114q0 -54 32 -109.5t90.5 -92t131.5 -36.5zM446 336q8 0 17 -2t12 -2q56 0 115.5 57.5t97.5 159.5q29 84 29 156q0 55 -24.5 99t-78.5 44q-39 0 -79 -30.5t-73 -80.5t-52 -110q-29 -75 -29 -148q0 -55 18 -94.5t47 -48.5z" />
    <glyph glyph-name="h" unicode="h" horiz-adv-x="895" 
d="M41 106l283 1041q2 8 6 21.5t7 27t3 25.5q0 34 -25 41q-16 2 -28.5 2.5t-24 3t-16.5 6.5q-2 2 -7.5 5.5t-5.5 6.5q0 14 29 29q11 3 56 6t71 10q18 5 56 18.5t71 22.5q4 4 16 4q13 0 13 -12q0 -5 -2 -18t-2 -19l-242 -840q46 87 94.5 165.5t105.5 145.5t119 99
q23 16 62 16q34 0 63 -13t43 -40q45 -61 45 -180q0 -149 -45 -266q-30 -88 -76.5 -169t-111 -149t-139.5 -100q-28 -16 -66 -16t-58 26.5t-20 63.5q0 41 21 77.5t53 36.5q30 0 36 -17.5t15 -61.5t27 -44q39 0 84.5 122.5t76.5 285.5t31 248q0 53 -8 61q-10 21 -37 21
q-66 0 -157 -139.5t-142 -241.5q-74 -145 -147 -377q-6 -24 -22.5 -33t-47.5 -12h-24q-54 0 -54 33q0 8 8 31t13 46z" />
    <glyph glyph-name="i" unicode="i" horiz-adv-x="604" 
d="M262 717q8 40 8 49q0 20 -12 20q-20 0 -53 -34t-53 -64q-66 -106 -78 -106q-5 0 -11 5t-6 11q0 7 8.5 23t8.5 18q42 83 101 151t128 99q32 16 66 16q37 0 57 -20q16 -23 16 -66q0 -27 -6.5 -55t-17.5 -66t-12 -43q-28 -85 -65.5 -192.5t-61.5 -185t-29 -117.5
q0 -13 4 -21t8 -8q13 0 32 20t39.5 46.5t38.5 51.5t21 30q0 10 19 39.5t34 29.5h9q4 0 4 -16q0 -11 -4 -26l-4 -15q-19 -42 -73 -116.5t-118.5 -130.5t-120.5 -56q-19 0 -45 12q-20 20 -20 70q0 75 36 200t91 276t61 171zM545 1184q-3 -33 -26.5 -55.5t-59.5 -22.5
q-32 0 -57 21t-25 49v8q3 34 29.5 58t60.5 24q31 0 54.5 -22.5t23.5 -51.5v-8z" />
    <glyph glyph-name="j" unicode="j" horiz-adv-x="932" 
d="M791 1233q31 0 54 -23t23 -55v-4q-3 -35 -25.5 -58.5t-56.5 -23.5q-35 0 -60.5 21.5t-25.5 52.5q1 1 3 2.5t2 5.5q3 32 28 57t58 25zM754 733l-246 -811q-69 -237 -213 -323q-36 -27 -78 -42.5t-82 -15.5q-36 0 -65 13q-66 26 -66 114q0 47 24 83t62 36q7 0 25 -8
q25 -9 35 -34t15 -63t12.5 -56.5t27.5 -18.5q33 0 61 55t50 135t28 101l193 655q4 14 17 53.5t24.5 80t11.5 67.5q0 32 -17 32q-25 0 -50 -34t-68.5 -101.5t-57.5 -68.5q-6 0 -11 5t-5 11q0 7 8 24l8 17q92 184 230 250q32 16 69 16q40 0 62 -20q16 -23 16 -54
q0 -16 -9 -51.5t-11 -46.5z" />
    <glyph glyph-name="k" unicode="k" horiz-adv-x="895" 
d="M307 438q4 0 15 -2t14 -2q133 0 237 98q45 42 76 98.5t31 110.5q0 7 -2 21t-2 20q-12 37 -49 37q-25 0 -49 -16q-60 -37 -108.5 -95.5t-79.5 -113.5t-83 -156zM37 49l315 1098q1 7 9 33.5t8 40.5q0 40 -41 45q-1 0 -10 -2t-11 -2q-10 0 -22 5.5t-15 14.5q-4 0 -4 8
q0 10 11.5 17.5t21.5 7.5q101 8 156 28q29 10 54 20t48 13h4q6 0 11.5 -4.5t5.5 -11.5q0 -8 -4.5 -19t-4.5 -14l-217 -709q77 117 138.5 190t140.5 97q16 8 53 8q55 0 98 -32.5t54 -85.5q8 -34 8 -54q0 -60 -31 -118.5t-80 -98.5q-60 -48 -129.5 -71.5t-169.5 -42.5
q47 -37 65 -79.5t42 -129.5q35 -144 82 -144q2 0 28 13q25 10 25 45q0 17 -6.5 35t-17.5 38.5t-17 32.5q-3 9 -7.5 19.5t-4.5 17.5q0 26 12 47t37 27h16q31 0 48.5 -28.5t17.5 -74.5q0 -67 -32.5 -134t-86.5 -95q-45 -25 -82 -25q-50 0 -90.5 40t-65.5 104q-6 15 -24.5 86
t-37.5 113.5t-52 62.5l-103 -340q-11 -45 -41 -45q-3 0 -24 2t-37 2q-31 0 -40 2.5t-9 13.5q0 1 8 33z" />
    <glyph glyph-name="l" unicode="l" horiz-adv-x="604" 
d="M344 1151q2 15 9 39.5t7 34.5q0 40 -41 45q-10 2 -23 3t-21.5 3.5t-12.5 9.5q-4 4 -4 12q0 10 11.5 17.5t21.5 7.5q106 8 160 25q13 3 48 16.5t54 15.5h4q16 0 16 -16q0 -3 -4 -16t-4 -17l-332 -1057q0 4 -14 -49t-14 -78q0 -28 16 -28q17 0 33 16q41 33 70 76t69 113
q12 12 21 12q16 0 16 -17q0 -28 -35 -84.5t-59 -82.5q-54 -73 -109.5 -120.5t-120.5 -47.5q-69 0 -69 102q0 45 13.5 104.5t30 111.5t25.5 79z" />
    <glyph glyph-name="m" unicode="m" horiz-adv-x="1374" 
d="M754 479q103 173 211 299.5t219 126.5q34 0 64 -16.5t38 -48.5q8 -26 8 -49q0 -62 -27.5 -148.5t-83.5 -223t-74.5 -187t-18.5 -93.5q0 -9 4 -16.5t8 -7.5q11 0 27.5 7.5t21.5 12.5q22 22 82 109.5t70 87.5q3 -3 7.5 -9.5t4.5 -11.5v-12q-30 -76 -86.5 -151t-122.5 -123
q-62 -45 -107 -45q-62 0 -73 61q0 6 -2 19t-2 18q0 61 23.5 143t55.5 166.5t64 161.5q1 4 20 48.5t34.5 92.5t15.5 80q0 45 -21 45q-24 0 -54.5 -22t-63.5 -56.5t-62 -70.5t-41 -52q-164 -232 -258 -548q-7 -60 -57 -66q-21 -4 -54 -4q-49 0 -49 37q0 13 17 73l139 447
q0 1 24.5 80.5t24.5 120.5q0 53 -29 53q-50 0 -127 -102q-173 -214 -282 -504q-4 -10 -30 -92.5t-36 -92.5q-25 -20 -70 -20h-12q-61 0 -61 33q0 9 7.5 39.5t8.5 37.5l139 447q13 35 33.5 99.5t20.5 101.5q0 13 -5.5 22.5t-11.5 9.5q-18 0 -41.5 -31.5t-75.5 -102t-63 -70.5
v4q-4 0 -8 4t-4 8q0 19 15.5 48.5t37 61t25.5 33.5q115 164 225 164q38 0 56 -27t18 -71q0 -47 -14 -102t-36 -120.5t-24 -76.5q75 120 124.5 189.5t132 136.5t173.5 67q37 0 53.5 -32t16.5 -78q0 -50 -15.5 -110.5t-34 -112t-32.5 -89.5z" />
    <glyph glyph-name="n" unicode="n" horiz-adv-x="973" 
d="M53 106l140 447q0 -2 24.5 80.5t24.5 120.5q0 32 -17 32q-6 0 -24 -12q-24 -21 -44.5 -47.5t-44.5 -64.5t-38 -60q-20 -20 -29 -20q-8 0 -8 16q1 36 53.5 112.5t122 135t127.5 59.5q70 0 70 -98q0 -39 -10 -86.5t-20.5 -83t-24.5 -74.5t-19 -55q68 105 118 172.5
t120 131.5t143 89q32 8 57 8q39 0 71.5 -17.5t43.5 -51.5q4 -13 4 -49q0 -63 -28 -152t-77.5 -210t-72.5 -186.5t-23 -103.5q0 -2 2 -6t2 -6q0 -12 13 -12q10 0 25.5 10t23.5 18q17 16 45 54.5t60 86.5t34 48h8q8 0 8 -17q0 -16 -4 -20q-35 -88 -92.5 -163t-128.5 -120
q-38 -32 -86 -32q-32 0 -55 26t-23 68q0 139 168 544q9 21 19.5 49t18 54t7.5 49q0 19 -13 34t-32 15q-96 0 -286 -295q-37 -55 -66 -110t-53 -114t-55.5 -149l-38.5 -110q-16 -45 -99 -45q-57 0 -57 33q0 13 16 77z" />
    <glyph glyph-name="o" unicode="o" horiz-adv-x="838" 
d="M446 123q25 32 56.5 100.5t56.5 145t42 161t17 154.5q0 89 -28 135q-37 49 -82 49q-44 0 -89.5 -36.5t-74.5 -81.5q-49 -83 -102.5 -252t-53.5 -293q0 -67 29 -127q36 -53 82 -53q39 0 79 28.5t68 69.5zM676 844q56 -47 79 -123.5t23 -163.5v-25q-1 -74 -22.5 -146.5
t-61.5 -142t-92 -124.5q-59 -62 -141 -103t-158 -41q-104 0 -180 82q-86 97 -86 267q0 4 2 14t2 14q3 125 48 237.5t128 192.5q35 35 82 65.5t98.5 48t102.5 17.5q107 0 176 -69z" />
    <glyph glyph-name="p" unicode="p" horiz-adv-x="1047" 
d="M238 -262q-17 -62 -17 -78q0 -13 6 -20t19.5 -11t44.5 -8.5t37 -5.5q8 0 14 -7t6 -14q0 -12 -8 -20q-4 -8 -66 -8q-30 0 -85 2t-62 2q-22 0 -74 -2t-78 -2h-49q-9 0 -14.5 8t-5.5 16q0 13 8 21q18 12 37 12h29q26 0 50 26t48 101l311 1041q-4 -2 -37.5 -20t-57 -30
t-32.5 -12l-4 4q-8 0 -8 8q0 21 70 65t94 50l61 205q14 57 82 57q16 0 51 -8.5t35 -19.5q0 -20 -24 -96t-29 -93q61 12 119 12q136 0 209 -72t73 -206q0 -73 -20 -168q-23 -85 -71 -171.5t-117 -158.5t-153 -114.5t-175 -42.5q-79 0 -131 53zM807 762q-14 52 -52 77t-87 25
q-37 0 -99 -20l-200 -664q-9 -45 -9 -57q0 -40 24.5 -67t61.5 -27q69 0 152 79.5t143 235.5q33 89 51.5 179.5t18.5 168.5q0 49 -4 70z" />
    <glyph glyph-name="q" unicode="q" horiz-adv-x="952" 
d="M668 684q20 55 20 111q0 77 -70 77q-73 0 -147 -70t-135.5 -179t-98 -220.5t-36.5 -181.5q0 -42 16.5 -74t48.5 -32q48 0 109.5 63t121 158t106 191t65.5 157zM877 852l-336 -1114q-17 -43 -17 -78q0 -20 11 -24.5t44 -8t56 -12.5q12 -6 12 -21q0 -16 -8 -24
q-4 -4 -66 -4q-38 0 -106 2t-70 2q-14 0 -64 -2t-71 -2q-37 0 -45 4q-8 8 -8 20q0 17 16 25q49 9 75 13.5t42 27t39 94.5l172 586q-28 -42 -62.5 -92.5t-69 -94.5t-76 -83t-84 -62.5t-89.5 -23.5q-59 0 -90 36q-53 59 -53 168q0 105 61 283q40 98 103 186t148.5 152.5
t182.5 91.5q43 12 82 12q42 0 97 -16t71 -16q9 0 45 12q8 3 25.5 26t27.5 23q3 0 7 -2t6 -2q8 0 8 -21q0 -10 -8 -33t-8 -28z" />
    <glyph glyph-name="r" unicode="r" horiz-adv-x="739" 
d="M184 553q0 -2 22.5 80t22.5 121q0 32 -12 32q-6 0 -24 -12q-24 -21 -70.5 -106.5t-61.5 -85.5l-12 12v4q0 34 42.5 107.5t103 133.5t120.5 66h9q30 0 45.5 -20.5t15.5 -53.5q0 -48 -16.5 -120.5t-46 -171t-31.5 -105.5q23 51 55.5 123.5t65.5 136t73 119.5t80 80
q28 16 53 16q34 0 50 -29.5t16 -72.5q0 -45 -4 -62q-18 -51 -37.5 -82t-52.5 -36q-3 0 -6.5 -1.5t-5.5 -2.5q-40 0 -54 36v5q0 4 2 28t2 37q0 25 -12 25h-4q-45 -12 -193 -357q-30 -83 -53 -149.5t-51.5 -145t-34.5 -86.5q-6 -11 -28 -17.5t-46 -6.5q-39 0 -57 12
q-4 0 -8 7.5t-4 17.5q0 17 20 77z" />
    <glyph glyph-name="s" unicode="s" horiz-adv-x="760" 
d="M41 102q1 10 4 62.5t12.5 87.5t28.5 35q27 0 38.5 -21t27.5 -65q25 -85 70.5 -130.5t92.5 -45.5q48 0 79.5 37t31.5 98v33q-6 52 -34 96.5t-88 126t-79 125.5q-20 53 -20 102q0 57 24.5 111t69.5 90q38 33 94.5 47t118.5 14q47 0 95 -9.5t77 -25t29 -30.5
q-2 -25 -45 -156q-6 -13 -14.5 -25t-18.5 -12q-15 0 -27 20t-25.5 53t-17.5 38q-22 50 -57 76t-70 26q-38 0 -66 -32.5t-28 -82.5q0 -16 8 -40q14 -49 37.5 -87t71 -102t74.5 -109.5t38 -99.5q9 -29 9 -57q0 -78 -46.5 -146.5t-121.5 -103.5q-56 -25 -144 -25
q-113 0 -188 45q-26 15 -33.5 25t-7.5 29v28z" />
    <glyph glyph-name="t" unicode="t" horiz-adv-x="625" 
d="M238 823q-5 0 -34 -2t-44 -2q-58 0 -58 25l4 8q0 29 17 33q12 4 49 4q15 0 47 -2t43 -2l74 233q9 33 22 43t39 10h62q2 0 6 -2t6 -2q37 0 37 -20q0 -12 -4 -17l-82 -245q15 0 47 2t47 2q49 0 49 -29v-8q0 -20 -16 -25q-34 -8 -57 -8q-15 0 -45 2t-41 2l-164 -528
q-8 -24 -20.5 -71t-12.5 -81q0 -28 16 -28q15 0 33 12q19 17 44 51t50.5 74t40 60t25.5 20q8 0 8 -4q0 -1 2 -6t2 -7q0 -35 -47 -105t-112 -136.5t-107 -81.5q-25 -12 -49 -12q-31 0 -54.5 32.5t-23.5 73.5q0 32 7 69.5t17.5 75t28.5 97.5z" />
    <glyph glyph-name="u" unicode="u" horiz-adv-x="932" 
d="M877 844l-160 -504q0 2 -26.5 -80.5t-26.5 -120.5q0 -28 16 -28q12 0 16 4q19 10 45.5 45t55.5 81.5t47 72.5t28 26h9q0 -2 2 -7t2 -9q0 -33 -56.5 -117t-132 -151.5t-131.5 -67.5q-69 0 -69 98q0 40 14 99.5t34.5 122t24.5 77.5q-102 -152 -222 -274.5t-220 -122.5
q-25 0 -49.5 12.5t-24.5 40.5q0 56 26.5 151.5t73 225.5t74 214.5t27.5 125.5q0 16 -16 16q-17 0 -29 -12q-27 -20 -48 -45.5t-49.5 -68t-41.5 -58.5q-6 -12 -17 -12q-8 0 -8 24q0 41 58.5 118t105.5 116q91 69 156 69q26 0 49 -16q24 -12 24 -58q0 -26 -8.5 -56t-21 -62
t-19.5 -49q-16 -44 -63.5 -164t-78 -213t-30.5 -144q0 -32 29 -32q32 0 103 78t142.5 179t94.5 148q58 117 114 287q6 23 21 61q5 17 23 21t51 4h65q17 0 17 -25v-20z" />
    <glyph glyph-name="v" unicode="v" horiz-adv-x="838" 
d="M217 778q-31 -20 -53 -47t-45.5 -64.5t-44.5 -64.5q0 -6 -9.5 -13t-15.5 -7q-8 0 -8 12q0 2 2 6t2 6q7 41 43 96t81.5 101.5t84.5 73.5q58 28 102 28q24 0 44.5 -10t29.5 -31q4 -12 4 -41q0 -52 -27.5 -131t-81.5 -212t-81 -216t-27 -137q0 -1 2 -8t2 -13q0 -45 49 -45
q7 0 62 13q97 44 175.5 159t131.5 246q41 100 41 139q0 44 -25 87q-32 56 -32 114q0 33 20 59.5t53 26.5q43 0 60.5 -38t17.5 -85q0 -87 -25 -173t-64.5 -166t-94.5 -169q-201 -299 -385 -299q-39 0 -70.5 21t-48 56t-16.5 75q0 73 30 175t73.5 214.5t80.5 208.5q8 24 8 33
q0 12 -5.5 22.5t-14.5 10.5q-12 0 -25 -13z" />
    <glyph glyph-name="w" unicode="w" horiz-adv-x="1223" 
d="M565 360q-45 -87 -96 -167t-122 -146.5t-142 -66.5q-34 0 -62 16q-69 38 -69 139q0 28 8 70q23 122 57 218t115 302q8 16 8 37q0 10 -6.5 19.5t-17.5 9.5q-30 0 -95 -86q-8 -14 -23.5 -42t-33 -52t-29.5 -29h-4q-8 0 -8 20v12q15 39 47 89.5t73 95.5t90.5 75.5t96.5 30.5
q29 0 41 -4q41 -15 41 -82v-33q-11 -51 -39 -126.5t-70 -186.5t-55 -154q-45 -112 -45 -176q0 -25 10.5 -41t30.5 -16q9 0 41 8q155 71 291 467l98 295q15 33 62 33h45q57 0 57 -29q0 -2 -2 -6t-2 -6l-156 -516q-32 -116 -32 -172q0 -50 24 -74q2 0 15 -6t18 -6
q64 0 172 143q58 86 109 201t51 205q0 45 -8 61q-3 12 -15.5 41.5t-19 49.5t-6.5 40q0 33 24.5 61.5t57.5 28.5q37 0 53 -34t16 -85q0 -12 -2 -35t-2 -30q-16 -99 -60.5 -219.5t-106.5 -227.5t-132 -180q-110 -110 -209 -110q-35 0 -64.5 15.5t-41.5 45.5q-17 33 -17 86
q0 51 9 95t32 134z" />
    <glyph glyph-name="x" unicode="x" horiz-adv-x="1010" 
d="M471 414q-11 77 -21.5 137.5t-26 119t-34.5 95.5q-12 29 -45 29q-16 0 -25 -4q-32 -16 -45.5 -57t-22 -94.5t-13.5 -53.5q-17 0 -17 45q0 57 27 131t67 106q44 37 95 37q44 0 69 -20q28 -22 46 -60t27.5 -75t19 -91t14.5 -86q25 43 77 128t107 144.5t107 59.5q20 0 36 -8
q41 -20 41 -90q0 -56 -33.5 -108t-76.5 -52q-49 0 -49 49q0 9 2 29t2 29q0 24 -13 24q-15 0 -52 -48.5t-75.5 -108.5t-60.5 -97q11 -61 27 -150t30 -169q18 -94 54 -94q28 0 36.5 30.5t25 118.5t32.5 88q16 -5 16 -53q0 -42 -15 -102.5t-42.5 -114t-61.5 -74.5
q-33 -20 -61 -20q-40 0 -67.5 40.5t-46 106.5t-27 119t-15.5 102q-82 -142 -171 -257t-177 -115q-25 0 -57 16q-41 28 -41 90t33 117t77 55q21 0 37 -8q29 -17 29 -49q0 -20 -14.5 -56t-14.5 -47q0 -10 13 -16q0 -4 12 -4q32 0 85 67t103 148t74 121z" />
    <glyph glyph-name="y" unicode="y" horiz-adv-x="1014" 
d="M569 74q66 98 124.5 188.5t104.5 188t46 163.5q0 38 -16.5 105t-16.5 96q0 17 8 49q9 22 25 33.5t33 11.5q28 0 52.5 -30t24.5 -72q0 -186 -221 -553q-68 -117 -139 -228t-151 -215t-152 -167q-105 -95 -189 -95q-61 0 -90 62q-8 16 -8 53q0 42 22.5 76.5t55.5 34.5
q12 0 37 -17q16 -8 27.5 -38t20.5 -50.5t30 -21.5h4q37 0 72 35.5t61.5 82.5t38.5 82q37 90 57.5 281.5t20.5 382.5q0 152 -9 205q-3 30 -14.5 52t-30.5 22q-14 0 -37 -21q-12 -14 -52 -103t-54 -89q-12 0 -12 20q0 36 38.5 110.5t92 133.5t98.5 59q62 0 90.5 -52.5
t36.5 -127.5q8 -132 8 -201q0 -187 -37 -446z" />
    <glyph glyph-name="z" unicode="z" horiz-adv-x="989" 
d="M172 139q200 238 279 320q63 71 132.5 136.5t174.5 158.5q-115 -37 -180 -37q-64 0 -185 37h-41q-94 0 -94 -103q0 -2 2 -9t2 -11q0 -2 4 -21t4 -28q0 -11 -12 -17q-1 -1 -3.5 -2.5t-4.5 -1.5q-14 0 -25 33q0 7 -2 27t-2 30q0 62 26 122.5t73.5 98t109.5 37.5h8
q23 0 56.5 -14.5t84.5 -41t89.5 -42.5t68.5 -16q38 0 54 20q7 8 20.5 33.5t28.5 40.5q3 1 25 10.5t32 9.5q7 0 25 -8q12 -6 12 -24q0 -25 -31 -55.5t-66.5 -55.5t-62.5 -45q-33 -33 -76 -81.5t-63 -70.5q-44 -48 -71 -76.5t-54.5 -57.5t-71.5 -75q-125 -117 -229 -221
q23 0 44.5 6t58 20.5t58 21t44.5 6.5h32q20 -5 56.5 -26t62 -32.5t49.5 -11.5q44 0 66 45q8 24 8 57q0 20 -4 60t-4 51q0 2 1.5 6t2.5 6q4 4 12 4q15 0 21 -12q16 -49 16 -119q0 -99 -71 -172.5t-166 -73.5q-37 0 -54 5q-23 5 -83 44.5t-89.5 56.5t-56.5 17q-20 0 -29 -8
q-9 -11 -28 -33.5t-40.5 -39.5t-41.5 -17q-25 0 -37 25q-8 16 -8 24q0 33 32 57q14 9 30 14.5t42.5 10.5t38.5 8z" />
    <glyph glyph-name="braceleft" unicode="{" horiz-adv-x="911" 
d="M852 1450v-49q-82 -3 -130.5 -21.5t-71.5 -52t-29.5 -82t-6.5 -127.5q0 -6 2 -18t2 -19v-82q0 -122 -16 -192.5t-75 -120t-183 -76.5q96 -22 151 -55.5t81 -79t34 -104.5t8 -154v-82q0 -7 -2 -26t-2 -27q0 -74 6.5 -119.5t30 -77.5t72 -49t129.5 -20v-49
q-103 2 -172.5 15.5t-114 49t-65.5 99t-21 167.5v205q0 106 -24.5 161.5t-80 80t-161.5 37.5v57q83 11 131.5 26t78.5 44t43 79.5t13 129.5v200q0 106 21.5 170t65.5 98.5t113.5 48t172.5 15.5z" />
    <glyph glyph-name="bar" unicode="|" horiz-adv-x="645" 
d="M471 1499h123v-1962h-123v1962z" />
    <glyph glyph-name="braceright" unicode="}" horiz-adv-x="911" 
d="M213 1450q106 -2 173.5 -15.5t112 -49t66 -100.5t21.5 -167v-200q0 -79 14 -130.5t43.5 -79.5t78.5 -42.5t134 -26.5v-57q-110 -13 -165.5 -37.5t-80 -80t-24.5 -161.5v-205q0 -135 -37 -206t-117 -97t-219 -28v49q113 4 162.5 34.5t62.5 85t13 162.5v37q0 22 -2.5 46.5
t-2.5 35.5q0 124 16.5 194.5t76 120t186.5 78.5q-100 23 -155.5 56.5t-81.5 82.5t-34 110.5t-8 156.5q0 7 2.5 28t2.5 37v37q0 108 -13 163t-62.5 85.5t-162.5 34.5v49z" />
    <glyph glyph-name="asciitilde" unicode="~" horiz-adv-x="973" 
d="M922 1266q-43 -176 -168 -176q-41 0 -124.5 24.5t-117.5 24.5q-66 0 -82 -66h-45q18 93 57.5 128.5t98.5 35.5q24 0 54.5 -6t62 -14.5t66 -16.5t54.5 -8q76 0 99 74h45z" />
    <glyph glyph-name="bullet" horiz-adv-x="489" 
d="M442 426q0 -29 -15.5 -55t-42 -41t-52.5 -15q-46 0 -78.5 32.5t-32.5 78.5q0 43 32 77t79 34q27 0 52.5 -15.5t41.5 -41.5t16 -54z" />
    <glyph glyph-name="nonbreakingspace" unicode="&#xa0;" 
 />
    <glyph glyph-name="exclamdown" unicode="&#xa1;" horiz-adv-x="1145" 
d="M180 -12q-32 -8 -57 -8q-49 0 -74 24q-24 24 -24 70q0 37 12 49q9 28 35.5 49t54.5 21q16 0 25 -5q24 -8 24 -61v-4q0 -21 8 -29q4 -4 17 -4q37 0 82 70l69 119l-12 774q0 54 -13 83t-48 40l-22.5 2.5t-22.5 6t-9 15.5v8q9 29 58 29q14 0 35 -2t22 -2q66 -8 102 -8
q26 0 77 4t75 4h24q21 0 21 -12v-9q-4 -15 -16.5 -21.5t-25 -9t-36.5 -5.5q-37 -26 -37 -78q0 -3 2 -14t2 -15l-4 -426v-8q0 -21 13 -21q10 0 24 21l225 409q37 59 37 91q0 17 -16.5 26.5t-52.5 18.5q-4 4 -8.5 7t-4.5 9q0 5 13 21q27 20 77 20l115 -12q7 0 44 4t54 4
q23 0 38.5 -5.5t15.5 -15.5q0 -8 -8 -16q-8 -13 -60.5 -30.5t-92.5 -38t-60 -58.5l-500 -868q-86 -165 -197 -213zM709 1343q-78 0 -127.5 51t-49.5 126q0 15 9 53h73q-4 -8 -4 -25q0 -39 39.5 -62.5t87.5 -23.5q57 0 118 29t75 82h69q-13 -57 -59.5 -111t-108.5 -86.5
t-122 -32.5z" />
    <glyph glyph-name="cent" unicode="&#xa2;" horiz-adv-x="1010" 
d="M569 74q67 99 123 189.5t102 186.5t50 164v9q0 37 -16.5 100t-16.5 92q0 17 8 49q9 22 25 33.5t33 11.5q29 0 53 -28t24 -70v-4q0 -111 -61 -249t-156 -304q-32 -53 -103 -164.5t-120 -182t-107.5 -142t-115.5 -121.5q-34 -34 -87.5 -64.5t-97.5 -30.5q-65 0 -94 62
q-8 32 -8 53q0 42 22.5 76.5t55.5 34.5q12 0 37 -17l82 -110q37 0 72 36t62.5 82.5t41.5 81.5q35 92 54.5 282.5t19.5 381.5q0 152 -9 205q-3 30 -14.5 52t-30.5 22q-14 0 -37 -21q-11 -12 -34 -61.5t-40 -87.5t-24 -39l-8 -4q-8 0 -8 20q0 32 34 105.5t83.5 132.5t95.5 65
h12q109 0 127 -180q8 -66 8 -201q0 -187 -37 -446zM668 995q-74 0 -123 51.5t-49 124.5q0 16 8 58h69q0 -4 -2 -14t-2 -11q0 -39 41 -62.5t90 -23.5q58 0 118 29t71 82h74q-25 -90 -114.5 -162t-180.5 -72z" />
    <glyph glyph-name="sterling" unicode="&#xa3;" horiz-adv-x="1182" 
d="M242 709h893v-82h-893v82zM688 1106q32 0 55 -23t23 -55t-23 -55t-55 -23q-34 0 -56 23t-22 55t22 55t56 23zM684 385q34 0 58 -23t24 -55t-24 -55t-58 -23q-31 0 -52.5 23t-21.5 55t21.5 55t52.5 23z" />
    <glyph glyph-name="currency" unicode="&#xa4;" horiz-adv-x="1202" 
d="M82 201l180 180q-54 76 -80 142t-26 149q0 132 98 291l-176 180l57 57l180 -180q61 49 136.5 75.5t158.5 26.5q130 0 291 -102l184 180l54 -57l-181 -185q50 -81 74.5 -147.5t24.5 -146.5q0 -126 -103 -279l185 -184l-58 -58l-180 181q-53 -34 -97.5 -55.5t-94 -34.5
t-103.5 -13q-136 0 -287 103l-180 -181zM946 672q0 69 -27 131.5t-72 108.5t-107.5 73t-129.5 27q-93 0 -170.5 -46.5t-123.5 -125t-46 -168.5q0 -91 46.5 -168t125 -122.5t168.5 -45.5q88 0 166 45.5t124 122.5t46 168z" />
    <glyph glyph-name="yen" unicode="&#xa5;" horiz-adv-x="489" 
d="M442 426q0 -29 -15.5 -55t-42 -41t-52.5 -15q-46 0 -78.5 32.5t-32.5 78.5q0 43 32 77t79 34q27 0 52.5 -15.5t41.5 -41.5t16 -54z" />
    <glyph glyph-name="brokenbar" unicode="&#xa6;" horiz-adv-x="584" 
d="M430 1307h107v-656h-107v656zM430 299h107v-627h-107v627z" />
    <glyph glyph-name="section" unicode="&#xa7;" horiz-adv-x="952" 
d="M721 172q56 -42 91.5 -102t35.5 -127q0 -92 -48 -165.5t-126 -115t-170 -47.5q-200 0 -307 106q-29 29 -29 54t30 51.5t56 26.5q14 0 55.5 -47.5t86 -80t104.5 -32.5q86 0 143 60t57 149q0 82 -66 136.5t-202 134t-208.5 150t-80.5 173.5q0 95 48 178t137 117
q-99 85 -111 204q0 93 42.5 164t117.5 109.5t168 38.5q138 0 229 -70q37 -35 37 -57q0 -23 -26.5 -48.5t-51.5 -25.5q-12 0 -30.5 18t-46.5 47t-60 47.5t-72 18.5q-74 0 -125 -52t-51 -124q0 -82 61.5 -132.5t204 -132t213 -153t70.5 -184.5q0 -90 -48 -166.5t-128 -120.5z
M377 754q-115 -67 -115 -185q0 -77 66 -131.5t176 -118.5q51 -29 164 -106q51 31 78.5 81.5t27.5 111.5q0 54 -42 104t-105.5 93t-141 86.5t-108.5 64.5z" />
    <glyph glyph-name="dieresis" unicode="&#xa8;" horiz-adv-x="1108" 
d="M352 193q-1 -7 -8 -29t-9.5 -35.5t-2.5 -22.5q0 -34 28 -40q30 -13 86 -13q68 0 143 17.5t111 44.5q42 33 66 76.5t48 106t38 71.5q8 4 16 4q10 0 15.5 -8t5.5 -21q0 -4 -2 -14t-2 -15l-78 -266q-4 -23 -10.5 -34.5t-26.5 -14.5h-49q-25 0 -73 2t-70 2h-103
q-71 0 -215 -4t-215 -4q-13 0 -21 6.5t-8 13.5q0 12 12 23t33 14q30 6 47 16t27 27t17.5 38t15.5 46l246 877q12 36 12 61q0 46 -53 58q-10 2 -17.5 4t-15 5.5t-8.5 10.5v4q0 24 16 29l14 2t23 2q25 0 79 -4t60 -4q15 0 44 -2t42 -2q61 0 182 4t183 4h33q36 0 36 -25
q0 -16 -4 -28l-69 -242q-6 -18 -17.5 -27.5t-19.5 -9.5q-21 0 -21 21q0 17 4.5 55.5t4.5 66.5q0 68 -25 103q-26 37 -139 37q-47 0 -90 -9q-27 -4 -40 -23t-18.5 -45t-11.5 -54l-106 -365q15 0 51 -2t55 -2q105 0 152 37q30 23 56 78.5t34 60.5h12q20 0 20 -16q0 -9 -5 -25
t-7 -24q-46 -114 -74 -250q-2 -17 -5.5 -50.5t-12 -57t-27.5 -23.5q-14 0 -21 13t-7 32q0 6 2 17t2 15v50q0 42 -8 62.5t-27 28t-55 7.5q-15 0 -64 -2t-84 -2zM803 1425q0 47 32 79t78 32q50 0 84.5 -32t34.5 -79q0 -49 -34 -81.5t-85 -32.5q-31 0 -55.5 15t-39.5 40.5
t-15 58.5zM516 1425q0 47 32 79t79 32q49 0 83.5 -32t34.5 -79q0 -49 -34 -81.5t-84 -32.5q-32 0 -56.5 15t-39.5 40.5t-15 58.5z" />
    <glyph glyph-name="copyright" unicode="&#xa9;" horiz-adv-x="1509" 
d="M1061 1028v-229h-29q-24 81 -83 130.5t-142 49.5q-82 0 -140 -44.5t-86 -119t-28 -156.5q0 -138 63.5 -230.5t194.5 -92.5q152 0 266 168v-70q-53 -70 -127 -108.5t-159 -38.5q-159 0 -264 99.5t-105 256.5q0 106 47 194t131.5 137.5t190.5 49.5q47 0 112.5 -24.5
t87.5 -24.5q15 0 26 17.5t11 31.5zM774 -25q-138 0 -262 53.5t-218 148t-147 217.5t-53 261q0 139 53.5 263t147.5 218t217.5 146.5t261.5 52.5q139 0 263 -53t217.5 -146.5t146.5 -217.5t53 -263q0 -138 -52.5 -261t-146 -217t-218 -148t-263.5 -54zM774 37q123 0 238 49
t200 134t133 196.5t48 238.5t-47.5 238.5t-134.5 198.5t-198.5 134.5t-238.5 47.5t-238 -47.5t-196.5 -133t-134.5 -200.5t-49 -238t49 -237.5t133 -198.5t198.5 -133t237.5 -49z" />
    <glyph glyph-name="ordfeminine" unicode="&#xaa;" horiz-adv-x="1104" 
d="M315 639q-45 -169 -45 -279q0 -148 66 -237q62 -94 168 -94q104 0 176 86q18 24 32 55t38 95.5t39.5 97.5t29.5 38q2 0 7 2.5t10 2.5q12 0 20 -13t8 -28v-17l-53 -233q-14 -58 -45 -78q-107 -59 -254 -66h-20q-132 0 -222.5 61t-135 164t-44.5 226q0 115 37 225
q41 126 123 237t190.5 193t239.5 129t262 47q62 0 86.5 -10t24.5 -43q0 -17 -9 -53l-57 -225q-17 -45 -41 -45q-8 0 -24 8q-25 18 -25 61q0 18 6 54t6 44q0 5 2 32t2 42q0 74 -41 74h-16q-92 0 -204 -69.5t-177 -147.5q-87 -115 -143 -283q10 0 29 -2t28 -2q42 0 109 4t80 4
h16q29 -7 37 -24v-8q0 -10 -4 -18t-12 -14.5t-21 -8.5q-6 0 -18.5 -2.5t-18.5 -2.5q-27 0 -110.5 10.5t-131.5 10.5z" />
    <glyph glyph-name="guillemotleft" unicode="&#xab;" horiz-adv-x="874" 
d="M827 172l-41 -33l-274 283v16l274 279l41 -37l-172 -250zM532 172l-36 -33l-279 283v16l279 279l36 -37l-172 -250z" />
    <glyph glyph-name="logicalnot" unicode="&#xac;" horiz-adv-x="1047" 
d="M803 0v442h-660v82h844v-524h-184z" />
    <glyph glyph-name="minus" unicode="&#xad;" horiz-adv-x="526" 
d="M82 516h393l-41 -143h-389z" />
    <glyph glyph-name="registered" unicode="&#xae;" horiz-adv-x="1530" 
d="M1024 299l-193 340h-147v-229q0 -42 14 -60t52 -18h32v-33h-303v33q54 0 74 14.5t20 63.5v491q0 41 -12 59.5t-53 18.5h-33v33h311q120 0 205.5 -43.5t85.5 -153.5q0 -68 -33.5 -108t-101.5 -68l148 -254q34 -53 94 -53v-33h-160zM684 672h115q81 0 120 31.5t39 111.5
q0 76 -43 116t-116 40h-115v-299zM795 -25q-138 0 -262 53t-218.5 148t-147 218.5t-52.5 260.5q0 138 53 262.5t147 218.5t218 146.5t262 52.5q139 0 261.5 -52.5t216 -147t145.5 -218.5t52 -262q0 -137 -51.5 -260t-145.5 -218t-216.5 -148.5t-261.5 -53.5zM795 37
q166 0 307.5 83t224 225.5t82.5 309.5t-82 309.5t-224 226t-308 83.5q-127 0 -238.5 -47.5t-197 -133t-134.5 -200.5t-49 -238t49 -237.5t133 -198.5t199 -133t238 -49z" />
    <glyph glyph-name="macron" unicode="&#xaf;" horiz-adv-x="797" 
d="M332 168q-3 -20 -8 -38.5t-5 -27.5q0 -21 11 -26.5t41 -9.5t47 -13q12 -12 12 -28q0 -17 -8 -25q-16 -8 -57 -8q-34 0 -93 4t-63 4q-7 0 -60 -2t-83 -2q-46 0 -54 4q-8 8 -8 16t7 20.5t14 16.5q18 10 46.5 14t44 22.5t36.5 90.5l249 877q13 40 13 65q0 21 -10 28t-33 11
t-43 10q-25 10 -25 29l2 6t2.5 6t3.5 6t4 7q18 8 54 8q23 0 67 -4t51 -4q3 0 64 2t96 2q74 0 78 -4q8 -8 8 -17q0 -10 -9 -21t-19 -16q-13 -6 -45.5 -13t-45.5 -27t-32 -87zM627 1425q0 47 34 79t80 32q50 0 84.5 -32t34.5 -79q0 -49 -34 -81.5t-85 -32.5q-47 0 -80.5 32.5
t-33.5 81.5zM315 1425q0 46 34.5 78.5t80.5 32.5q50 0 84.5 -32t34.5 -79q0 -49 -34 -81.5t-85 -32.5q-47 0 -81 33t-34 81z" />
    <glyph glyph-name="degree" unicode="&#xb0;" horiz-adv-x="682" 
d="M446 1253q48 -4 87 -30t62 -66.5t23 -87.5q0 -77 -56 -130.5t-132 -53.5t-134 56t-58 132q0 83 60.5 131.5t147.5 48.5zM279 1053q9 -56 53 -93.5t98 -37.5q59 0 105.5 44t46.5 103q0 63 -47 103t-109 40q-38 0 -72 -19t-54.5 -52t-20.5 -72v-16z" />
    <glyph glyph-name="plusminus" unicode="&#xb1;" horiz-adv-x="1087" 
d="M135 737h406v377h86v-377h401v-86h-401v-372h-86v372h-406v86zM135 193h893v-82h-893v82z" />
    <glyph glyph-name="twosuperior" unicode="&#xb2;" horiz-adv-x="797" 
d="M332 168q-3 -20 -8 -38.5t-5 -27.5q0 -21 11 -26.5t41 -9.5t47 -13q12 -12 12 -28q0 -17 -8 -25q-16 -8 -57 -8q-34 0 -93 4t-63 4q-7 0 -60 -2t-83 -2q-46 0 -54 4q-8 8 -8 16t7 20.5t14 16.5q18 10 46.5 14t44 22.5t36.5 90.5l249 877q13 40 13 65q0 21 -10 28t-33 11
t-43 10q-25 10 -25 29l2 6t2.5 6t3.5 6t4 7q18 8 54 8q23 0 67 -4t51 -4q3 0 64 2t96 2q74 0 78 -4q8 -8 8 -17q0 -10 -9 -21t-19 -16q-13 -6 -45.5 -13t-45.5 -27t-32 -87zM446 1425q0 46 34.5 78.5t80.5 32.5q50 0 84.5 -32t34.5 -79q0 -49 -34 -81.5t-85 -32.5
q-47 0 -81 33t-34 81z" />
    <glyph glyph-name="threesuperior" unicode="&#xb3;" horiz-adv-x="604" 
d="M262 717q8 40 8 49q0 20 -12 20q-20 0 -53 -34t-53 -64q-66 -106 -78 -106q-5 0 -11 5t-6 11q0 7 8.5 23t8.5 18q42 83 101 151t128 99q32 16 66 16q37 0 57 -20q16 -23 16 -66q0 -27 -6.5 -55t-17.5 -66t-12 -43q-13 -39 -57.5 -170t-67 -206.5t-27.5 -110.5l-4 -8
q0 -13 4 -21t8 -8q13 0 32 20t39.5 46.5t38.5 51.5t21 30q0 10 19 39.5t34 29.5h9q4 0 4 -16q0 -11 -4 -26l-4 -15q-19 -42 -73 -116.5t-118.5 -130.5t-120.5 -56q-19 0 -45 12q-20 20 -20 70q0 75 36 200t91 276t61 171zM545 1184q-3 -33 -26.5 -55.5t-59.5 -22.5
q-32 0 -57 21t-25 49v8q3 34 29.5 58t60.5 24q31 0 54.5 -22.5t23.5 -51.5v-8z" />
    <glyph glyph-name="acute" unicode="&#xb4;" horiz-adv-x="719" 
d="M520 1298h131l29 -16q0 -14 -21 -33l-225 -307l-45 21z" />
    <glyph glyph-name="mu" unicode="&#xb5;" horiz-adv-x="1223" 
d="M1020 958v-733q0 -60 14.5 -99.5t59.5 -39.5q31 0 69 25v-37l-188 -94q-4 -5 -17 -5q-53 0 -72 48.5t-30 123.5q-58 -58 -100 -94t-94.5 -61t-112.5 -25q-94 0 -148.5 46t-85.5 139q0 -68 6.5 -131.5t20 -156t18.5 -143.5q0 -51 -20.5 -86.5t-69.5 -35.5q-43 0 -66.5 33
t-23.5 77q0 49 17 119q17 98 31.5 233.5t20 260.5t5.5 247v389h180v-602q0 -118 36 -202t136 -84q72 0 127 43t111 116v729h176z" />
    <glyph glyph-name="paragraph" unicode="&#xb6;" horiz-adv-x="973" 
d="M487 -205v811q-109 0 -198.5 40t-142 119t-52.5 189q0 115 53 195.5t143.5 119t205.5 38.5h422v-54h-91v-1458h-69v1458h-205v-1458h-66z" />
    <glyph glyph-name="cedilla" unicode="&#xb8;" horiz-adv-x="817" 
d="M258 516q-20 -50 -20 -65q0 -17 24 -17h21q129 28 215 99t100 188q0 9 2 24t2 17q0 50 -18.5 78t-46.5 28q-39 0 -91 -41.5t-102 -120.5t-86 -190zM705 557q-49 -62 -127.5 -97t-167.5 -52.5t-185 -26.5q-12 -55 -12 -111q0 -86 37.5 -133t97.5 -47t129 50t117 139
q5 6 17.5 35t27.5 34h4q16 0 16 -12v-8q0 -8 -4 -23t-9 -26t-11 -25q-74 -154 -201 -234q-78 -53 -160 -53q-70 0 -125.5 42t-87.5 117.5t-32 164.5q0 18 4.5 44t7.5 50q19 119 90.5 242t180.5 202.5t233 79.5q49 0 73 -4q69 -11 104.5 -66.5t35.5 -125.5q0 -88 -53 -156z
M737 1180q0 -32 -19.5 -53t-53.5 -21t-60 23.5t-26 54.5t23.5 52t57.5 21q32 0 55 -21.5t23 -55.5zM496 1180q0 -32 -22 -53t-56 -21t-60 23.5t-26 54.5t24 52t58 21q19 0 39 -10.5t31.5 -29t11.5 -37.5z" />
    <glyph glyph-name="onesuperior" unicode="&#xb9;" horiz-adv-x="1395" 
d="M254 221q-6 -26 -13.5 -55t-7.5 -43q0 -53 82 -70q19 0 34.5 -7.5t15.5 -25.5v-4q-6 -24 -41 -24q-15 0 -40 4t-26 4h-25q-25 0 -76 -2t-75 -2h-45q-15 0 -22 8.5t-7 20.5q0 18 12 24q24 12 62 16t58.5 24.5t39.5 90.5l250 877q8 48 8 57q0 28 -13 37.5t-41 13.5t-40 9.5
t-12 25.5v4q0 29 65 29q23 0 65 -4t46 -4q11 0 30 2t23 2q42 0 57 -45l283 -856l193 688q16 82 16 98q0 26 -17.5 42.5t-64.5 27.5q-13 0 -31 8.5t-18 19.5q0 5 8 21q8 8 62 8q27 0 70 -2t44 -2q5 0 49 2t70 2q13 0 29 -2l16 -2q12 -6 12 -25q0 -7 -5 -15.5t-11 -8.5
q-35 -9 -63 -16t-43 -17t-25.5 -30t-24.5 -68l-290 -1032q-7 -41 -25 -41q-17 0 -33 49l-340 1024z" />
    <glyph glyph-name="ordmasculine" unicode="&#xba;" horiz-adv-x="780" 
d="M655 635q-54 0 -77 70q-6 13 -23.5 56.5t-37.5 67t-54 27.5h-8q-41 0 -71 -37t-44 -82q-41 -113 -41 -241q10 0 28 -2t25 -2q26 0 63 4t52 4q29 0 37 -4q8 0 14 -9t6 -16q0 -30 -28 -37h-33q-19 0 -64 6t-75 6h-21q7 -113 46.5 -206.5t109.5 -137.5q36 -24 69 -24
q44 0 78.5 32t62 75.5t31.5 43.5h5q20 0 20 -28v-17q-15 -66 -64.5 -121t-111.5 -75q-54 -13 -94 -13q-101 0 -178.5 73t-119.5 183.5t-42 219.5q0 6 2 19t2 17q7 114 58.5 213t136 156t190.5 57q67 0 135 -24q53 -14 53 -94v-66q0 -3 -1.5 -6.5t-2.5 -5.5v-25
q0 -57 -33 -57z" />
    <glyph glyph-name="guillemotright" unicode="&#xbb;" horiz-adv-x="817" 
d="M160 684l37 33l278 -283v-16l-278 -279l-37 37l172 250zM455 684l37 33l278 -283v-16l-278 -279l-37 37l172 250z" />
    <glyph glyph-name="onequarter" unicode="&#xbc;" horiz-adv-x="1010" 
d="M270 1040l308 -311l311 311l61 -61l-311 -311l311 -308l-61 -61l-307 311l-312 -311l-61 61l311 312l-311 307z" />
    <glyph glyph-name="onehalf" unicode="&#xbd;" horiz-adv-x="1145" 
d="M778 1020h-82l-94 -320q97 25 189 25q52 0 90 -12q47 -11 92 -38t73.5 -65.5t38.5 -89.5q5 -20 5 -57q0 -56 -20.5 -119.5t-53.5 -114.5q-50 -84 -133.5 -144.5t-177.5 -80.5q-67 -16 -148 -16q-44 0 -127 6t-123 6q-3 0 -50 -4t-73 -4q-78 0 -78 28q1 2 3 5.5t2 7.5
q12 21 48.5 26t60.5 21t42 80l250 864h-16q-29 0 -66.5 -10.5t-60.5 -26.5q-29 -19 -67 -60t-73 -84.5t-56 -66t-34 -22.5v4q-12 0 -12 12q0 5 16 37q117 296 144 315q16 8 24 8q19 0 29 -20q4 -41 82 -41h102l13 41q4 4 4 16q0 24 -39 41t-51 29l-3 3t-2 5q0 8 9 20.5
t20 12.5q33 0 100 -16.5t89 -16.5q14 0 92.5 22.5t107.5 22.5q21 0 21 -12v-8q-6 -17 -42.5 -34.5t-60.5 -23.5q-35 -7 -69 -102h139q44 0 62 6t39 22.5t42 28.5q9 9 17 9q20 0 20 -17v-4q-11 -41 -28.5 -87t-41 -109.5t-36.5 -106.5q-10 -48 -37 -53h-4q-25 0 -25 41
q0 10 2 45t2 53q0 109 -86 123zM590 647l-115 -397q-29 -99 -29 -131q0 -67 66 -78q6 0 16 -2t17 -2q70 0 144 49.5t118 122.5q40 61 65 133.5t25 136.5q0 58 -16 90q-20 50 -65 70t-103 20q-21 0 -63 -5t-60 -7z" />
    <glyph glyph-name="threequarters" unicode="&#xbe;" horiz-adv-x="874" 
d="M528 750q-9 -33 -20 -68t-35 -115t-35 -116q119 90 221 90q74 0 117 -48.5t43 -123.5q0 -42 -12 -78q-22 -74 -74.5 -144.5t-132 -118t-178.5 -53.5h-25q-162 0 -192 172q0 7 -2 19t-2 18q0 66 25.5 154.5t73.5 221t65 190.5q8 32 8 49q0 35 -13 41h-20q-35 0 -66 -21
q-37 -19 -64 -47.5t-71 -78.5t-57 -50v4q-12 0 -12 8q0 5 12 29q9 26 56.5 127t62.5 111q8 8 16 8q7 0 16.5 -5.5t12.5 -15.5q8 -20 164 -20l32 106q13 42 23 97t10 84q0 28 15.5 44.5t29.5 16.5q21 0 21 -12q0 -2 -2 -6t-2 -7q0 -4 -2.5 -12t-2.5 -12q0 -17 8 -48t13 -55
q21 30 49.5 64t36.5 55q5 37 37 37q6 0 13 -6t7 -14q0 -9 -8 -25q-67 -143 -86 -201l-33 -106q156 0 176 20q21 21 37 21q17 0 17 -8q4 0 4 -21q0 -38 -14.5 -124t-14.5 -93q-1 -4 -2.5 -13t-6.5 -16t-15 -8l-5 -4q-9 0 -14.5 14t-15.5 52.5t-20.5 66t-30.5 43.5
q-21 21 -58 21h-16q-38 -20 -62 -90zM336 160q0 -3 -2 -15t-2 -18q0 -42 26 -74.5t64 -32.5q42 0 95 45.5t106 143.5q45 110 45 188q0 49 -9 70q-20 20 -49 20q-41 0 -90 -32.5t-114 -89.5q-21 -59 -34.5 -95t-22.5 -65.5t-13 -44.5z" />
    <glyph glyph-name="questiondown" unicode="&#xbf;" horiz-adv-x="702" 
d="M262 717q8 40 8 49q0 20 -12 20q-20 0 -53 -34t-53 -64q-66 -106 -78 -106q-5 0 -11 5t-6 11q0 7 8.5 23t8.5 18q42 83 101 151t128 99q32 16 66 16q37 0 57 -20q16 -23 16 -66q0 -27 -6.5 -55t-17.5 -66t-12 -43q-13 -39 -57.5 -170t-67 -206.5t-27.5 -110.5l-4 -8
q0 -13 4 -21t8 -8q13 0 32 20t39.5 46.5t38.5 51.5t21 30q0 10 19 39.5t34 29.5h9q4 0 4 -16q0 -11 -4 -26l-4 -15q-19 -42 -73 -116.5t-118.5 -130.5t-120.5 -56q-19 0 -45 12q-20 20 -20 70q0 75 36 200t91 276t61 171zM639 1184q-3 -33 -25.5 -55.5t-56.5 -22.5t-60 21
t-26 49q0 2 1.5 4.5t2.5 3.5q3 35 27.5 58.5t58.5 23.5q31 0 54.5 -22.5t23.5 -51.5v-8zM393 1184q-3 -33 -24.5 -55.5t-57.5 -22.5q-32 0 -59 21t-27 49q0 2 1.5 4.5t2.5 3.5q3 35 27.5 58.5t58.5 23.5q33 0 55.5 -22.5t22.5 -51.5v-8z" />
    <glyph glyph-name="Agrave" unicode="&#xc0;" horiz-adv-x="1104" 
d="M750 434q0 18 -10 23.5t-31 9.5h-238q-37 0 -53 -33l-94 -184q-33 -71 -33 -107q0 -37 25 -51t71 -22.5t59 -16.5q6 -2 11.5 -12t5.5 -16q0 -17 -8 -25q-18 -8 -49 -8q-27 0 -72 4t-51 4h-37q-25 0 -85 -2t-79 -2h-25q-9 0 -14.5 6.5t-5.5 13.5q0 17 20 37q30 19 56 27
t43 23.5t53 76.5l602 1049q6 14 19 23.5t26 9.5q8 0 16.5 -7.5t8.5 -21.5l65 -1065q4 -64 20 -81t46 -23.5t37 -26.5q0 -3 1.5 -6.5t2.5 -5.5q0 -13 -11 -21t-26 -8h-25q-32 0 -100 4t-100 4q-11 0 -53 -4t-62 -4q-33 0 -41 4q-12 12 -12 16q0 11 9.5 24.5t18.5 16.5
q11 4 49.5 13t52 26.5t13.5 63.5v20zM504 520h205q36 0 36 33v8l-20 418l-242 -422q-4 -4 -4 -16q0 -10 7.5 -15.5t17.5 -5.5z" />
    <glyph glyph-name="Agrave" unicode="&#x410;" horiz-adv-x="1104" 
d="M750 434q0 18 -10 23.5t-31 9.5h-238q-37 0 -53 -33l-94 -184q-33 -71 -33 -107q0 -37 25 -51t71 -22.5t59 -16.5q6 -2 11.5 -12t5.5 -16q0 -17 -8 -25q-18 -8 -49 -8q-27 0 -72 4t-51 4h-37q-25 0 -85 -2t-79 -2h-25q-9 0 -14.5 6.5t-5.5 13.5q0 17 20 37q30 19 56 27
t43 23.5t53 76.5l602 1049q6 14 19 23.5t26 9.5q8 0 16.5 -7.5t8.5 -21.5l65 -1065q4 -64 20 -81t46 -23.5t37 -26.5q0 -3 1.5 -6.5t2.5 -5.5q0 -13 -11 -21t-26 -8h-25q-32 0 -100 4t-100 4q-11 0 -53 -4t-62 -4q-33 0 -41 4q-12 12 -12 16q0 11 9.5 24.5t18.5 16.5
q11 4 49.5 13t52 26.5t13.5 63.5v20zM504 520h205q36 0 36 33v8l-20 418l-242 -422q-4 -4 -4 -16q0 -10 7.5 -15.5t17.5 -5.5z" />
    <glyph glyph-name="Aacute" unicode="&#xc1;" horiz-adv-x="1104" 
d="M618 1053l-102 -353h66q88 0 176 -16q99 -30 158.5 -79.5t82.5 -145.5q0 -11 2.5 -32t2.5 -38q0 -96 -47.5 -183t-125.5 -140q-110 -74 -290 -74q-58 0 -156 8q-24 0 -77 2t-79 2h-36q-19 0 -58 -4t-57 -4h-4q-37 0 -37 24q0 9 12 19.5t33 13.5q37 8 52.5 15t22.5 19
t13 38.5t14 54.5l250 877q21 65 21 82q0 29 -66 41q-16 3 -26.5 10t-10.5 14q0 11 14.5 20t34.5 9q32 -2 71.5 -7t68.5 -5q3 0 19 2t26 2q258 0 389 4h41q37 0 37 -25q0 -20 -4 -28l-74 -242q-7 -17 -19.5 -29t-21.5 -12t-16 20v21q0 13 2 51t2 59q0 54 -9 74
q-14 31 -39.5 43t-62.5 15h-74q-37 0 -57 -5q-22 -5 -33.5 -24.5t-17 -43t-11.5 -50.5zM737 184q32 44 55 113.5t23 136.5q0 114 -61 164q-61 45 -164 45q-66 0 -90 -4l-131 -451q-2 -9 -9.5 -38t-7.5 -48q0 -43 41 -49q42 -8 66 -8q82 0 158 36t120 103z" />
    <glyph glyph-name="Aacute" unicode="&#x411;" horiz-adv-x="1104" 
d="M618 1053l-102 -353h66q88 0 176 -16q99 -30 158.5 -79.5t82.5 -145.5q0 -11 2.5 -32t2.5 -38q0 -96 -47.5 -183t-125.5 -140q-110 -74 -290 -74q-58 0 -156 8q-24 0 -77 2t-79 2h-36q-19 0 -58 -4t-57 -4h-4q-37 0 -37 24q0 9 12 19.5t33 13.5q37 8 52.5 15t22.5 19
t13 38.5t14 54.5l250 877q21 65 21 82q0 29 -66 41q-16 3 -26.5 10t-10.5 14q0 11 14.5 20t34.5 9q32 -2 71.5 -7t68.5 -5q3 0 19 2t26 2q258 0 389 4h41q37 0 37 -25q0 -20 -4 -28l-74 -242q-7 -17 -19.5 -29t-21.5 -12t-16 20v21q0 13 2 51t2 59q0 54 -9 74
q-14 31 -39.5 43t-62.5 15h-74q-37 0 -57 -5q-22 -5 -33.5 -24.5t-17 -43t-11.5 -50.5zM737 184q32 44 55 113.5t23 136.5q0 114 -61 164q-61 45 -164 45q-66 0 -90 -4l-131 -451q-2 -9 -9.5 -38t-7.5 -48q0 -43 41 -49q42 -8 66 -8q82 0 158 36t120 103z" />
    <glyph glyph-name="Acircumflex" unicode="&#xc2;" horiz-adv-x="1165" 
d="M618 1053l-102 -353q8 0 23 -2t22 -2q110 0 197 45q46 26 84.5 68t61 95t22.5 104q0 25 -8 57q-14 60 -64.5 87.5t-116.5 27.5q-37 0 -53 -4q-22 -3 -34.5 -24t-19 -46.5t-12.5 -52.5zM700 1225q18 0 60 2t63 2q192 0 262 -94q33 -52 33 -111q0 -66 -33 -127.5
t-86 -101.5q-87 -74 -241 -111q99 -30 158.5 -79.5t82.5 -145.5q0 -11 2.5 -32t2.5 -38q0 -96 -47.5 -183t-125.5 -140q-110 -74 -290 -74q-58 0 -156 8q-24 0 -77 2t-79 2h-36q-19 0 -58 -4t-57 -4h-4q-37 0 -37 24q0 9 12 19.5t33 13.5q37 8 52.5 15t22.5 19t13 38.5
t14 54.5l250 877q21 65 21 82q0 29 -66 41q-16 3 -26.5 10t-10.5 14q0 11 14.5 20t34.5 9q148 -8 222 -8h77zM393 53q42 -8 66 -8q82 0 158 36t120 103q32 44 55 113.5t23 136.5q0 114 -61 164q-61 45 -164 45q-66 0 -90 -4l-131 -451q-2 -9 -9.5 -38t-7.5 -48q0 -43 41 -49
z" />
    <glyph glyph-name="Acircumflex" unicode="&#x412;" horiz-adv-x="1165" 
d="M618 1053l-102 -353q8 0 23 -2t22 -2q110 0 197 45q46 26 84.5 68t61 95t22.5 104q0 25 -8 57q-14 60 -64.5 87.5t-116.5 27.5q-37 0 -53 -4q-22 -3 -34.5 -24t-19 -46.5t-12.5 -52.5zM700 1225q18 0 60 2t63 2q192 0 262 -94q33 -52 33 -111q0 -66 -33 -127.5
t-86 -101.5q-87 -74 -241 -111q99 -30 158.5 -79.5t82.5 -145.5q0 -11 2.5 -32t2.5 -38q0 -96 -47.5 -183t-125.5 -140q-110 -74 -290 -74q-58 0 -156 8q-24 0 -77 2t-79 2h-36q-19 0 -58 -4t-57 -4h-4q-37 0 -37 24q0 9 12 19.5t33 13.5q37 8 52.5 15t22.5 19t13 38.5
t14 54.5l250 877q21 65 21 82q0 29 -66 41q-16 3 -26.5 10t-10.5 14q0 11 14.5 20t34.5 9q148 -8 222 -8h77zM393 53q42 -8 66 -8q82 0 158 36t120 103q32 44 55 113.5t23 136.5q0 114 -61 164q-61 45 -164 45q-66 0 -90 -4l-131 -451q-2 -9 -9.5 -38t-7.5 -48q0 -43 41 -49
z" />
    <glyph glyph-name="Atilde" unicode="&#xc3;" horiz-adv-x="1104" 
d="M365 168q-13 -36 -13 -62q0 -24 11 -30t39.5 -10t43.5 -13q13 -6 13 -28q0 -21 -4 -25q-18 -8 -45 -8q-25 0 -74 6t-57 6h-17q-27 0 -93 -4t-87 -4h-25q-9 0 -14.5 6.5t-5.5 13.5q0 24 20 37q19 10 47.5 14t43.5 23t36 90l250 877q12 36 12 61q0 46 -53 58q-45 13 -45 32
q0 3 6 10t15 11h41q32 0 99 -2t77 -2q258 0 389 4h41q37 0 37 -25q0 -20 -4 -28l-74 -242q-7 -17 -19.5 -29t-21.5 -12t-16 20v21q0 13 2 51t2 59q0 54 -9 74q-14 31 -39.5 43t-62.5 15h-74q-37 0 -57 -5q-22 -6 -33.5 -26t-16.5 -43t-12 -53z" />
    <glyph glyph-name="Atilde" unicode="&#x413;" horiz-adv-x="1104" 
d="M365 168q-13 -36 -13 -62q0 -24 11 -30t39.5 -10t43.5 -13q13 -6 13 -28q0 -21 -4 -25q-18 -8 -45 -8q-25 0 -74 6t-57 6h-17q-27 0 -93 -4t-87 -4h-25q-9 0 -14.5 6.5t-5.5 13.5q0 24 20 37q19 10 47.5 14t43.5 23t36 90l250 877q12 36 12 61q0 46 -53 58q-45 13 -45 32
q0 3 6 10t15 11h41q32 0 99 -2t77 -2q258 0 389 4h41q37 0 37 -25q0 -20 -4 -28l-74 -242q-7 -17 -19.5 -29t-21.5 -12t-16 20v21q0 13 2 51t2 59q0 54 -9 74q-14 31 -39.5 43t-62.5 15h-74q-37 0 -57 -5q-22 -6 -33.5 -26t-16.5 -43t-12 -53z" />
    <glyph glyph-name="Adieresis" unicode="&#xc4;" horiz-adv-x="1415" 
d="M406 45h249q40 0 68.5 20.5t38.5 81.5l266 943q8 32 8 49q0 30 -28 37h-41q-110 0 -193 -9q-28 -6 -55 -35t-39 -63q-28 -96 -65 -220t-76 -235.5t-68 -183.5q-75 -186 -139 -283q-41 -62 -41 -73q0 -29 115 -29zM98 25q5 23 23.5 41.5t59 45.5t57.5 40q31 24 80 100
t88 166q126 282 208 647v16q0 26 -20.5 43.5t-44.5 27.5t-51 24.5t-27 31.5q0 15 17 20t32 5q31 0 68 -4t63 -4q209 0 381 8q34 0 90 -2t86 -2h95q65 0 65 -17q0 -4 -20 -24q-22 -15 -52.5 -16.5t-45 -14t-29.5 -67.5l-263 -930q-1 -9 -3.5 -16t-5.5 -21t-3 -17
q0 -33 17.5 -46.5t43 -21.5t25.5 -13l-74 -258q0 -12 -11.5 -31t-24.5 -19q-6 0 -13 9q-7 7 -17 80t-24 96q-27 42 -66.5 70t-88.5 28h-336q-70 0 -184 -98q-23 -19 -50.5 -57t-55.5 -76t-38 -43q-14 -9 -20 -9q-13 0 -13 21q0 4 2 15t2 14z" />
    <glyph glyph-name="Adieresis" unicode="&#x414;" horiz-adv-x="1415" 
d="M406 45h249q40 0 68.5 20.5t38.5 81.5l266 943q8 32 8 49q0 30 -28 37h-41q-110 0 -193 -9q-28 -6 -55 -35t-39 -63q-28 -96 -65 -220t-76 -235.5t-68 -183.5q-75 -186 -139 -283q-41 -62 -41 -73q0 -29 115 -29zM98 25q5 23 23.5 41.5t59 45.5t57.5 40q31 24 80 100
t88 166q126 282 208 647v16q0 26 -20.5 43.5t-44.5 27.5t-51 24.5t-27 31.5q0 15 17 20t32 5q31 0 68 -4t63 -4q209 0 381 8q34 0 90 -2t86 -2h95q65 0 65 -17q0 -4 -20 -24q-22 -15 -52.5 -16.5t-45 -14t-29.5 -67.5l-263 -930q-1 -9 -3.5 -16t-5.5 -21t-3 -17
q0 -33 17.5 -46.5t43 -21.5t25.5 -13l-74 -258q0 -12 -11.5 -31t-24.5 -19q-6 0 -13 9q-7 7 -17 80t-24 96q-27 42 -66.5 70t-88.5 28h-336q-70 0 -184 -98q-23 -19 -50.5 -57t-55.5 -76t-38 -43q-14 -9 -20 -9q-13 0 -13 21q0 4 2 15t2 14z" />
    <glyph glyph-name="Aring" unicode="&#xc5;" horiz-adv-x="1124" 
d="M373 193q-2 -10 -11.5 -39.5t-9.5 -47.5q0 -34 29 -40q29 -13 86 -13q68 0 143 17.5t111 44.5q36 29 58.5 65t40 79.5t30 73t22.5 36.5q9 4 17 4q20 0 20 -29q0 -4 -2 -14t-2 -15l-78 -266q-3 -10 -7 -22.5t-10.5 -19t-18.5 -7.5h-50q-25 0 -73 2t-70 2h-102
q-73 0 -216 -4t-214 -4q-29 0 -29 20q0 11 12 22.5t33 14.5q30 6 47 16t24.5 23.5t15 36.5t15.5 51l250 877q12 36 12 61q0 46 -53 58q-12 3 -25 6.5t-16 13.5v4q0 23 13 29q3 0 17 2t24 2q25 0 78 -4t61 -4q13 0 42 -2t44 -2q62 0 182 4t182 4h33q37 0 37 -25q0 -16 -4 -28
l-70 -242q-6 -18 -17 -27.5t-20 -9.5q-20 0 -20 21q0 17 4 59t4 63q0 69 -29 103q-21 37 -135 37q-45 0 -90 -9q-27 -4 -39.5 -23t-18.5 -45t-12 -54l-106 -365q16 0 52 -2t54 -2q100 0 152 37q28 21 55.5 78t34.5 61h8q25 0 25 -16q0 -9 -5 -25t-7 -24q-49 -122 -74 -250
q-2 -17 -5.5 -50.5t-12 -57t-27.5 -23.5q-15 0 -22 13t-7 32q0 6 2 17t2 15v50q0 42 -8 62.5t-27 28t-55 7.5q-16 0 -65 -2t-82 -2z" />
    <glyph glyph-name="Aring" unicode="&#x415;" horiz-adv-x="1124" 
d="M373 193q-2 -10 -11.5 -39.5t-9.5 -47.5q0 -34 29 -40q29 -13 86 -13q68 0 143 17.5t111 44.5q36 29 58.5 65t40 79.5t30 73t22.5 36.5q9 4 17 4q20 0 20 -29q0 -4 -2 -14t-2 -15l-78 -266q-3 -10 -7 -22.5t-10.5 -19t-18.5 -7.5h-50q-25 0 -73 2t-70 2h-102
q-73 0 -216 -4t-214 -4q-29 0 -29 20q0 11 12 22.5t33 14.5q30 6 47 16t24.5 23.5t15 36.5t15.5 51l250 877q12 36 12 61q0 46 -53 58q-12 3 -25 6.5t-16 13.5v4q0 23 13 29q3 0 17 2t24 2q25 0 78 -4t61 -4q13 0 42 -2t44 -2q62 0 182 4t182 4h33q37 0 37 -25q0 -16 -4 -28
l-70 -242q-6 -18 -17 -27.5t-20 -9.5q-20 0 -20 21q0 17 4 59t4 63q0 69 -29 103q-21 37 -135 37q-45 0 -90 -9q-27 -4 -39.5 -23t-18.5 -45t-12 -54l-106 -365q16 0 52 -2t54 -2q100 0 152 37q28 21 55.5 78t34.5 61h8q25 0 25 -16q0 -9 -5 -25t-7 -24q-49 -122 -74 -250
q-2 -17 -5.5 -50.5t-12 -57t-27.5 -23.5q-15 0 -22 13t-7 32q0 6 2 17t2 15v50q0 42 -8 62.5t-27 28t-55 7.5q-16 0 -65 -2t-82 -2z" />
    <glyph glyph-name="AE" unicode="&#xc6;" horiz-adv-x="1645" 
d="M799 1200q0 33 98 33q35 0 80 -4t39 -4q-4 0 40 4t74 4q87 0 87 -25q5 0 -5 -8q-7 -14 -23.5 -19t-40 -7t-26.5 -3q-25 -6 -33.5 -25t-19.5 -56l-90 -312l315 291q45 45 45 70q0 16 -15.5 25.5t-37.5 15.5t-24 8l-3 3t-2 5q0 16 17 25q12 8 57 8h189q57 0 69 -4
q4 -4 4 -17q4 0 -4 -16q-7 -11 -17.5 -14.5t-32 -5.5t-28.5 -5q-39 -11 -67.5 -33.5t-79.5 -68.5l-184 -172q-32 -26 -43 -43.5t-11 -38.5q0 -11 9 -61l98 -615l82 -119q-5 -24 -41 -24q-31 0 -96 2t-97 2h-32q-7 0 -39 -2t-47 -2h-25q-12 12 -12 20q0 5 16 21q16 12 47 17
t45.5 18t14.5 59q0 9 -2.5 26t-2.5 27l-77 512l-13 -16l-151 -529q-8 -40 -8 -49q0 -29 13 -36t41 -13t28 -20v-9q-6 -24 -107 -24q-30 0 -69 2t-37 2q3 0 -37 -2t-70 -2q-90 0 -90 20v4q8 24 47.5 30.5t61.5 20.5t38 76l152 529l-8 16l-369 -512q-53 -82 -53 -106
q0 -10 7.5 -15t21 -7.5t26.5 -6t19 -12.5q4 -4 4 -13q0 -7 -5.5 -16t-15.5 -12h-28q-16 0 -45 2t-37 2h-33q-33 0 -98 -2t-99 -2q-28 0 -28 16l4 8q2 8 61 41t90 78l443 615q10 16 20.5 31t15.5 22.5t9 17t4 19.5q0 26 -17 53l-86 172q-16 29 -22.5 40t-14 22t-21.5 23
t-32 17q-5 3 -24.5 5t-28 5.5t-8.5 14.5l-4 4q0 22 20 29q17 4 74 4h188q45 0 49 -8q4 0 6 -5t3 -8q0 -14 -13 -20q-20 -5 -45 -11t-47 -20.5t-22 -42.5q0 -3 16 -45l148 -291l90 312q8 32 8 49q0 27 -21 32q-2 1 -24 3t-35.5 7t-13.5 19h4z" />
    <glyph glyph-name="AE" unicode="&#x416;" horiz-adv-x="1645" 
d="M799 1200q0 33 98 33q35 0 80 -4t39 -4q-4 0 40 4t74 4q87 0 87 -25q5 0 -5 -8q-7 -14 -23.5 -19t-40 -7t-26.5 -3q-25 -6 -33.5 -25t-19.5 -56l-90 -312l315 291q45 45 45 70q0 16 -15.5 25.5t-37.5 15.5t-24 8l-3 3t-2 5q0 16 17 25q12 8 57 8h189q57 0 69 -4
q4 -4 4 -17q4 0 -4 -16q-7 -11 -17.5 -14.5t-32 -5.5t-28.5 -5q-39 -11 -67.5 -33.5t-79.5 -68.5l-184 -172q-32 -26 -43 -43.5t-11 -38.5q0 -11 9 -61l98 -615l82 -119q-5 -24 -41 -24q-31 0 -96 2t-97 2h-32q-7 0 -39 -2t-47 -2h-25q-12 12 -12 20q0 5 16 21q16 12 47 17
t45.5 18t14.5 59q0 9 -2.5 26t-2.5 27l-77 512l-13 -16l-151 -529q-8 -40 -8 -49q0 -29 13 -36t41 -13t28 -20v-9q-6 -24 -107 -24q-30 0 -69 2t-37 2q3 0 -37 -2t-70 -2q-90 0 -90 20v4q8 24 47.5 30.5t61.5 20.5t38 76l152 529l-8 16l-369 -512q-53 -82 -53 -106
q0 -10 7.5 -15t21 -7.5t26.5 -6t19 -12.5q4 -4 4 -13q0 -7 -5.5 -16t-15.5 -12h-28q-16 0 -45 2t-37 2h-33q-33 0 -98 -2t-99 -2q-28 0 -28 16l4 8q2 8 61 41t90 78l443 615q10 16 20.5 31t15.5 22.5t9 17t4 19.5q0 26 -17 53l-86 172q-16 29 -22.5 40t-14 22t-21.5 23
t-32 17q-5 3 -24.5 5t-28 5.5t-8.5 14.5l-4 4q0 22 20 29q17 4 74 4h188q45 0 49 -8q4 0 6 -5t3 -8q0 -14 -13 -20q-20 -5 -45 -11t-47 -20.5t-22 -42.5q0 -3 16 -45l148 -291l90 312q8 32 8 49q0 27 -21 32q-2 1 -24 3t-35.5 7t-13.5 19h4z" />
    <glyph glyph-name="Ccedilla" unicode="&#xc7;" horiz-adv-x="973" 
d="M569 684q187 -60 230 -188q16 -44 16 -103q0 -92 -41 -168q-36 -83 -117 -148t-174 -85q-70 -21 -188 -21q-80 0 -153.5 20t-96.5 66q-4 4 -4 21q0 34 18 115t19 90q5 22 10.5 50t16.5 50.5t30 22.5q20 0 26.5 -24t6.5 -50q0 -14 -2 -48t-2 -51q0 -192 106 -192
q99 0 176 46t119 118q66 123 66 221q0 69 -29 115q-27 56 -53.5 81t-69.5 25q-21 0 -69 -8q-41 0 -41 33q0 15 8 28t20 13q2 0 9 -2t8 -2q12 -4 41 -4q73 0 168 77q47 41 78.5 105t31.5 125q0 76 -42 122t-109 46q-72 0 -117.5 -51.5t-106 -147.5t-88.5 -96q-16 0 -16 20v13
q12 55 21.5 97.5t19.5 80t24 71.5q23 37 97.5 57.5t120.5 20.5q64 0 134 -13.5t125.5 -39t92 -66t37.5 -94.5q0 -47 -14.5 -92.5t-39.5 -79.5q-43 -63 -114 -99t-189 -77z" />
    <glyph glyph-name="Ccedilla" unicode="&#x417;" horiz-adv-x="973" 
d="M569 684q187 -60 230 -188q16 -44 16 -103q0 -92 -41 -168q-36 -83 -117 -148t-174 -85q-70 -21 -188 -21q-80 0 -153.5 20t-96.5 66q-4 4 -4 21q0 34 18 115t19 90q5 22 10.5 50t16.5 50.5t30 22.5q20 0 26.5 -24t6.5 -50q0 -14 -2 -48t-2 -51q0 -192 106 -192
q99 0 176 46t119 118q66 123 66 221q0 69 -29 115q-27 56 -53.5 81t-69.5 25q-21 0 -69 -8q-41 0 -41 33q0 15 8 28t20 13q2 0 9 -2t8 -2q12 -4 41 -4q73 0 168 77q47 41 78.5 105t31.5 125q0 76 -42 122t-109 46q-72 0 -117.5 -51.5t-106 -147.5t-88.5 -96q-16 0 -16 20v13
q12 55 21.5 97.5t19.5 80t24 71.5q23 37 97.5 57.5t120.5 20.5q64 0 134 -13.5t125.5 -39t92 -66t37.5 -94.5q0 -47 -14.5 -92.5t-39.5 -79.5q-43 -63 -114 -99t-189 -77z" />
    <glyph glyph-name="Egrave" unicode="&#xc8;" horiz-adv-x="1415" 
d="M365 168q-13 -42 -13 -66q0 -21 10 -26t39.5 -9.5t44.5 -13.5q6 -2 11.5 -12t5.5 -16q0 -17 -8 -25q-18 -8 -62 -8q-33 0 -91 4t-64 4t-59 -2t-81 -2q-45 0 -53 4q-8 8 -8 16q0 10 7 22t13 15q19 10 47.5 14t43.5 23t36 90l250 877q12 42 12 65q0 21 -10 28.5t-34 11
t-46 9.5q-20 8 -20 29q0 13 8 21q12 12 57 12q21 0 58 -2t41 -2q16 0 48 -2t46 -2q20 0 64 2t67 2h8q21 0 25 -4t4 -17q0 -10 -7.5 -21.5t-17.5 -15.5q-16 -8 -48 -15t-45 -26.5t-30 -85.5l-221 -749l631 762q12 49 12 65q0 21 -10 28t-33 10.5t-47 10.5q-20 8 -20 29
q0 13 8 21q12 12 57 12q21 0 58 -2t41 -2q13 0 42 -2t44 -2q22 0 69 2t70 2h8q20 0 24.5 -4t4.5 -17q0 -10 -8 -21.5t-17 -15.5q-13 -6 -45.5 -13t-45.5 -27t-32 -87l-250 -876q-12 -43 -12 -66q0 -21 10 -26t39 -9.5t45 -13.5q13 -6 13 -28q0 -16 -9 -25q-8 -8 -57 -8
q-30 0 -90 4t-66 4q-5 0 -58 -4t-81 -4q-37 0 -53 8q-12 12 -12 16q0 10 7 22t13 15q19 12 37.5 15t36 8t29.5 26t28 78l225 762z" />
    <glyph glyph-name="Egrave" unicode="&#x418;" horiz-adv-x="1415" 
d="M365 168q-13 -42 -13 -66q0 -21 10 -26t39.5 -9.5t44.5 -13.5q6 -2 11.5 -12t5.5 -16q0 -17 -8 -25q-18 -8 -62 -8q-33 0 -91 4t-64 4t-59 -2t-81 -2q-45 0 -53 4q-8 8 -8 16q0 10 7 22t13 15q19 10 47.5 14t43.5 23t36 90l250 877q12 42 12 65q0 21 -10 28.5t-34 11
t-46 9.5q-20 8 -20 29q0 13 8 21q12 12 57 12q21 0 58 -2t41 -2q16 0 48 -2t46 -2q20 0 64 2t67 2h8q21 0 25 -4t4 -17q0 -10 -7.5 -21.5t-17.5 -15.5q-16 -8 -48 -15t-45 -26.5t-30 -85.5l-221 -749l631 762q12 49 12 65q0 21 -10 28t-33 10.5t-47 10.5q-20 8 -20 29
q0 13 8 21q12 12 57 12q21 0 58 -2t41 -2q13 0 42 -2t44 -2q22 0 69 2t70 2h8q20 0 24.5 -4t4.5 -17q0 -10 -8 -21.5t-17 -15.5q-13 -6 -45.5 -13t-45.5 -27t-32 -87l-250 -876q-12 -43 -12 -66q0 -21 10 -26t39 -9.5t45 -13.5q13 -6 13 -28q0 -16 -9 -25q-8 -8 -57 -8
q-30 0 -90 4t-66 4q-5 0 -58 -4t-81 -4q-37 0 -53 8q-12 12 -12 16q0 10 7 22t13 15q19 12 37.5 15t36 8t29.5 26t28 78l225 762z" />
    <glyph glyph-name="Eacute" unicode="&#xc9;" horiz-adv-x="1415" 
d="M365 168q-13 -42 -13 -66q0 -21 10 -26t39.5 -9.5t44.5 -13.5q6 -2 11.5 -12t5.5 -16q0 -17 -8 -25q-18 -8 -62 -8q-33 0 -91 4t-64 4t-59 -2t-81 -2q-45 0 -53 4q-8 8 -8 16q0 10 7 22t13 15q19 10 47.5 14t43.5 23t36 90l250 877q12 42 12 65q0 21 -10 28.5t-34 11
t-46 9.5q-20 8 -20 29q0 13 8 21q12 12 57 12q21 0 58 -2t41 -2q16 0 48 -2t46 -2q20 0 64 2t67 2h8q21 0 25 -4t4 -17q0 -10 -7.5 -21.5t-17.5 -15.5q-16 -8 -48 -15t-45 -26.5t-30 -85.5l-221 -749l631 762q12 49 12 65q0 21 -10 28t-33 10.5t-47 10.5q-20 8 -20 29
q0 13 8 21q12 12 57 12q21 0 58 -2t41 -2q13 0 42 -2t44 -2q22 0 69 2t70 2h8q20 0 24.5 -4t4.5 -17q0 -10 -8 -21.5t-17 -15.5q-13 -6 -45.5 -13t-45.5 -27t-32 -87l-250 -876q-12 -43 -12 -66q0 -21 10 -26t39 -9.5t45 -13.5q13 -6 13 -28q0 -7 -9 -25q-8 -8 -57 -8
q-30 0 -90 4t-66 4q-5 0 -58 -4t-81 -4q-37 0 -53 8q-12 12 -12 16q0 10 7 22t13 15q19 12 37.5 15t36 8t29.5 26t28 78l225 762zM1012 1454q12 19 34 32t39 13q11 0 20 -8.5t9 -24.5q0 -5 -2 -12t-2 -8q-7 -45 -42 -81t-88 -55.5t-108 -19.5q-68 0 -111.5 41.5t-43.5 114.5
v12q0 18 12.5 27.5t32.5 9.5q17 0 33.5 -8.5t19.5 -24.5q3 -21 9 -52.5t19.5 -51t41.5 -19.5q47 0 73.5 30t53.5 85z" />
    <glyph glyph-name="Eacute" unicode="&#x419;" horiz-adv-x="1415" 
d="M365 168q-13 -42 -13 -66q0 -21 10 -26t39.5 -9.5t44.5 -13.5q6 -2 11.5 -12t5.5 -16q0 -17 -8 -25q-18 -8 -62 -8q-33 0 -91 4t-64 4t-59 -2t-81 -2q-45 0 -53 4q-8 8 -8 16q0 10 7 22t13 15q19 10 47.5 14t43.5 23t36 90l250 877q12 42 12 65q0 21 -10 28.5t-34 11
t-46 9.5q-20 8 -20 29q0 13 8 21q12 12 57 12q21 0 58 -2t41 -2q16 0 48 -2t46 -2q20 0 64 2t67 2h8q21 0 25 -4t4 -17q0 -10 -7.5 -21.5t-17.5 -15.5q-16 -8 -48 -15t-45 -26.5t-30 -85.5l-221 -749l631 762q12 49 12 65q0 21 -10 28t-33 10.5t-47 10.5q-20 8 -20 29
q0 13 8 21q12 12 57 12q21 0 58 -2t41 -2q13 0 42 -2t44 -2q22 0 69 2t70 2h8q20 0 24.5 -4t4.5 -17q0 -10 -8 -21.5t-17 -15.5q-13 -6 -45.5 -13t-45.5 -27t-32 -87l-250 -876q-12 -43 -12 -66q0 -21 10 -26t39 -9.5t45 -13.5q13 -6 13 -28q0 -7 -9 -25q-8 -8 -57 -8
q-30 0 -90 4t-66 4q-5 0 -58 -4t-81 -4q-37 0 -53 8q-12 12 -12 16q0 10 7 22t13 15q19 12 37.5 15t36 8t29.5 26t28 78l225 762zM1012 1454q12 19 34 32t39 13q11 0 20 -8.5t9 -24.5q0 -5 -2 -12t-2 -8q-7 -45 -42 -81t-88 -55.5t-108 -19.5q-68 0 -111.5 41.5t-43.5 114.5
v12q0 18 12.5 27.5t32.5 9.5q17 0 33.5 -8.5t19.5 -24.5q3 -21 9 -52.5t19.5 -51t41.5 -19.5q47 0 73.5 30t53.5 85z" />
    <glyph glyph-name="Ecircumflex" unicode="&#xca;" horiz-adv-x="1239" 
d="M893 1073q33 41 33 57q0 25 -66 46q-24 8 -24 24q0 2 4.5 8.5t7.5 12.5q4 8 33 8q9 0 26 -2t19 -2h245q6 0 9.5 -6.5t3.5 -10.5q0 -18 -13 -28q-9 -8 -21.5 -12.5t-30 -9t-25.5 -7.5q-50 -21 -119 -90l-328 -307q-12 -13 -12 -33t16 -53.5t17 -40.5l172 -467
q18 -49 38.5 -72t67.5 -47q17 -6 17 -21q0 -10 -6 -17t-15 -7h-41q-21 0 -73 2t-70 2q-1 0 -8 -2t-9 -2q-21 0 -27 9.5t-18 43.5l-168 512q-3 15 -12 24t-16 9q-15 0 -21 -25l-114 -401q-13 -42 -13 -66q0 -21 10 -26t39.5 -9.5t44.5 -13.5q6 -2 11.5 -12t5.5 -16
q0 -17 -8.5 -25t-48.5 -8q-27 0 -73 4t-50 4h-37q-27 0 -86 -2t-78 -2h-25q-9 0 -14.5 6.5t-5.5 13.5q0 24 20 37q19 10 47.5 14t43.5 23t36 90l250 877q12 42 12 65q0 21 -10 28.5t-34 11t-46 9.5q-20 8 -20 33q0 9 8 17q6 12 57 12q21 0 58 -2t41 -2q13 0 42 -2t44 -2
q22 0 69 2t70 2h8q21 0 25 -4t4 -17q0 -10 -7.5 -21.5t-17.5 -15.5t-44.5 -12t-46.5 -26.5t-32 -88.5l-102 -344z" />
    <glyph glyph-name="Ecircumflex" unicode="&#x41a;" horiz-adv-x="1239" 
d="M893 1073q33 41 33 57q0 25 -66 46q-24 8 -24 24q0 2 4.5 8.5t7.5 12.5q4 8 33 8q9 0 26 -2t19 -2h245q6 0 9.5 -6.5t3.5 -10.5q0 -18 -13 -28q-9 -8 -21.5 -12.5t-30 -9t-25.5 -7.5q-50 -21 -119 -90l-328 -307q-12 -13 -12 -33t16 -53.5t17 -40.5l172 -467
q18 -49 38.5 -72t67.5 -47q17 -6 17 -21q0 -10 -6 -17t-15 -7h-41q-21 0 -73 2t-70 2q-1 0 -8 -2t-9 -2q-21 0 -27 9.5t-18 43.5l-168 512q-3 15 -12 24t-16 9q-15 0 -21 -25l-114 -401q-13 -42 -13 -66q0 -21 10 -26t39.5 -9.5t44.5 -13.5q6 -2 11.5 -12t5.5 -16
q0 -17 -8.5 -25t-48.5 -8q-27 0 -73 4t-50 4h-37q-27 0 -86 -2t-78 -2h-25q-9 0 -14.5 6.5t-5.5 13.5q0 24 20 37q19 10 47.5 14t43.5 23t36 90l250 877q12 42 12 65q0 21 -10 28.5t-34 11t-46 9.5q-20 8 -20 33q0 9 8 17q6 12 57 12q21 0 58 -2t41 -2q13 0 42 -2t44 -2
q22 0 69 2t70 2h8q21 0 25 -4t4 -17q0 -10 -7.5 -21.5t-17.5 -15.5t-44.5 -12t-46.5 -26.5t-32 -88.5l-102 -344z" />
    <glyph glyph-name="Edieresis" unicode="&#xcb;" horiz-adv-x="1395" 
d="M111 -20q-82 0 -82 53q0 91 135 119q90 19 172 172q31 60 82 190.5t96.5 275t75.5 275.5q4 8 4 25q0 37 -20 49t-67.5 31t-47.5 38q0 15 17 20t32 5q29 0 67 -4t64 -4q176 0 344 8q34 0 97 -2t96 -2h98q65 0 65 -17q0 -4 -20 -24q-23 -15 -52 -16.5t-44.5 -15.5
t-30.5 -66l-262 -930q-12 -31 -12 -54q0 -34 16 -44t43 -17t27 -20q-7 -29 -50 -29h-32q-26 0 -75 4t-73 4q-25 0 -76 -2t-75 -2q-37 0 -37 16q0 27 42 35t64.5 20.5t40.5 75.5l266 943q9 29 9 49q0 30 -29 37h-82q-82 0 -143 -5q-35 0 -54 -26.5t-36 -71.5
q-24 -79 -66.5 -213t-84.5 -255t-79.5 -219t-60.5 -144q-70 -134 -135.5 -196.5t-126.5 -65.5z" />
    <glyph glyph-name="Edieresis" unicode="&#x41b;" horiz-adv-x="1395" 
d="M111 -20q-82 0 -82 53q0 91 135 119q90 19 172 172q31 60 82 190.5t96.5 275t75.5 275.5q4 8 4 25q0 37 -20 49t-67.5 31t-47.5 38q0 15 17 20t32 5q29 0 67 -4t64 -4q176 0 344 8q34 0 97 -2t96 -2h98q65 0 65 -17q0 -4 -20 -24q-23 -15 -52 -16.5t-44.5 -15.5
t-30.5 -66l-262 -930q-12 -31 -12 -54q0 -34 16 -44t43 -17t27 -20q-7 -29 -50 -29h-32q-26 0 -75 4t-73 4q-25 0 -76 -2t-75 -2q-37 0 -37 16q0 27 42 35t64.5 20.5t40.5 75.5l266 943q9 29 9 49q0 30 -29 37h-82q-82 0 -143 -5q-35 0 -54 -26.5t-36 -71.5
q-24 -79 -66.5 -213t-84.5 -255t-79.5 -219t-60.5 -144q-70 -134 -135.5 -196.5t-126.5 -65.5z" />
    <glyph glyph-name="Igrave" unicode="&#xcc;" horiz-adv-x="1608" 
d="M270 221q-20 -50 -20 -98q0 -17 8 -33q8 -19 32 -25t46 -12q41 -8 41 -33q0 -24 -37 -24q-13 0 -30 2t-19 2h-29q-24 0 -78 -2t-82 -2h-45q-15 0 -23.5 8.5t-8.5 20.5q0 4 5.5 12.5t10.5 11.5q20 9 60 21.5t60 34.5t36 75l295 877q8 24 8 57q0 26 -14.5 36.5t-43.5 16.5
t-39 10.5t-10 22.5v4q0 29 37 29q32 0 91 -4t89 -4q15 0 34 2t24 2q37 0 37 -45l36 -840l496 852q18 33 53 33h221q33 0 33 -25q0 -21 -18.5 -27t-45 -12t-49.5 -32t-38 -89l-205 -876q-1 -12 -3.5 -22.5t-5.5 -25t-3 -18.5q0 -20 18 -28.5t68 -16.5q8 0 14 -11.5t6 -20.5
v-9q-5 -24 -45 -24q-14 0 -37 4t-29 4q-24 0 -67.5 -0.5t-86.5 -1.5t-75.5 -1.5t-52.5 -0.5q-8 0 -14.5 6.5t-6.5 13.5q0 23 21 37q10 5 46.5 13.5t53 29.5t31.5 84l209 877l-594 -1024q-8 -12 -17.5 -18.5t-15.5 -6.5q-24 0 -24 37l-37 1008z" />
    <glyph glyph-name="Igrave" unicode="&#x41c;" horiz-adv-x="1608" 
d="M270 221q-20 -50 -20 -98q0 -17 8 -33q8 -19 32 -25t46 -12q41 -8 41 -33q0 -24 -37 -24q-13 0 -30 2t-19 2h-29q-24 0 -78 -2t-82 -2h-45q-15 0 -23.5 8.5t-8.5 20.5q0 4 5.5 12.5t10.5 11.5q20 9 60 21.5t60 34.5t36 75l295 877q8 24 8 57q0 26 -14.5 36.5t-43.5 16.5
t-39 10.5t-10 22.5v4q0 29 37 29q32 0 91 -4t89 -4q15 0 34 2t24 2q37 0 37 -45l36 -840l496 852q18 33 53 33h221q33 0 33 -25q0 -21 -18.5 -27t-45 -12t-49.5 -32t-38 -89l-205 -876q-1 -12 -3.5 -22.5t-5.5 -25t-3 -18.5q0 -20 18 -28.5t68 -16.5q8 0 14 -11.5t6 -20.5
v-9q-5 -24 -45 -24q-14 0 -37 4t-29 4q-24 0 -67.5 -0.5t-86.5 -1.5t-75.5 -1.5t-52.5 -0.5q-8 0 -14.5 6.5t-6.5 13.5q0 23 21 37q10 5 46.5 13.5t53 29.5t31.5 84l209 877l-594 -1024q-8 -12 -17.5 -18.5t-15.5 -6.5q-24 0 -24 37l-37 1008z" />
    <glyph glyph-name="Iacute" unicode="&#xcd;" horiz-adv-x="1415" 
d="M365 168q-13 -42 -13 -66q0 -21 10 -26t39.5 -9.5t44.5 -13.5q6 -2 11.5 -12t5.5 -16q0 -17 -8 -25q-18 -8 -62 -8q-33 0 -91 4t-64 4t-59 -2t-81 -2q-45 0 -53 4q-8 8 -8 16q0 10 7 22t13 15q19 10 47.5 14t43.5 23t36 90l250 877q12 42 12 65q0 21 -10 28.5t-34 11
t-46 9.5q-20 8 -20 29q0 13 8 21q12 12 57 12q21 0 58 -2t41 -2q16 0 48 -2t46 -2q20 0 64 2t67 2h8q21 0 25 -4t4 -17q0 -10 -7.5 -21.5t-17.5 -15.5q-16 -8 -48 -15t-45 -26.5t-30 -85.5l-94 -331q0 -2 -2 -6t-2 -7q0 -20 25 -20h344q34 0 41 29l98 348q12 49 12 65
q0 21 -10 28t-33 10.5t-47 10.5q-20 8 -20 29q0 13 8 21q12 12 57 12q21 0 58 -2t41 -2q13 0 42 -2t44 -2q22 0 69 2t70 2h8q20 0 24.5 -4t4.5 -17q0 -10 -8 -21.5t-17 -15.5q-13 -6 -45.5 -13t-45.5 -27t-32 -87l-250 -876q-12 -43 -12 -66q0 -21 10 -26t39 -9.5t45 -13.5
q13 -6 13 -28q0 -7 -9 -25q-8 -8 -57 -8q-30 0 -90 4t-66 4q-5 0 -58 -4t-81 -4q-37 0 -53 8q-12 12 -12 16q0 10 7 22t13 15q19 12 37.5 15t36 8t29.5 26t28 78l119 414v8q0 8 -11 14.5t-22 6.5h-328q-22 0 -32 -6t-17 -23z" />
    <glyph glyph-name="Iacute" unicode="&#x41d;" horiz-adv-x="1415" 
d="M365 168q-13 -42 -13 -66q0 -21 10 -26t39.5 -9.5t44.5 -13.5q6 -2 11.5 -12t5.5 -16q0 -17 -8 -25q-18 -8 -62 -8q-33 0 -91 4t-64 4t-59 -2t-81 -2q-45 0 -53 4q-8 8 -8 16q0 10 7 22t13 15q19 10 47.5 14t43.5 23t36 90l250 877q12 42 12 65q0 21 -10 28.5t-34 11
t-46 9.5q-20 8 -20 29q0 13 8 21q12 12 57 12q21 0 58 -2t41 -2q16 0 48 -2t46 -2q20 0 64 2t67 2h8q21 0 25 -4t4 -17q0 -10 -7.5 -21.5t-17.5 -15.5q-16 -8 -48 -15t-45 -26.5t-30 -85.5l-94 -331q0 -2 -2 -6t-2 -7q0 -20 25 -20h344q34 0 41 29l98 348q12 49 12 65
q0 21 -10 28t-33 10.5t-47 10.5q-20 8 -20 29q0 13 8 21q12 12 57 12q21 0 58 -2t41 -2q13 0 42 -2t44 -2q22 0 69 2t70 2h8q20 0 24.5 -4t4.5 -17q0 -10 -8 -21.5t-17 -15.5q-13 -6 -45.5 -13t-45.5 -27t-32 -87l-250 -876q-12 -43 -12 -66q0 -21 10 -26t39 -9.5t45 -13.5
q13 -6 13 -28q0 -7 -9 -25q-8 -8 -57 -8q-30 0 -90 4t-66 4q-5 0 -58 -4t-81 -4q-37 0 -53 8q-12 12 -12 16q0 10 7 22t13 15q19 12 37.5 15t36 8t29.5 26t28 78l119 414v8q0 8 -11 14.5t-22 6.5h-328q-22 0 -32 -6t-17 -23z" />
    <glyph glyph-name="Icircumflex" unicode="&#xce;" horiz-adv-x="1145" 
d="M127 729q41 130 124 250t201 197t248 77h17q92 -3 166 -48.5t121 -127.5q77 -131 77 -299q0 -94 -28 -217q-22 -99 -75.5 -205.5t-130 -193.5t-174 -139t-210.5 -52h-17q-85 3 -161.5 51.5t-124.5 124.5q-78 137 -78 308q0 119 45 274zM324 700q-27 -98 -46.5 -194.5
t-19.5 -194.5q0 -113 37 -189t119 -93q12 -4 37 -4q101 0 183.5 97t135 215t86.5 232q13 56 25 114.5t20 113.5t8 112q0 244 -159 287q-7 0 -22 2t-23 2q-72 0 -134 -52.5t-111 -133t-81.5 -161t-54.5 -153.5z" />
    <glyph glyph-name="Icircumflex" unicode="&#x41e;" horiz-adv-x="1145" 
d="M127 729q41 130 124 250t201 197t248 77h17q92 -3 166 -48.5t121 -127.5q77 -131 77 -299q0 -94 -28 -217q-22 -99 -75.5 -205.5t-130 -193.5t-174 -139t-210.5 -52h-17q-85 3 -161.5 51.5t-124.5 124.5q-78 137 -78 308q0 119 45 274zM324 700q-27 -98 -46.5 -194.5
t-19.5 -194.5q0 -113 37 -189t119 -93q12 -4 37 -4q101 0 183.5 97t135 215t86.5 232q13 56 25 114.5t20 113.5t8 112q0 244 -159 287q-7 0 -22 2t-23 2q-72 0 -134 -52.5t-111 -133t-81.5 -161t-54.5 -153.5z" />
    <glyph glyph-name="Idieresis" unicode="&#xcf;" horiz-adv-x="1415" 
d="M365 168q-13 -42 -13 -66q0 -21 10 -26t39.5 -9.5t44.5 -13.5q6 -2 11.5 -12t5.5 -16q0 -17 -8 -25q-18 -8 -62 -8q-33 0 -91 4t-64 4t-59 -2t-81 -2q-45 0 -53 4q-8 8 -8 16q0 10 7 22t13 15q19 10 47.5 14t43.5 23t36 90l250 877q12 42 12 65q0 21 -10 28.5t-34 11
t-46 9.5q-20 8 -20 29q0 13 8 21q12 12 57 12q21 0 58 -2t41 -2q16 0 48 -2t46 -2q20 0 64 2t67 2h365q13 0 42 -2t44 -2q22 0 69 2t70 2h8q20 0 24.5 -4t4.5 -17q0 -10 -8 -21.5t-17 -15.5q-13 -6 -45.5 -13t-45.5 -27t-32 -87l-250 -876q-12 -43 -12 -66q0 -21 10 -26
t39 -9.5t45 -13.5q13 -6 13 -28q0 -7 -9 -25q-8 -8 -57 -8q-30 0 -90 4t-66 4q-5 0 -58 -4t-81 -4q-37 0 -53 8q-12 12 -12 16q0 10 7 22t13 15q19 12 37.5 15t36 8t29.5 26t28 78l250 877q12 49 12 65q0 49 -90 49h-237q-34 0 -54 -23.5t-41 -103.5z" />
    <glyph glyph-name="Idieresis" unicode="&#x41f;" horiz-adv-x="1415" 
d="M365 168q-13 -42 -13 -66q0 -21 10 -26t39.5 -9.5t44.5 -13.5q6 -2 11.5 -12t5.5 -16q0 -17 -8 -25q-18 -8 -62 -8q-33 0 -91 4t-64 4t-59 -2t-81 -2q-45 0 -53 4q-8 8 -8 16q0 10 7 22t13 15q19 10 47.5 14t43.5 23t36 90l250 877q12 42 12 65q0 21 -10 28.5t-34 11
t-46 9.5q-20 8 -20 29q0 13 8 21q12 12 57 12q21 0 58 -2t41 -2q16 0 48 -2t46 -2q20 0 64 2t67 2h365q13 0 42 -2t44 -2q22 0 69 2t70 2h8q20 0 24.5 -4t4.5 -17q0 -10 -8 -21.5t-17 -15.5q-13 -6 -45.5 -13t-45.5 -27t-32 -87l-250 -876q-12 -43 -12 -66q0 -21 10 -26
t39 -9.5t45 -13.5q13 -6 13 -28q0 -7 -9 -25q-8 -8 -57 -8q-30 0 -90 4t-66 4q-5 0 -58 -4t-81 -4q-37 0 -53 8q-12 12 -12 16q0 10 7 22t13 15q19 12 37.5 15t36 8t29.5 26t28 78l250 877q12 49 12 65q0 49 -90 49h-237q-34 0 -54 -23.5t-41 -103.5z" />
    <glyph glyph-name="Eth" unicode="&#xd0;" horiz-adv-x="1124" 
d="M631 1106l-131 -463v-20q0 -25 37 -25q120 0 211 86.5t120 204.5q13 48 13 102q0 170 -131 180q-10 0 -22 2.5t-19 2.5q-36 0 -52.5 -14t-25.5 -56zM57 53q19 10 47.5 14t43.5 23t36 90l250 877q12 36 12 61q0 28 -17 42.5t-56 23.5q-10 0 -15.5 6.5t-5.5 13.5q0 8 4 13
q5 16 50 16q16 0 47 -4t34 -4h37q29 0 93 2t96 2q109 0 168 -17q91 -21 139.5 -102t48.5 -205q0 -128 -79.5 -208t-201 -114t-256.5 -34h-57l-110 -381q-13 -42 -13 -66q0 -21 10 -26t39.5 -9.5t44.5 -13.5q6 -2 11.5 -12t5.5 -16q0 -17 -8.5 -25t-53.5 -8q-26 0 -73 4
t-54 4h-28q-22 0 -69 -2t-71 -2h-49q-9 0 -14.5 6.5t-5.5 13.5q0 30 20 37z" />
    <glyph glyph-name="Eth" unicode="&#x420;" horiz-adv-x="1124" 
d="M631 1106l-131 -463v-20q0 -25 37 -25q120 0 211 86.5t120 204.5q13 48 13 102q0 170 -131 180q-10 0 -22 2.5t-19 2.5q-36 0 -52.5 -14t-25.5 -56zM57 53q19 10 47.5 14t43.5 23t36 90l250 877q12 36 12 61q0 28 -17 42.5t-56 23.5q-10 0 -15.5 6.5t-5.5 13.5q0 8 4 13
q5 16 50 16q16 0 47 -4t34 -4h37q29 0 93 2t96 2q109 0 168 -17q91 -21 139.5 -102t48.5 -205q0 -128 -79.5 -208t-201 -114t-256.5 -34h-57l-110 -381q-13 -42 -13 -66q0 -21 10 -26t39.5 -9.5t44.5 -13.5q6 -2 11.5 -12t5.5 -16q0 -17 -8.5 -25t-53.5 -8q-26 0 -73 4
t-54 4h-28q-22 0 -69 -2t-71 -2h-49q-9 0 -14.5 6.5t-5.5 13.5q0 30 20 37z" />
    <glyph glyph-name="Ntilde" unicode="&#xd1;" horiz-adv-x="1087" 
d="M791 115q-7 -29 -16 -48t-30 -30q-105 -59 -249 -66h-25q-133 0 -222.5 61t-134 164t-44.5 226q0 92 36 225q40 124 122 236t192 194.5t241 129t261 46.5q62 0 88 -10t26 -43q0 -13 -8 -53l-61 -225q-19 -45 -41 -45q-9 0 -25 8q-24 18 -24 61q0 18 6 54t6 44q0 5 4 32
t4 42q0 74 -41 74h-20q-62 0 -135.5 -32.5t-137 -82t-108.5 -102.5q-79 -101 -140 -279.5t-61 -330.5q0 -151 61 -242q62 -94 172 -94q104 0 177 86q18 24 32 55t39.5 99.5t39 97.5t24.5 34q4 5 20 5q12 0 18.5 -12.5t6.5 -28.5v-17z" />
    <glyph glyph-name="Ntilde" unicode="&#x421;" horiz-adv-x="1087" 
d="M791 115q-7 -29 -16 -48t-30 -30q-105 -59 -249 -66h-25q-133 0 -222.5 61t-134 164t-44.5 226q0 92 36 225q40 124 122 236t192 194.5t241 129t261 46.5q62 0 88 -10t26 -43q0 -13 -8 -53l-61 -225q-19 -45 -41 -45q-9 0 -25 8q-24 18 -24 61q0 18 6 54t6 44q0 5 4 32
t4 42q0 74 -41 74h-20q-62 0 -135.5 -32.5t-137 -82t-108.5 -102.5q-79 -101 -140 -279.5t-61 -330.5q0 -151 61 -242q62 -94 172 -94q104 0 177 86q18 24 32 55t39.5 99.5t39 97.5t24.5 34q4 5 20 5q12 0 18.5 -12.5t6.5 -28.5v-17z" />
    <glyph glyph-name="Ograve" unicode="&#xd2;" horiz-adv-x="1087" 
d="M430 168q-12 -43 -12 -66q0 -19 10 -25.5t35.5 -9.5t44.5 -10q7 -2 13.5 -14t6.5 -18q0 -17 -4 -21q-12 -12 -73 -12q-33 0 -84 4t-52 4q-6 0 -74 -2t-94 -2h-24q-8 0 -14.5 6.5t-6.5 13.5q0 16 21 37q19 12 36 14t34.5 6.5t31 28.5t29.5 78l283 987q-114 0 -166 -14.5
t-80 -58t-70 -160.5q-6 -18 -17.5 -27.5t-23.5 -9.5q-16 0 -16 25q0 4 2 12t2 12l102 328q8 16 20 30.5t21 14.5q3 0 8 -5.5t5 -15.5v-45q0 -28 36 -28h525q31 0 46.5 4t27 16.5t28.5 40.5q5 21 25 21q16 0 16 -21v-16l-102 -348q-14 -45 -33 -45q-4 0 -16 12q0 3 -2.5 10
t-2.5 14q0 27 17 99q12 55 12 86q0 43 -21 56t-69 13h-94z" />
    <glyph glyph-name="Ograve" unicode="&#x422;" horiz-adv-x="1087" 
d="M430 168q-12 -43 -12 -66q0 -19 10 -25.5t35.5 -9.5t44.5 -10q7 -2 13.5 -14t6.5 -18q0 -17 -4 -21q-12 -12 -73 -12q-33 0 -84 4t-52 4q-6 0 -74 -2t-94 -2h-24q-8 0 -14.5 6.5t-6.5 13.5q0 16 21 37q19 12 36 14t34.5 6.5t31 28.5t29.5 78l283 987q-114 0 -166 -14.5
t-80 -58t-70 -160.5q-6 -18 -17.5 -27.5t-23.5 -9.5q-16 0 -16 25q0 4 2 12t2 12l102 328q8 16 20 30.5t21 14.5q3 0 8 -5.5t5 -15.5v-45q0 -28 36 -28h525q31 0 46.5 4t27 16.5t28.5 40.5q5 21 25 21q16 0 16 -21v-16l-102 -348q-14 -45 -33 -45q-4 0 -16 12q0 3 -2.5 10
t-2.5 14q0 27 17 99q12 55 12 86q0 43 -21 56t-69 13h-94z" />
    <glyph glyph-name="Oacute" unicode="&#xd3;" horiz-adv-x="1145" 
d="M180 -12q-32 -8 -57 -8q-49 0 -74 24q-24 24 -24 70q0 37 12 49q9 28 35.5 49t54.5 21q16 0 25 -5q24 -8 24 -61v-4q0 -21 8 -29q4 -4 17 -4q37 0 82 70l69 119l-12 774q0 54 -13 83t-48 40l-22.5 2.5t-22.5 6t-9 15.5v8q9 29 58 29q14 0 35 -2t22 -2q66 -8 102 -8
q26 0 77 4t75 4h24q21 0 21 -12v-9q-4 -15 -16.5 -21.5t-25 -9t-36.5 -5.5q-15 -10 -24 -44t-9 -63l-4 -426v-8q0 -21 13 -21q10 0 24 21l225 409q37 59 37 91q0 17 -16.5 26.5t-52.5 18.5q-4 4 -8.5 7t-4.5 9q0 5 13 21q27 20 77 20q7 0 101 -2t112 -2q23 0 38.5 -5.5
t15.5 -15.5q0 -8 -8 -16q-8 -13 -60.5 -30.5t-92.5 -38t-60 -58.5l-500 -868q-86 -165 -197 -213z" />
    <glyph glyph-name="Oacute" unicode="&#x423;" horiz-adv-x="1145" 
d="M180 -12q-32 -8 -57 -8q-49 0 -74 24q-24 24 -24 70q0 37 12 49q9 28 35.5 49t54.5 21q16 0 25 -5q24 -8 24 -61v-4q0 -21 8 -29q4 -4 17 -4q37 0 82 70l69 119l-12 774q0 54 -13 83t-48 40l-22.5 2.5t-22.5 6t-9 15.5v8q9 29 58 29q14 0 35 -2t22 -2q66 -8 102 -8
q26 0 77 4t75 4h24q21 0 21 -12v-9q-4 -15 -16.5 -21.5t-25 -9t-36.5 -5.5q-15 -10 -24 -44t-9 -63l-4 -426v-8q0 -21 13 -21q10 0 24 21l225 409q37 59 37 91q0 17 -16.5 26.5t-52.5 18.5q-4 4 -8.5 7t-4.5 9q0 5 13 21q27 20 77 20q7 0 101 -2t112 -2q23 0 38.5 -5.5
t15.5 -15.5q0 -8 -8 -16q-8 -13 -60.5 -30.5t-92.5 -38t-60 -58.5l-500 -868q-86 -165 -197 -213z" />
    <glyph glyph-name="Ocircumflex" unicode="&#xd4;" horiz-adv-x="1317" 
d="M958 1053q-6 2 -25 4t-28 4l-246 -877q62 10 117 45t96 82q74 84 139.5 242.5t65.5 290.5q0 76 -29 132.5t-90 76.5zM655 1053q-110 -32 -187.5 -139.5t-115 -241.5t-37.5 -250q0 -69 13 -111q11 -54 44.5 -90.5t94.5 -36.5l246 877q-29 0 -58 -8zM131 594
q19 79 67 163.5t125 161.5t180 128.5t218 58.5q2 3 3 11.5t1 12.5q0 14 -11 23.5t-25.5 15.5t-30 15.5t-15.5 19.5q0 15 15 20t30 5q29 0 86 -2t82 -2q26 0 83 2t85 2q33 0 33 -17q0 -2 -2 -6t-2 -6q-12 -22 -45 -26.5t-51.5 -14t-34.5 -53.5q65 -3 120.5 -25.5t92.5 -56.5
q118 -102 118 -270q0 -37 -8 -95q-24 -110 -104 -226.5t-208 -198t-282 -87.5q-8 -40 -8 -49q0 -26 13.5 -35t41 -18t27.5 -20q0 -29 -57 -29h-316q-45 0 -45 20q0 12 34.5 19.5t62.5 28t47 83.5q-168 0 -252 92.5t-84 227.5q0 78 16 127z" />
    <glyph glyph-name="Ocircumflex" unicode="&#x424;" horiz-adv-x="1317" 
d="M958 1053q-6 2 -25 4t-28 4l-246 -877q62 10 117 45t96 82q74 84 139.5 242.5t65.5 290.5q0 76 -29 132.5t-90 76.5zM655 1053q-110 -32 -187.5 -139.5t-115 -241.5t-37.5 -250q0 -69 13 -111q11 -54 44.5 -90.5t94.5 -36.5l246 877q-29 0 -58 -8zM131 594
q19 79 67 163.5t125 161.5t180 128.5t218 58.5q2 3 3 11.5t1 12.5q0 14 -11 23.5t-25.5 15.5t-30 15.5t-15.5 19.5q0 15 15 20t30 5q29 0 86 -2t82 -2q26 0 83 2t85 2q33 0 33 -17q0 -2 -2 -6t-2 -6q-12 -22 -45 -26.5t-51.5 -14t-34.5 -53.5q65 -3 120.5 -25.5t92.5 -56.5
q118 -102 118 -270q0 -37 -8 -95q-24 -110 -104 -226.5t-208 -198t-282 -87.5q-8 -40 -8 -49q0 -26 13.5 -35t41 -18t27.5 -20q0 -29 -57 -29h-316q-45 0 -45 20q0 12 34.5 19.5t62.5 28t47 83.5q-168 0 -252 92.5t-84 227.5q0 78 16 127z" />
    <glyph glyph-name="Otilde" unicode="&#xd5;" horiz-adv-x="1223" 
d="M434 1057q-11 50 -27.5 71t-37 28.5t-35.5 12.5t-23 19q0 2 -2 6t-2 6q0 9 8 19t21 10h16q11 0 35 -2t35 -2q15 0 43 -2t43 -2q18 0 47 2t43 2q3 0 28 4t42 4t33 -6.5t16 -18.5q0 -10 -7 -18.5t-14.5 -12.5t-19.5 -10q-70 -17 -70 -73q0 -12 8 -54l66 -262l221 307
q17 30 17 50q0 16 -28.5 30t-33.5 19q-12 6 -12 16q0 9 10 19t23 10q26 0 82 -2t85 -2h50q4 0 15.5 1.5t12.5 2t13 0.5q41 0 41 -21v-4q0 -21 -37 -33q-97 -12 -156 -90l-287 -376l135 -537q16 -65 36.5 -82.5t51 -26.5t35.5 -30v-4q0 -15 -14.5 -22t-30.5 -7q-41 0 -125 2
t-125 2h-8q-6 0 -35 -2t-43 -2q-28 0 -32 8q-9 9 -9 16q0 10 15 22t26 15q51 13 68.5 24.5t17.5 45.5q0 9 -8 57l-86 340l-270 -393q-21 -28 -21 -45q0 -12 8.5 -16.5t31.5 -10t37 -11t18 -19.5q2 -2 3 -5t1 -4q0 -11 -11.5 -17.5t-25.5 -6.5q-38 0 -113 2t-108 2
q-8 0 -31 -4t-35 -4q-8 0 -24 8q-9 7 -9 16q0 18 29 33q15 6 50 15.5t58.5 21t39.5 33.5l352 475z" />
    <glyph glyph-name="Otilde" unicode="&#x425;" horiz-adv-x="1223" 
d="M434 1057q-11 50 -27.5 71t-37 28.5t-35.5 12.5t-23 19q0 2 -2 6t-2 6q0 9 8 19t21 10h16q11 0 35 -2t35 -2q15 0 43 -2t43 -2q18 0 47 2t43 2q3 0 28 4t42 4t33 -6.5t16 -18.5q0 -10 -7 -18.5t-14.5 -12.5t-19.5 -10q-70 -17 -70 -73q0 -12 8 -54l66 -262l221 307
q17 30 17 50q0 16 -28.5 30t-33.5 19q-12 6 -12 16q0 9 10 19t23 10q26 0 82 -2t85 -2h50q4 0 15.5 1.5t12.5 2t13 0.5q41 0 41 -21v-4q0 -21 -37 -33q-97 -12 -156 -90l-287 -376l135 -537q16 -65 36.5 -82.5t51 -26.5t35.5 -30v-4q0 -15 -14.5 -22t-30.5 -7q-41 0 -125 2
t-125 2h-8q-6 0 -35 -2t-43 -2q-28 0 -32 8q-9 9 -9 16q0 10 15 22t26 15q51 13 68.5 24.5t17.5 45.5q0 9 -8 57l-86 340l-270 -393q-21 -28 -21 -45q0 -12 8.5 -16.5t31.5 -10t37 -11t18 -19.5q2 -2 3 -5t1 -4q0 -11 -11.5 -17.5t-25.5 -6.5q-38 0 -113 2t-108 2
q-8 0 -31 -4t-35 -4q-8 0 -24 8q-9 7 -9 16q0 18 29 33q15 6 50 15.5t58.5 21t39.5 33.5l352 475z" />
    <glyph glyph-name="Odieresis" unicode="&#xd6;" horiz-adv-x="1415" 
d="M365 168q-4 -14 -5.5 -19t-4.5 -17.5t-3 -16.5q0 -54 49 -54q21 -4 144 -4t143 4q26 0 45 22.5t41 96.5l250 877q12 49 12 65q0 21 -10 28t-33 10.5t-47 10.5q-20 8 -20 29q0 13 8 21q12 12 57 12q21 0 58 -2t41 -2q13 0 42 -2t44 -2q22 0 69 2t70 2h8q20 0 24.5 -4
t4.5 -17q0 -10 -8 -21.5t-17 -15.5q-13 -6 -45.5 -13t-45.5 -27t-32 -87l-250 -876q-12 -43 -12 -66q0 -21 10 -26t39 -9.5t45 -13.5q8 -4 8 -24v-4l-73 -258q-15 -50 -33 -50q-9 0 -16.5 8.5t-16.5 81t-24 95.5q-22 40 -63.5 69t-92.5 29h-487q-6 0 -59 -2t-81 -2
q-45 0 -53 4q-8 8 -8 16q0 10 7 22t13 15q19 10 47.5 14t43.5 23t36 90l250 877q12 42 12 65q0 21 -10 28.5t-34 11t-46 9.5q-20 8 -20 29q0 13 8 21q12 12 57 12q21 0 58 -2t41 -2q16 0 48 -2t46 -2q20 0 64 2t67 2h8q21 0 25 -4t4 -17q0 -10 -7.5 -21.5t-17.5 -15.5
q-16 -8 -48 -15t-45 -26.5t-30 -85.5z" />
    <glyph glyph-name="Odieresis" unicode="&#x426;" horiz-adv-x="1415" 
d="M365 168q-4 -14 -5.5 -19t-4.5 -17.5t-3 -16.5q0 -54 49 -54q21 -4 144 -4t143 4q26 0 45 22.5t41 96.5l250 877q12 49 12 65q0 21 -10 28t-33 10.5t-47 10.5q-20 8 -20 29q0 13 8 21q12 12 57 12q21 0 58 -2t41 -2q13 0 42 -2t44 -2q22 0 69 2t70 2h8q20 0 24.5 -4
t4.5 -17q0 -10 -8 -21.5t-17 -15.5q-13 -6 -45.5 -13t-45.5 -27t-32 -87l-250 -876q-12 -43 -12 -66q0 -21 10 -26t39 -9.5t45 -13.5q8 -4 8 -24v-4l-73 -258q-15 -50 -33 -50q-9 0 -16.5 8.5t-16.5 81t-24 95.5q-22 40 -63.5 69t-92.5 29h-487q-6 0 -59 -2t-81 -2
q-45 0 -53 4q-8 8 -8 16q0 10 7 22t13 15q19 10 47.5 14t43.5 23t36 90l250 877q12 42 12 65q0 21 -10 28.5t-34 11t-46 9.5q-20 8 -20 29q0 13 8 21q12 12 57 12q21 0 58 -2t41 -2q16 0 48 -2t46 -2q20 0 64 2t67 2h8q21 0 25 -4t4 -17q0 -10 -7.5 -21.5t-17.5 -15.5
q-16 -8 -48 -15t-45 -26.5t-30 -85.5z" />
    <glyph glyph-name="multiply" unicode="&#xd7;" horiz-adv-x="1260" 
d="M745 631q-168 -99 -315 -99q-64 0 -117 20t-84.5 58t-31.5 90q0 12 4.5 27.5t7.5 30.5l90 299q12 42 12 65q0 20 -10.5 28t-35.5 11.5t-44 9.5q-20 8 -20 29q0 13 8 21q12 12 57 12q21 0 58 -2t41 -2q16 0 48 -2t46 -2q20 0 64 2t67 2h8q20 0 24.5 -4t4.5 -17
q0 -10 -8 -21.5t-17 -15.5q-18 -8 -49 -15t-44 -26.5t-30 -85.5l-86 -311q0 -5 -2 -12t-2 -8q0 -41 43.5 -72t104.5 -31q100 0 233 99l98 348q13 48 13 65q0 21 -10 28t-33 10.5t-47 10.5q-21 8 -21 29q0 13 8 21q6 12 53 12q21 0 60 -2t43 -2q15 0 43 -2t43 -2q22 0 69 2
t70 2h8q21 0 25 -4t4 -17q0 -10 -7.5 -21.5t-17.5 -15.5q-13 -6 -46 -13t-47 -28t-34 -86l-245 -876q-17 -62 -17 -66q0 -21 11 -26t41.5 -9.5t46.5 -13.5q12 -6 12 -28q0 -17 -8 -25q-16 -8 -58 -8q-31 0 -91 4t-64 4q-9 0 -60 -4t-80 -4q-37 0 -53 8q-12 6 -12 16t7 22
t13 15q19 12 37.5 15t36 8t29.5 26t28 78z" />
    <glyph glyph-name="multiply" unicode="&#x427;" horiz-adv-x="1260" 
d="M745 631q-168 -99 -315 -99q-64 0 -117 20t-84.5 58t-31.5 90q0 12 4.5 27.5t7.5 30.5l90 299q12 42 12 65q0 20 -10.5 28t-35.5 11.5t-44 9.5q-20 8 -20 29q0 13 8 21q12 12 57 12q21 0 58 -2t41 -2q16 0 48 -2t46 -2q20 0 64 2t67 2h8q20 0 24.5 -4t4.5 -17
q0 -10 -8 -21.5t-17 -15.5q-18 -8 -49 -15t-44 -26.5t-30 -85.5l-86 -311q0 -5 -2 -12t-2 -8q0 -41 43.5 -72t104.5 -31q100 0 233 99l98 348q13 48 13 65q0 21 -10 28t-33 10.5t-47 10.5q-21 8 -21 29q0 13 8 21q6 12 53 12q21 0 60 -2t43 -2q15 0 43 -2t43 -2q22 0 69 2
t70 2h8q21 0 25 -4t4 -17q0 -10 -7.5 -21.5t-17.5 -15.5q-13 -6 -46 -13t-47 -28t-34 -86l-245 -876q-17 -62 -17 -66q0 -21 11 -26t41.5 -9.5t46.5 -13.5q12 -6 12 -28q0 -17 -8 -25q-16 -8 -58 -8q-31 0 -91 4t-64 4q-9 0 -60 -4t-80 -4q-37 0 -53 8q-12 6 -12 16t7 22
t13 15q19 12 37.5 15t36 8t29.5 26t28 78z" />
    <glyph glyph-name="Oslash" unicode="&#xd8;" horiz-adv-x="1686" 
d="M1286 1159q-4 1 -15.5 5t-18.5 11t-7 21v4q0 29 90 29q28 0 55.5 -1.5t39.5 -2.5q27 0 79 2t76 2q37 0 37 -21q-4 0 -4 -8q-11 -33 -47 -38.5t-59 -23.5t-42 -98l-253 -893q-9 -29 -9 -41q0 -23 13.5 -32t40 -12t40 -7.5t13.5 -21.5q0 -13 -4 -21q-5 -20 -41 -20
q-11 0 -26 2l-15 2q-32 0 -89 2t-87 2q-37 0 -80.5 0.5t-96.5 1.5t-108.5 1.5t-95.5 0.5q-21 0 -114 -4t-128 -4q-26 0 -97 2l-71 2q-28 0 -89 -2t-87 -2q-49 0 -49 24q0 32 12 38.5t42.5 9.5t52 21t36.5 71l258 913q8 34 8 45q0 18 -27.5 30.5l-55 25t-27.5 30.5
q0 16 26.5 22.5t47.5 6.5q24 0 82 -4t86 -4h20q147 0 147 -25t-33 -36t-58 -31.5t-44 -92.5l-245 -880q-4 -14 -5.5 -20t-4.5 -16.5t-3 -12.5q0 -50 54 -50h98q84 0 106 99l267 930q0 6 2 17t2 15q0 20 -7.5 28t-25 15t-29.5 15q-8 16 -8 20q0 16 32 22.5t54 6.5h66
q31 0 94 2t90 2q33 0 33 -25v-4q-5 -36 -54 -45q-55 -5 -69 -69l-271 -943q-8 -32 -8 -41q0 -40 45 -40h140q51 0 69 81l266 922q9 22 9 53q0 32 -21 37z" />
    <glyph glyph-name="Oslash" unicode="&#x428;" horiz-adv-x="1686" 
d="M1286 1159q-4 1 -15.5 5t-18.5 11t-7 21v4q0 29 90 29q28 0 55.5 -1.5t39.5 -2.5q27 0 79 2t76 2q37 0 37 -21q-4 0 -4 -8q-11 -33 -47 -38.5t-59 -23.5t-42 -98l-253 -893q-9 -29 -9 -41q0 -23 13.5 -32t40 -12t40 -7.5t13.5 -21.5q0 -13 -4 -21q-5 -20 -41 -20
q-11 0 -26 2l-15 2q-32 0 -89 2t-87 2q-37 0 -80.5 0.5t-96.5 1.5t-108.5 1.5t-95.5 0.5q-21 0 -114 -4t-128 -4q-26 0 -97 2l-71 2q-28 0 -89 -2t-87 -2q-49 0 -49 24q0 32 12 38.5t42.5 9.5t52 21t36.5 71l258 913q8 34 8 45q0 18 -27.5 30.5l-55 25t-27.5 30.5
q0 16 26.5 22.5t47.5 6.5q24 0 82 -4t86 -4h20q147 0 147 -25t-33 -36t-58 -31.5t-44 -92.5l-245 -880q-4 -14 -5.5 -20t-4.5 -16.5t-3 -12.5q0 -50 54 -50h98q84 0 106 99l267 930q0 6 2 17t2 15q0 20 -7.5 28t-25 15t-29.5 15q-8 16 -8 20q0 16 32 22.5t54 6.5h66
q31 0 94 2t90 2q33 0 33 -25v-4q-5 -36 -54 -45q-55 -5 -69 -69l-271 -943q-8 -32 -8 -41q0 -40 45 -40h140q51 0 69 81l266 922q9 22 9 53q0 32 -21 37z" />
    <glyph glyph-name="Ugrave" unicode="&#xd9;" horiz-adv-x="1686" 
d="M999 0q-22 0 -162 2t-165 2q-21 0 -114 -4t-128 -4q-26 0 -97 2l-71 2q-28 0 -89 -2t-87 -2q-49 0 -49 24q0 32 12 38.5t42.5 9.5t52 21t36.5 71l258 913q8 34 8 45q0 18 -27.5 30.5l-55 25t-27.5 30.5q0 16 26.5 22.5t47.5 6.5q24 0 82 -4t86 -4h20q147 0 147 -25
t-33 -36t-58 -31.5t-44 -92.5l-245 -880q-4 -14 -5.5 -20t-4.5 -16.5t-3 -12.5q0 -50 54 -50h98q84 0 106 99l267 930q0 6 2 17t2 15q0 20 -7.5 28t-25 15t-29.5 15q-8 16 -8 20q0 16 32 22.5t54 6.5h66q31 0 94 2t90 2q33 0 33 -25v-4q-5 -36 -54 -45q-55 -5 -69 -69
l-271 -943q-8 -32 -8 -41q0 -40 45 -40h140q51 0 69 81l266 922q9 22 9 53q0 32 -21 37q-4 1 -15.5 5t-18.5 11t-7 21v4q0 29 90 29q28 0 55.5 -1.5t39.5 -2.5q27 0 79 2t76 2q37 0 37 -21q-4 0 -4 -8q-11 -33 -47 -38.5t-59 -23.5t-42 -98l-253 -893q-9 -29 -9 -41
q0 -27 14 -35t41.5 -9t41.5 -5.5t14 -23.5v-8l-74 -258q-15 -50 -37 -50q-5 0 -12 9q-9 7 -19 80t-26 96q-22 39 -63 68.5t-89 29.5z" />
    <glyph glyph-name="Ugrave" unicode="&#x429;" horiz-adv-x="1686" 
d="M999 0q-22 0 -162 2t-165 2q-21 0 -114 -4t-128 -4q-26 0 -97 2l-71 2q-28 0 -89 -2t-87 -2q-49 0 -49 24q0 32 12 38.5t42.5 9.5t52 21t36.5 71l258 913q8 34 8 45q0 18 -27.5 30.5l-55 25t-27.5 30.5q0 16 26.5 22.5t47.5 6.5q24 0 82 -4t86 -4h20q147 0 147 -25
t-33 -36t-58 -31.5t-44 -92.5l-245 -880q-4 -14 -5.5 -20t-4.5 -16.5t-3 -12.5q0 -50 54 -50h98q84 0 106 99l267 930q0 6 2 17t2 15q0 20 -7.5 28t-25 15t-29.5 15q-8 16 -8 20q0 16 32 22.5t54 6.5h66q31 0 94 2t90 2q33 0 33 -25v-4q-5 -36 -54 -45q-55 -5 -69 -69
l-271 -943q-8 -32 -8 -41q0 -40 45 -40h140q51 0 69 81l266 922q9 22 9 53q0 32 -21 37q-4 1 -15.5 5t-18.5 11t-7 21v4q0 29 90 29q28 0 55.5 -1.5t39.5 -2.5q27 0 79 2t76 2q37 0 37 -21q-4 0 -4 -8q-11 -33 -47 -38.5t-59 -23.5t-42 -98l-253 -893q-9 -29 -9 -41
q0 -27 14 -35t41.5 -9t41.5 -5.5t14 -23.5v-8l-74 -258q-15 -50 -37 -50q-5 0 -12 9q-9 7 -19 80t-26 96q-22 39 -63 68.5t-89 29.5z" />
    <glyph glyph-name="Uacute" unicode="&#xda;" horiz-adv-x="1145" 
d="M549 1167q-113 0 -168 -15t-87.5 -61t-72.5 -157q-6 -18 -17.5 -27.5t-23.5 -9.5q-16 0 -16 25q0 4 2 12t2 12l102 328q3 14 17.5 29.5t23.5 15.5q3 0 8 -5.5t5 -15.5h-5v-45q0 -28 41 -28h308q27 2 65.5 2t77.5 2h8q17 0 21 -4q8 -8 8 -17q0 -6 -5 -14t-10.5 -13.5
t-13.5 -9.5q-13 -6 -37.5 -11.5t-36.5 -13t-21.5 -26.5t-27.5 -76l-98 -344h66q93 0 176 -16q99 -30 160.5 -80.5t80.5 -144.5q9 -47 9 -70q0 -95 -49 -182.5t-128 -140.5q-110 -74 -286 -74q-54 0 -160 8q-24 0 -75 2t-77 2h-36q-21 0 -58 -2t-57 -2q-16 0 -30.5 7
t-14.5 13q0 9 12 19.5t33 13.5q44 9 61 20t25 36.5t20 70.5zM475 53q50 -8 70 -8q80 0 156.5 36.5t117.5 102.5q34 43 58 113t24 137q0 111 -65 164q-61 45 -164 45q-62 0 -90 -4l-127 -451q-2 -10 -11.5 -39t-9.5 -47q0 -43 41 -49z" />
    <glyph glyph-name="Uacute" unicode="&#x42a;" horiz-adv-x="1145" 
d="M549 1167q-113 0 -168 -15t-87.5 -61t-72.5 -157q-6 -18 -17.5 -27.5t-23.5 -9.5q-16 0 -16 25q0 4 2 12t2 12l102 328q3 14 17.5 29.5t23.5 15.5q3 0 8 -5.5t5 -15.5h-5v-45q0 -28 41 -28h308q27 2 65.5 2t77.5 2h8q17 0 21 -4q8 -8 8 -17q0 -6 -5 -14t-10.5 -13.5
t-13.5 -9.5q-13 -6 -37.5 -11.5t-36.5 -13t-21.5 -26.5t-27.5 -76l-98 -344h66q93 0 176 -16q99 -30 160.5 -80.5t80.5 -144.5q9 -47 9 -70q0 -95 -49 -182.5t-128 -140.5q-110 -74 -286 -74q-54 0 -160 8q-24 0 -75 2t-77 2h-36q-21 0 -58 -2t-57 -2q-16 0 -30.5 7
t-14.5 13q0 9 12 19.5t33 13.5q44 9 61 20t25 36.5t20 70.5zM475 53q50 -8 70 -8q80 0 156.5 36.5t117.5 102.5q34 43 58 113t24 137q0 111 -65 164q-61 45 -164 45q-62 0 -90 -4l-127 -451q-2 -10 -11.5 -39t-9.5 -47q0 -43 41 -49z" />
    <glyph glyph-name="Ucircumflex" unicode="&#xdb;" horiz-adv-x="1702" 
d="M614 1044l-98 -344h66q88 0 176 -16q99 -30 158.5 -79.5t82.5 -145.5q0 -11 2.5 -32t2.5 -38q0 -96 -47.5 -183t-125.5 -140q-110 -74 -290 -74q-58 0 -156 8q-24 0 -77 2t-79 2h-36q-19 0 -58 -4t-57 -4h-4q-37 0 -37 24q0 9 12 19.5t33 13.5q37 8 52.5 15t22.5 19
t13 38.5t14 54.5l250 877q21 65 21 82q0 29 -66 41q-16 3 -26.5 10t-10.5 14q0 11 14.5 20t34.5 9q99 -8 185 -8q65 0 139 4h8q21 0 25 -4t4 -17q0 -10 -7.5 -21.5t-17.5 -15.5q-16 -8 -48 -15t-45 -26.5t-30 -85.5zM369 188q-2 -9 -9.5 -38t-7.5 -48q0 -43 41 -49
q42 -8 66 -8q82 0 158 36t120 103q32 44 55 113.5t23 136.5q0 114 -61 164q-61 45 -164 45q-66 0 -90 -4zM942 53q19 12 37.5 15t36 8t29.5 26t28 78l250 877q12 49 12 65q0 21 -10 28t-33 10.5t-47 10.5q-20 8 -20 29q0 13 8 21q6 12 53 12q21 0 59 -2t44 -2q13 0 42 -2
t44 -2q22 0 69 2t70 2h8q20 0 24.5 -4t4.5 -17q0 -10 -8 -21.5t-17.5 -15.5t-44.5 -12t-48 -27.5t-34 -87.5l-246 -876q-16 -58 -16 -66q0 -21 11 -26.5t41 -9.5t46 -13q13 -6 13 -28q0 -7 -9 -25q-8 -8 -57 -8q-30 0 -91 4t-65 4q-8 0 -60 -4t-79 -4q-37 0 -53 8
q-12 6 -12 16t7 22t13 15z" />
    <glyph glyph-name="Ucircumflex" unicode="&#x42b;" horiz-adv-x="1702" 
d="M614 1044l-98 -344h66q88 0 176 -16q99 -30 158.5 -79.5t82.5 -145.5q0 -11 2.5 -32t2.5 -38q0 -96 -47.5 -183t-125.5 -140q-110 -74 -290 -74q-58 0 -156 8q-24 0 -77 2t-79 2h-36q-19 0 -58 -4t-57 -4h-4q-37 0 -37 24q0 9 12 19.5t33 13.5q37 8 52.5 15t22.5 19
t13 38.5t14 54.5l250 877q21 65 21 82q0 29 -66 41q-16 3 -26.5 10t-10.5 14q0 11 14.5 20t34.5 9q99 -8 185 -8q65 0 139 4h8q21 0 25 -4t4 -17q0 -10 -7.5 -21.5t-17.5 -15.5q-16 -8 -48 -15t-45 -26.5t-30 -85.5zM369 188q-2 -9 -9.5 -38t-7.5 -48q0 -43 41 -49
q42 -8 66 -8q82 0 158 36t120 103q32 44 55 113.5t23 136.5q0 114 -61 164q-61 45 -164 45q-66 0 -90 -4zM942 53q19 12 37.5 15t36 8t29.5 26t28 78l250 877q12 49 12 65q0 21 -10 28t-33 10.5t-47 10.5q-20 8 -20 29q0 13 8 21q6 12 53 12q21 0 59 -2t44 -2q13 0 42 -2
t44 -2q22 0 69 2t70 2h8q20 0 24.5 -4t4.5 -17q0 -10 -8 -21.5t-17.5 -15.5t-44.5 -12t-48 -27.5t-34 -87.5l-246 -876q-16 -58 -16 -66q0 -21 11 -26.5t41 -9.5t46 -13q13 -6 13 -28q0 -7 -9 -25q-8 -8 -57 -8q-30 0 -91 4t-65 4q-8 0 -60 -4t-79 -4q-37 0 -53 8
q-12 6 -12 16t7 22t13 15z" />
    <glyph glyph-name="Udieresis" unicode="&#xdc;" horiz-adv-x="1067" 
d="M614 1044l-98 -344h66q88 0 176 -16q99 -30 158.5 -79.5t82.5 -145.5q0 -11 2.5 -32t2.5 -38q0 -96 -47.5 -183t-125.5 -140q-110 -74 -290 -74q-58 0 -156 8q-24 0 -77 2t-79 2h-36q-19 0 -58 -4t-57 -4l-4 4q-17 0 -27 6.5t-10 13.5q0 9 12 19.5t33 13.5q37 8 52.5 15
t22.5 19t13 38.5t14 54.5l250 877q21 65 21 82q0 29 -66 41q-16 3 -26.5 10t-10.5 14q0 11 12.5 20t32.5 9h4q99 -8 185 -8q65 0 139 4h8q21 0 25 -4t4 -17q0 -10 -7.5 -21.5t-17.5 -15.5q-16 -8 -48 -15t-45 -26.5t-30 -85.5zM737 184q32 44 55 113.5t23 136.5
q0 114 -61 164q-61 45 -164 45q-66 0 -90 -4l-131 -451q-2 -9 -9.5 -38t-7.5 -48q0 -43 41 -49q42 -8 66 -8q82 0 158 36t120 103z" />
    <glyph glyph-name="Udieresis" unicode="&#x42c;" horiz-adv-x="1067" 
d="M614 1044l-98 -344h66q88 0 176 -16q99 -30 158.5 -79.5t82.5 -145.5q0 -11 2.5 -32t2.5 -38q0 -96 -47.5 -183t-125.5 -140q-110 -74 -290 -74q-58 0 -156 8q-24 0 -77 2t-79 2h-36q-19 0 -58 -4t-57 -4l-4 4q-17 0 -27 6.5t-10 13.5q0 9 12 19.5t33 13.5q37 8 52.5 15
t22.5 19t13 38.5t14 54.5l250 877q21 65 21 82q0 29 -66 41q-16 3 -26.5 10t-10.5 14q0 11 12.5 20t32.5 9h4q99 -8 185 -8q65 0 139 4h8q21 0 25 -4t4 -17q0 -10 -7.5 -21.5t-17.5 -15.5q-16 -8 -48 -15t-45 -26.5t-30 -85.5zM737 184q32 44 55 113.5t23 136.5
q0 114 -61 164q-61 45 -164 45q-66 0 -90 -4l-131 -451q-2 -9 -9.5 -38t-7.5 -48q0 -43 41 -49q42 -8 66 -8q82 0 158 36t120 103z" />
    <glyph glyph-name="Yacute" unicode="&#xdd;" horiz-adv-x="1030" 
d="M270 -29q-78 0 -150 20t-91 66q0 2 -2 7t-2 6q0 60 57 217q2 6 8.5 39t16 54.5t28.5 29.5h8q15 0 22 -16t7 -38v-20q-12 -111 -12 -127q0 -180 106 -180q48 0 104.5 25t106 66.5t76.5 80.5q120 177 197 422h-279q-20 0 -20 24q0 2 2 8t2 9q11 16 24 16h287q37 174 37 274
q0 181 -94 226q-39 16 -78 16q-72 0 -121 -53.5t-110.5 -149t-88.5 -100.5q-3 0 -6.5 -1.5t-5.5 -2.5q-20 0 -20 20q0 2 2 9t2 8q10 37 25 88.5t29.5 94.5t27.5 71q24 36 102 52.5t151 16.5q137 0 226 -67.5t119 -194.5q16 -55 16 -135q0 -137 -54 -294t-150 -289t-227 -215
t-278 -83z" />
    <glyph glyph-name="Yacute" unicode="&#x42d;" horiz-adv-x="1030" 
d="M270 -29q-78 0 -150 20t-91 66q0 2 -2 7t-2 6q0 60 57 217q2 6 8.5 39t16 54.5t28.5 29.5h8q15 0 22 -16t7 -38v-20q-12 -111 -12 -127q0 -180 106 -180q48 0 104.5 25t106 66.5t76.5 80.5q120 177 197 422h-279q-20 0 -20 24q0 2 2 8t2 9q11 16 24 16h287q37 174 37 274
q0 181 -94 226q-39 16 -78 16q-72 0 -121 -53.5t-110.5 -149t-88.5 -100.5q-3 0 -6.5 -1.5t-5.5 -2.5q-20 0 -20 20q0 2 2 9t2 8q10 37 25 88.5t29.5 94.5t27.5 71q24 36 102 52.5t151 16.5q137 0 226 -67.5t119 -194.5q16 -55 16 -135q0 -137 -54 -294t-150 -289t-227 -215
t-278 -83z" />
    <glyph glyph-name="Thorn" unicode="&#xde;" horiz-adv-x="1567" 
d="M1290 569q20 70 34.5 161t14.5 179q0 68 -21.5 136t-61.5 111.5t-89 43.5q-81 0 -148.5 -87.5t-113 -202t-69.5 -210.5q-11 -45 -24 -106.5t-23.5 -143t-10.5 -139.5q0 -66 22 -134t61 -110t85 -42q67 0 124.5 60.5t101.5 148.5t73.5 178.5t44.5 156.5zM631 680
q3 12 5.5 22.5t6.5 26.5q59 204 201.5 364t322.5 160q82 0 157 -47.5t118 -128.5q69 -127 69 -303q0 -73 -24 -213q-22 -104 -69.5 -206.5t-118.5 -191.5t-159.5 -140.5t-189.5 -51.5q-76 0 -154.5 51t-119.5 125q-78 140 -78 308q0 78 20 168h-86q-22 0 -32 -6t-17 -23
l-118 -426q-13 -42 -13 -66q0 -21 10 -26t39.5 -9.5t44.5 -13.5q6 -2 11.5 -12t5.5 -16q0 -17 -8 -25q-18 -8 -62 -8q-33 0 -91 4t-64 4t-59 -2t-81 -2q-45 0 -53 4q-8 8 -8 16q0 10 7 22t13 15q19 10 47.5 14t43.5 23t36 90l250 877q12 42 12 65q0 21 -10 28.5t-34 11
t-46 9.5q-20 8 -20 29q0 13 8 21q12 12 57 12q21 0 58 -2t41 -2q16 0 48 -2t46 -2q20 0 64 2t67 2h8q21 0 25 -4t4 -17q0 -10 -7.5 -21.5t-17.5 -15.5q-16 -8 -48 -15t-45 -26.5t-30 -85.5l-94 -331q0 -2 -2 -6t-2 -7q0 -20 25 -20h90z" />
    <glyph glyph-name="Thorn" unicode="&#x42e;" horiz-adv-x="1567" 
d="M1290 569q20 70 34.5 161t14.5 179q0 68 -21.5 136t-61.5 111.5t-89 43.5q-81 0 -148.5 -87.5t-113 -202t-69.5 -210.5q-11 -45 -24 -106.5t-23.5 -143t-10.5 -139.5q0 -66 22 -134t61 -110t85 -42q67 0 124.5 60.5t101.5 148.5t73.5 178.5t44.5 156.5zM631 680
q3 12 5.5 22.5t6.5 26.5q59 204 201.5 364t322.5 160q82 0 157 -47.5t118 -128.5q69 -127 69 -303q0 -73 -24 -213q-22 -104 -69.5 -206.5t-118.5 -191.5t-159.5 -140.5t-189.5 -51.5q-76 0 -154.5 51t-119.5 125q-78 140 -78 308q0 78 20 168h-86q-22 0 -32 -6t-17 -23
l-118 -426q-13 -42 -13 -66q0 -21 10 -26t39.5 -9.5t44.5 -13.5q6 -2 11.5 -12t5.5 -16q0 -17 -8 -25q-18 -8 -62 -8q-33 0 -91 4t-64 4t-59 -2t-81 -2q-45 0 -53 4q-8 8 -8 16q0 10 7 22t13 15q19 10 47.5 14t43.5 23t36 90l250 877q12 42 12 65q0 21 -10 28.5t-34 11
t-46 9.5q-20 8 -20 29q0 13 8 21q12 12 57 12q21 0 58 -2t41 -2q16 0 48 -2t46 -2q20 0 64 2t67 2h8q21 0 25 -4t4 -17q0 -10 -7.5 -21.5t-17.5 -15.5q-16 -8 -48 -15t-45 -26.5t-30 -85.5l-94 -331q0 -2 -2 -6t-2 -7q0 -20 25 -20h90z" />
    <glyph glyph-name="germandbls" unicode="&#xdf;" horiz-adv-x="1395" 
d="M1348 1208q0 -22 -16.5 -30t-53 -16.5t-60.5 -25.5t-34 -55l-266 -925q-9 -31 -9 -41q0 -19 10 -26.5t34 -13t35 -12t11 -26.5q0 -2 -2 -8t-2 -9q-4 -24 -61 -24q-32 0 -91 2t-89 2h-164q-29 0 -29 12q0 27 14.5 34.5t50.5 13.5t60.5 23t38.5 64l127 447q-24 8 -41 8
q-69 0 -143 -110l-328 -459q-17 -20 -26.5 -26.5t-26.5 -6.5h-45q-24 0 -77 -2t-75 -2q-29 0 -53 8q-8 0 -8 12q0 11 10.5 26.5t21.5 18.5q62 14 92.5 34.5t67.5 72.5l258 348q54 78 123 102q-87 41 -146 95.5t-59 126.5q0 70 38 149.5t102 132.5q73 62 173.5 84.5
t231.5 22.5q51 0 145 -4t130 -4q1 0 32 4t49 4q17 0 30.5 -8t19.5 -13zM995 1085q4 21 4 54q0 45 -61 45q-67 0 -145 -50.5t-130.5 -133.5t-52.5 -173q0 -75 49 -125.5t132 -50.5q51 0 72 24t38 87z" />
    <glyph glyph-name="germandbls" unicode="&#x42f;" horiz-adv-x="1395" 
d="M1348 1208q0 -22 -16.5 -30t-53 -16.5t-60.5 -25.5t-34 -55l-266 -925q-9 -31 -9 -41q0 -19 10 -26.5t34 -13t35 -12t11 -26.5q0 -2 -2 -8t-2 -9q-4 -24 -61 -24q-32 0 -91 2t-89 2h-164q-29 0 -29 12q0 27 14.5 34.5t50.5 13.5t60.5 23t38.5 64l127 447q-24 8 -41 8
q-69 0 -143 -110l-328 -459q-17 -20 -26.5 -26.5t-26.5 -6.5h-45q-24 0 -77 -2t-75 -2q-29 0 -53 8q-8 0 -8 12q0 11 10.5 26.5t21.5 18.5q62 14 92.5 34.5t67.5 72.5l258 348q54 78 123 102q-87 41 -146 95.5t-59 126.5q0 70 38 149.5t102 132.5q73 62 173.5 84.5
t231.5 22.5q51 0 145 -4t130 -4q1 0 32 4t49 4q17 0 30.5 -8t19.5 -13zM995 1085q4 21 4 54q0 45 -61 45q-67 0 -145 -50.5t-130.5 -133.5t-52.5 -173q0 -75 49 -125.5t132 -50.5q51 0 72 24t38 87z" />
    <glyph glyph-name="agrave" unicode="&#xe0;" horiz-adv-x="952" 
d="M680 688q25 60 25 98q0 31 -18 50.5t-56 19.5q-71 0 -146 -72t-137.5 -179.5t-102.5 -220t-40 -179.5q0 -35 12.5 -58.5t36.5 -23.5q48 0 110 61t127 157.5t115 190.5t74 156zM590 -16q-70 0 -70 102q0 53 17.5 125.5t46 157.5t30.5 94q-99 -177 -227 -328t-240 -151
q-46 0 -76 37t-30 94q0 156 93.5 342.5t229.5 315t250 128.5q79 0 123 -45q19 43 27 54.5t39 11.5h53q19 0 32 -7.5t13 -21.5q0 -8 -4 -16l-176 -594q-7 -22 -18 -63t-11 -64q0 -21 8 -21q10 0 25 17q33 30 52 68.5t46 107.5q8 15 18.5 28t18.5 13q2 0 6 -9.5t6 -15.5
q0 -45 -48 -133t-114.5 -157.5t-119.5 -69.5z" />
    <glyph glyph-name="agrave" unicode="&#x430;" horiz-adv-x="952" 
d="M680 688q25 60 25 98q0 31 -18 50.5t-56 19.5q-71 0 -146 -72t-137.5 -179.5t-102.5 -220t-40 -179.5q0 -35 12.5 -58.5t36.5 -23.5q48 0 110 61t127 157.5t115 190.5t74 156zM590 -16q-70 0 -70 102q0 53 17.5 125.5t46 157.5t30.5 94q-99 -177 -227 -328t-240 -151
q-46 0 -76 37t-30 94q0 156 93.5 342.5t229.5 315t250 128.5q79 0 123 -45q19 43 27 54.5t39 11.5h53q19 0 32 -7.5t13 -21.5q0 -8 -4 -16l-176 -594q-7 -22 -18 -63t-11 -64q0 -21 8 -21q10 0 25 17q33 30 52 68.5t46 107.5q8 15 18.5 28t18.5 13q2 0 6 -9.5t6 -15.5
q0 -45 -48 -133t-114.5 -157.5t-119.5 -69.5z" />
    <glyph glyph-name="aacute" unicode="&#xe1;" horiz-adv-x="854" 
d="M45 377q11 62 37 192.5t70.5 247.5t125 223t197.5 164q19 10 82 34t105.5 43t81.5 46t67 66q13 20 25 20l16 -20q-22 -99 -79 -175t-175 -112q-174 -52 -263 -119t-121 -135t-67 -201q69 117 165 192t208 75q86 0 164 -78q94 -89 94 -267q0 -71 -12 -139
q-22 -106 -95 -213t-169.5 -176.5t-186.5 -69.5q-80 0 -151 50q-41 27 -70 70t-43 95t-14 105q0 32 8 82zM516 872q-100 0 -213 -213q-39 -83 -72.5 -212.5t-33.5 -233.5q0 -71 25.5 -127.5t84.5 -56.5q70 0 128.5 81t96.5 173q34 82 62.5 193.5t28.5 203.5q0 110 -41 164
q-30 28 -66 28z" />
    <glyph glyph-name="aacute" unicode="&#x431;" horiz-adv-x="854" 
d="M45 377q11 62 37 192.5t70.5 247.5t125 223t197.5 164q19 10 82 34t105.5 43t81.5 46t67 66q13 20 25 20l16 -20q-22 -99 -79 -175t-175 -112q-174 -52 -263 -119t-121 -135t-67 -201q69 117 165 192t208 75q86 0 164 -78q94 -89 94 -267q0 -71 -12 -139
q-22 -106 -95 -213t-169.5 -176.5t-186.5 -69.5q-80 0 -151 50q-41 27 -70 70t-43 95t-14 105q0 32 8 82zM516 872q-100 0 -213 -213q-39 -83 -72.5 -212.5t-33.5 -233.5q0 -71 25.5 -127.5t84.5 -56.5q70 0 128.5 81t96.5 173q34 82 62.5 193.5t28.5 203.5q0 110 -41 164
q-30 28 -66 28z" />
    <glyph glyph-name="acircumflex" unicode="&#xe2;" horiz-adv-x="797" 
d="M246 459q-8 -26 -8 -33q0 -16 8 -16q4 0 28 12q145 74 236.5 166.5t91.5 185.5q0 33 -11.5 63.5t-37.5 30.5q-37 0 -94.5 -53t-116 -147.5t-96.5 -208.5zM299 8q55 0 112 60.5t95.5 145.5t38.5 151q0 40 -17 67t-49 27q-21 0 -68.5 -22.5t-117 -60.5t-72.5 -40
q-28 -115 -28 -160t29.5 -106.5t76.5 -61.5zM295 -29q-113 0 -187.5 89t-74.5 223q0 93 44.5 201t125 210t177 163t193.5 61q35 0 75 -22t66.5 -55.5t26.5 -66.5q0 -48 -16 -94t-49 -82q-67 -64 -131 -98h8q67 0 105 -42.5t38 -109.5q0 -41 -29.5 -104.5t-86 -128
t-129.5 -104.5t-156 -40z" />
    <glyph glyph-name="acircumflex" unicode="&#x432;" horiz-adv-x="797" 
d="M246 459q-8 -26 -8 -33q0 -16 8 -16q4 0 28 12q145 74 236.5 166.5t91.5 185.5q0 33 -11.5 63.5t-37.5 30.5q-37 0 -94.5 -53t-116 -147.5t-96.5 -208.5zM299 8q55 0 112 60.5t95.5 145.5t38.5 151q0 40 -17 67t-49 27q-21 0 -68.5 -22.5t-117 -60.5t-72.5 -40
q-28 -115 -28 -160t29.5 -106.5t76.5 -61.5zM295 -29q-113 0 -187.5 89t-74.5 223q0 93 44.5 201t125 210t177 163t193.5 61q35 0 75 -22t66.5 -55.5t26.5 -66.5q0 -48 -16 -94t-49 -82q-67 -64 -131 -98h8q67 0 105 -42.5t38 -109.5q0 -41 -29.5 -104.5t-86 -128
t-129.5 -104.5t-156 -40z" />
    <glyph glyph-name="atilde" unicode="&#xe3;" horiz-adv-x="702" 
d="M381 823q-40 0 -90.5 -32t-81.5 -78q-10 -26 -38.5 -62.5t-39.5 -36.5q-12 0 -12 17q0 11 8 37t8 28q35 57 82 107.5t103 82.5t114 32q102 0 157.5 -44t55.5 -124q0 -71 -52.5 -129.5t-159 -144t-158.5 -146.5t-52 -137q0 -60 28.5 -83.5t78.5 -23.5q59 0 110 44t115 132
q5 7 20 29t24.5 31.5t21.5 9.5l8 -4q4 0 4 -17q0 -9 -6 -31l-6 -22q-62 -101 -160.5 -192t-192.5 -91q-209 0 -209 164q0 89 52.5 151.5t156.5 140.5t154.5 136t50.5 142q0 59 -26 86.5t-68 27.5z" />
    <glyph glyph-name="atilde" unicode="&#x433;" horiz-adv-x="702" 
d="M381 823q-40 0 -90.5 -32t-81.5 -78q-10 -26 -38.5 -62.5t-39.5 -36.5q-12 0 -12 17q0 11 8 37t8 28q35 57 82 107.5t103 82.5t114 32q102 0 157.5 -44t55.5 -124q0 -71 -52.5 -129.5t-159 -144t-158.5 -146.5t-52 -137q0 -60 28.5 -83.5t78.5 -23.5q59 0 110 44t115 132
q5 7 20 29t24.5 31.5t21.5 9.5l8 -4q4 0 4 -17q0 -9 -6 -31l-6 -22q-62 -101 -160.5 -192t-192.5 -91q-209 0 -209 164q0 89 52.5 151.5t156.5 140.5t154.5 136t50.5 142q0 59 -26 86.5t-68 27.5z" />
    <glyph glyph-name="adieresis" unicode="&#xe4;" horiz-adv-x="838" 
d="M782 532q-6 -107 -53.5 -218.5t-126.5 -194.5q-59 -62 -141 -103t-158 -41q-104 0 -180 82q-86 97 -86 267q0 126 48.5 252t131.5 206q59 59 130 95t140 36q85 0 144 -53q-8 63 -28 135t-49.5 132.5t-72 112t-96.5 79.5q-20 7 -20 20q0 3 6.5 8t17.5 5q2 0 13 -2t12 -2
q108 -40 193 -148t132 -261t47 -316q0 -58 -4 -91zM446 123q25 32 56.5 100.5t56.5 145t42 161t17 154.5q0 89 -28 135q-37 49 -82 49q-44 0 -89.5 -36.5t-74.5 -81.5q-49 -83 -102.5 -252t-53.5 -293q0 -67 29 -127q36 -53 82 -53q39 0 79 28.5t68 69.5z" />
    <glyph glyph-name="adieresis" unicode="&#x434;" horiz-adv-x="838" 
d="M782 532q-6 -107 -53.5 -218.5t-126.5 -194.5q-59 -62 -141 -103t-158 -41q-104 0 -180 82q-86 97 -86 267q0 126 48.5 252t131.5 206q59 59 130 95t140 36q85 0 144 -53q-8 63 -28 135t-49.5 132.5t-72 112t-96.5 79.5q-20 7 -20 20q0 3 6.5 8t17.5 5q2 0 13 -2t12 -2
q108 -40 193 -148t132 -261t47 -316q0 -58 -4 -91zM446 123q25 32 56.5 100.5t56.5 145t42 161t17 154.5q0 89 -28 135q-37 49 -82 49q-44 0 -89.5 -36.5t-74.5 -81.5q-49 -83 -102.5 -252t-53.5 -293q0 -67 29 -127q36 -53 82 -53q39 0 79 28.5t68 69.5z" />
    <glyph glyph-name="aring" unicode="&#xe5;" horiz-adv-x="817" 
d="M258 516q-20 -50 -20 -65q0 -17 24 -17h21q129 28 215 99t100 188q0 9 2 24t2 17q0 50 -18.5 78t-46.5 28q-39 0 -91 -41.5t-102 -120.5t-86 -190zM705 557q-49 -62 -127.5 -97t-167.5 -52.5t-185 -26.5q-12 -55 -12 -111q0 -86 37.5 -133t97.5 -47t129 50t117 139
q5 6 17.5 35t27.5 34h4q16 0 16 -12v-8q0 -8 -4 -23t-9 -26t-11 -25q-74 -154 -201 -234q-78 -53 -160 -53q-70 0 -125.5 42t-87.5 117.5t-32 164.5q0 116 76.5 264.5t195.5 251t244 102.5q67 0 115 -29.5t73 -75.5t25 -91q0 -88 -53 -156z" />
    <glyph glyph-name="aring" unicode="&#x435;" horiz-adv-x="817" 
d="M258 516q-20 -50 -20 -65q0 -17 24 -17h21q129 28 215 99t100 188q0 9 2 24t2 17q0 50 -18.5 78t-46.5 28q-39 0 -91 -41.5t-102 -120.5t-86 -190zM705 557q-49 -62 -127.5 -97t-167.5 -52.5t-185 -26.5q-12 -55 -12 -111q0 -86 37.5 -133t97.5 -47t129 50t117 139
q5 6 17.5 35t27.5 34h4q16 0 16 -12v-8q0 -8 -4 -23t-9 -26t-11 -25q-74 -154 -201 -234q-78 -53 -160 -53q-70 0 -125.5 42t-87.5 117.5t-32 164.5q0 116 76.5 264.5t195.5 251t244 102.5q67 0 115 -29.5t73 -75.5t25 -91q0 -88 -53 -156z" />
    <glyph glyph-name="ae" unicode="&#xe6;" horiz-adv-x="1374" 
d="M532 49l95 328q-47 -21 -89.5 -61.5t-96.5 -106.5t-76 -90q-139 -139 -242 -139q-40 0 -66 20q-32 26 -32 74q0 50 25.5 111t65.5 104t77 43q17 0 26.5 -11t9.5 -22q0 -45 -45 -78q-45 -40 -77.5 -75.5t-32.5 -59.5q0 -12 7.5 -20.5t16.5 -8.5q18 0 41.5 15.5t47 37.5
t46 48t37.5 43q166 194 308 237q-27 19 -42.5 54t-19.5 69q-4 25 -4 70v98q0 78 -33 78q-18 0 -33 -21q-39 -57 -98 -57q-24 0 -24 25q0 33 16 57q23 38 64.5 64t82.5 26q82 0 82 -147q0 -25 -2 -73t-2 -67q0 -41 4 -53q11 -33 19.5 -49.5t21 -32t37.5 -33.5q7 26 25 93
t48 179.5t34 125.5q3 17 15 31t30 14h32q95 0 95 -33q-17 -50 -71 -226t-56 -184q48 25 80 51.5t67 67.5q25 29 77.5 129t98 155t103.5 56q40 0 67 -26t27 -64q0 -27 -13.5 -54.5t-39.5 -27.5q-66 0 -66 58q0 8 -7 14t-13 6q-32 0 -82 -78q-66 -121 -99 -168
q-22 -33 -60.5 -69t-74.5 -58q116 -36 172 -237q35 -144 82 -144q26 0 39.5 20t13.5 38q0 30 -41 106q-3 9 -7.5 19.5t-4.5 17.5q0 30 16 52t50 22q31 0 48 -29t17 -74q0 -67 -32.5 -134t-86.5 -95q-44 -25 -81 -25q-50 0 -90.5 40t-65.5 104q-8 21 -25 89.5t-36.5 110
t-53.5 62.5l-98 -340q-16 -45 -45 -45q-3 0 -24 2t-38 2q-30 0 -39.5 2.5t-9.5 13.5q0 1 8 33z" />
    <glyph glyph-name="ae" unicode="&#x436;" horiz-adv-x="1374" 
d="M532 49l95 328q-47 -21 -89.5 -61.5t-96.5 -106.5t-76 -90q-139 -139 -242 -139q-40 0 -66 20q-32 26 -32 74q0 50 25.5 111t65.5 104t77 43q17 0 26.5 -11t9.5 -22q0 -45 -45 -78q-45 -40 -77.5 -75.5t-32.5 -59.5q0 -12 7.5 -20.5t16.5 -8.5q18 0 41.5 15.5t47 37.5
t46 48t37.5 43q166 194 308 237q-27 19 -42.5 54t-19.5 69q-4 25 -4 70v98q0 78 -33 78q-18 0 -33 -21q-39 -57 -98 -57q-24 0 -24 25q0 33 16 57q23 38 64.5 64t82.5 26q82 0 82 -147q0 -25 -2 -73t-2 -67q0 -41 4 -53q11 -33 19.5 -49.5t21 -32t37.5 -33.5q7 26 25 93
t48 179.5t34 125.5q3 17 15 31t30 14h32q95 0 95 -33q-17 -50 -71 -226t-56 -184q48 25 80 51.5t67 67.5q25 29 77.5 129t98 155t103.5 56q40 0 67 -26t27 -64q0 -27 -13.5 -54.5t-39.5 -27.5q-66 0 -66 58q0 8 -7 14t-13 6q-32 0 -82 -78q-66 -121 -99 -168
q-22 -33 -60.5 -69t-74.5 -58q116 -36 172 -237q35 -144 82 -144q26 0 39.5 20t13.5 38q0 30 -41 106q-3 9 -7.5 19.5t-4.5 17.5q0 30 16 52t50 22q31 0 48 -29t17 -74q0 -67 -32.5 -134t-86.5 -95q-44 -25 -81 -25q-50 0 -90.5 40t-65.5 104q-8 21 -25 89.5t-36.5 110
t-53.5 62.5l-98 -340q-16 -45 -45 -45q-3 0 -24 2t-38 2q-30 0 -39.5 2.5t-9.5 13.5q0 1 8 33z" />
    <glyph glyph-name="ccedilla" unicode="&#xe7;" horiz-adv-x="760" 
d="M258 -25q-63 0 -114.5 39t-77.5 113q-5 23 -13 69t-8 87q0 69 29 69q11 0 31 -78.5t49 -131t92 -52.5q66 0 120 39t85.5 101t31.5 122q0 54 -25 86.5t-48 32.5q-13 0 -31.5 -7t-42.5 -9h-12q-33 0 -33 20q0 9 10 21t23 12q48 3 78.5 16.5t64.5 44.5q33 27 59.5 90.5
t26.5 110.5q0 43 -20 72.5t-46 29.5q-61 0 -92 -27t-76 -108q-11 -22 -21.5 -41.5t-24 -32t-31.5 -12.5q-13 0 -21 9t-8 20q0 10 3 20.5t6 20.5t7 24q9 47 23 83t60 65t130 29q96 0 179.5 -43.5t83.5 -124.5q0 -114 -60.5 -168.5t-144.5 -81.5q62 -17 108.5 -59.5
t46.5 -108.5q0 -88 -53.5 -171.5t-144.5 -136.5t-199 -53z" />
    <glyph glyph-name="ccedilla" unicode="&#x437;" horiz-adv-x="760" 
d="M258 -25q-63 0 -114.5 39t-77.5 113q-5 23 -13 69t-8 87q0 69 29 69q11 0 31 -78.5t49 -131t92 -52.5q66 0 120 39t85.5 101t31.5 122q0 54 -25 86.5t-48 32.5q-13 0 -31.5 -7t-42.5 -9h-12q-33 0 -33 20q0 9 10 21t23 12q48 3 78.5 16.5t64.5 44.5q33 27 59.5 90.5
t26.5 110.5q0 43 -20 72.5t-46 29.5q-61 0 -92 -27t-76 -108q-11 -22 -21.5 -41.5t-24 -32t-31.5 -12.5q-13 0 -21 9t-8 20q0 10 3 20.5t6 20.5t7 24q9 47 23 83t60 65t130 29q96 0 179.5 -43.5t83.5 -124.5q0 -114 -60.5 -168.5t-144.5 -81.5q62 -17 108.5 -59.5
t46.5 -108.5q0 -88 -53.5 -171.5t-144.5 -136.5t-199 -53z" />
    <glyph glyph-name="egrave" unicode="&#xe8;" horiz-adv-x="932" 
d="M877 844l-160 -504q0 2 -26.5 -80.5t-26.5 -120.5q0 -28 16 -28q12 0 16 4q19 10 45.5 45t55.5 81.5t47 72.5t28 26h9q0 -2 2 -7t2 -9q0 -33 -56.5 -117t-132 -151.5t-131.5 -67.5q-69 0 -69 98q0 40 14 99.5t34.5 122t24.5 77.5q-102 -152 -222 -274.5t-220 -122.5
q-25 0 -49.5 12.5t-24.5 40.5q0 56 26.5 151.5t73 225.5t74 214.5t27.5 125.5q0 16 -16 16q-17 0 -29 -12q-27 -20 -48 -45.5t-49.5 -68t-41.5 -58.5q-6 -12 -17 -12q-8 0 -8 24q0 41 58.5 118t105.5 116q91 69 156 69q26 0 49 -16q24 -12 24 -58q0 -26 -8.5 -56t-21 -62
t-19.5 -49q-16 -44 -63.5 -164t-78 -213t-30.5 -144q0 -32 29 -32q32 0 103 78t142.5 179t94.5 148q58 117 114 287q6 23 21 61q5 17 23 21t51 4h65q17 0 17 -25v-20z" />
    <glyph glyph-name="egrave" unicode="&#x438;" horiz-adv-x="932" 
d="M877 844l-160 -504q0 2 -26.5 -80.5t-26.5 -120.5q0 -28 16 -28q12 0 16 4q19 10 45.5 45t55.5 81.5t47 72.5t28 26h9q0 -2 2 -7t2 -9q0 -33 -56.5 -117t-132 -151.5t-131.5 -67.5q-69 0 -69 98q0 40 14 99.5t34.5 122t24.5 77.5q-102 -152 -222 -274.5t-220 -122.5
q-25 0 -49.5 12.5t-24.5 40.5q0 56 26.5 151.5t73 225.5t74 214.5t27.5 125.5q0 16 -16 16q-17 0 -29 -12q-27 -20 -48 -45.5t-49.5 -68t-41.5 -58.5q-6 -12 -17 -12q-8 0 -8 24q0 41 58.5 118t105.5 116q91 69 156 69q26 0 49 -16q24 -12 24 -58q0 -26 -8.5 -56t-21 -62
t-19.5 -49q-16 -44 -63.5 -164t-78 -213t-30.5 -144q0 -32 29 -32q32 0 103 78t142.5 179t94.5 148q58 117 114 287q6 23 21 61q5 17 23 21t51 4h65q17 0 17 -25v-20z" />
    <glyph glyph-name="eacute" unicode="&#xe9;" horiz-adv-x="932" 
d="M737 1180q10 19 25 32t29 13q19 0 32 -15.5t13 -42.5q0 -8 -9 -37q-29 -80 -107 -132t-155 -52q-63 0 -107 53t-44 127v4q6 91 53 91q20 0 33 -11.5t16 -29.5q2 -12 4 -69t13.5 -86.5t39.5 -29.5q44 0 94 64t70 121zM877 844l-160 -504q0 2 -26.5 -80.5t-26.5 -120.5
q0 -28 16 -28q12 0 16 4q19 10 45.5 45t55.5 81.5t47 72.5t28 26h9q0 -2 2 -7t2 -9q0 -33 -56.5 -117t-132 -151.5t-131.5 -67.5q-69 0 -69 98q0 40 14 99.5t34.5 122t24.5 77.5q-102 -152 -222 -274.5t-220 -122.5q-25 0 -49.5 12.5t-24.5 40.5q0 56 26.5 151.5t73 225.5
t74 214.5t27.5 125.5q0 16 -16 16q-17 0 -29 -12q-27 -20 -48 -45.5t-49.5 -68t-41.5 -58.5q-6 -12 -17 -12q-8 0 -8 24q0 41 58.5 118t105.5 116q91 69 156 69q26 0 49 -16q24 -12 24 -58q0 -26 -8.5 -56t-21 -62t-19.5 -49q-16 -44 -63.5 -164t-78 -213t-30.5 -144
q0 -32 29 -32q32 0 103 78t142.5 179t94.5 148q58 117 114 287q6 23 21 61q5 17 23 21t51 4h65q17 0 17 -25v-20z" />
    <glyph glyph-name="eacute" unicode="&#x439;" horiz-adv-x="932" 
d="M737 1180q10 19 25 32t29 13q19 0 32 -15.5t13 -42.5q0 -8 -9 -37q-29 -80 -107 -132t-155 -52q-63 0 -107 53t-44 127v4q6 91 53 91q20 0 33 -11.5t16 -29.5q2 -12 4 -69t13.5 -86.5t39.5 -29.5q44 0 94 64t70 121zM877 844l-160 -504q0 2 -26.5 -80.5t-26.5 -120.5
q0 -28 16 -28q12 0 16 4q19 10 45.5 45t55.5 81.5t47 72.5t28 26h9q0 -2 2 -7t2 -9q0 -33 -56.5 -117t-132 -151.5t-131.5 -67.5q-69 0 -69 98q0 40 14 99.5t34.5 122t24.5 77.5q-102 -152 -222 -274.5t-220 -122.5q-25 0 -49.5 12.5t-24.5 40.5q0 56 26.5 151.5t73 225.5
t74 214.5t27.5 125.5q0 16 -16 16q-17 0 -29 -12q-27 -20 -48 -45.5t-49.5 -68t-41.5 -58.5q-6 -12 -17 -12q-8 0 -8 24q0 41 58.5 118t105.5 116q91 69 156 69q26 0 49 -16q24 -12 24 -58q0 -26 -8.5 -56t-21 -62t-19.5 -49q-16 -44 -63.5 -164t-78 -213t-30.5 -144
q0 -32 29 -32q32 0 103 78t142.5 179t94.5 148q58 117 114 287q6 23 21 61q5 17 23 21t51 4h65q17 0 17 -25v-20z" />
    <glyph glyph-name="ecircumflex" unicode="&#xea;" horiz-adv-x="895" 
d="M201 41q-18 -45 -45 -45q-5 0 -25 2t-37 2q-31 0 -40 2.5t-9 13.5q0 1 8 33l201 709q0 16 -16 16q-17 0 -29 -12q-27 -20 -48 -45.5t-49.5 -68t-41.5 -58.5q-6 -12 -17 -12q-8 0 -8 20v4q3 41 61.5 119t102.5 115q91 69 156 69q26 0 49 -16q16 -11 16 -53q0 -63 -41 -172
q-7 -28 -34 -116t-31 -102q74 37 143 119q24 26 53.5 81.5t66 120t74 101t84.5 37.5q41 0 68 -26t27 -64q0 -27 -14.5 -54.5t-39.5 -27.5q-61 0 -61 58q-7 20 -25 20q-34 0 -77 -78q-16 -26 -48 -81t-55 -87q-23 -35 -60 -70.5t-75 -56.5q113 -36 172 -237q35 -144 82 -144
q6 0 12.5 4t16.5 9q24 10 24 45q0 48 -41 106q-3 9 -7.5 19.5t-4.5 17.5q0 26 13 47t36 27h17q33 0 49 -28t16 -75q0 -67 -32.5 -134t-86.5 -95q-37 -25 -78 -25q-50 0 -91.5 40.5t-67.5 103.5q-8 21 -25.5 90.5t-35 110t-50.5 61.5z" />
    <glyph glyph-name="ecircumflex" unicode="&#x43a;" horiz-adv-x="895" 
d="M201 41q-18 -45 -45 -45q-5 0 -25 2t-37 2q-31 0 -40 2.5t-9 13.5q0 1 8 33l201 709q0 16 -16 16q-17 0 -29 -12q-27 -20 -48 -45.5t-49.5 -68t-41.5 -58.5q-6 -12 -17 -12q-8 0 -8 20v4q3 41 61.5 119t102.5 115q91 69 156 69q26 0 49 -16q16 -11 16 -53q0 -63 -41 -172
q-7 -28 -34 -116t-31 -102q74 37 143 119q24 26 53.5 81.5t66 120t74 101t84.5 37.5q41 0 68 -26t27 -64q0 -27 -14.5 -54.5t-39.5 -27.5q-61 0 -61 58q-7 20 -25 20q-34 0 -77 -78q-16 -26 -48 -81t-55 -87q-23 -35 -60 -70.5t-75 -56.5q113 -36 172 -237q35 -144 82 -144
q6 0 12.5 4t16.5 9q24 10 24 45q0 48 -41 106q-3 9 -7.5 19.5t-4.5 17.5q0 26 13 47t36 27h17q33 0 49 -28t16 -75q0 -67 -32.5 -134t-86.5 -95q-37 -25 -78 -25q-50 0 -91.5 40.5t-67.5 103.5q-8 21 -25.5 90.5t-35 110t-50.5 61.5z" />
    <glyph glyph-name="edieresis" unicode="&#xeb;" horiz-adv-x="1067" 
d="M61 -4q-36 18 -36 78q0 63 34 123.5t76 60.5q25 0 41.5 -20.5t16.5 -36.5q0 -14 -4.5 -31.5t-4.5 -26.5q0 -14 13 -20q16 -8 28 -8q41 0 87.5 44.5t84.5 119.5q44 81 87.5 220.5t43.5 196.5q0 2 -2 9t-2 8q0 8 -12 8q-13 0 -33.5 -18t-39 -42t-33.5 -47q-17 -32 -37 -32
q-3 0 -8 5t-5 11q0 13 9 20q67 109 148.5 174.5t172.5 93t191 27.5q55 0 82.5 -33t27.5 -81q0 -64 -23 -138.5t-72 -195.5t-73 -195t-24 -135v-8q0 -12 8 -12q9 0 33 14l24 14q25 19 78 104t61 85q17 0 17 -17q0 -2 -2 -10t-2 -10q-40 -92 -96.5 -165.5t-129.5 -117.5
q-38 -32 -86 -32q-29 0 -53 26.5t-24 67.5q0 60 26 143t69.5 191.5t51.5 140.5q57 208 57 254q0 41 -28 41q-88 0 -139 -35t-74 -121q-11 -36 -36.5 -122.5t-43.5 -144t-35 -102.5q-38 -98 -98 -176t-125.5 -118.5t-124.5 -40.5q-30 0 -62 12z" />
    <glyph glyph-name="edieresis" unicode="&#x43b;" horiz-adv-x="1067" 
d="M61 -4q-36 18 -36 78q0 63 34 123.5t76 60.5q25 0 41.5 -20.5t16.5 -36.5q0 -14 -4.5 -31.5t-4.5 -26.5q0 -14 13 -20q16 -8 28 -8q41 0 87.5 44.5t84.5 119.5q44 81 87.5 220.5t43.5 196.5q0 2 -2 9t-2 8q0 8 -12 8q-13 0 -33.5 -18t-39 -42t-33.5 -47q-17 -32 -37 -32
q-3 0 -8 5t-5 11q0 13 9 20q67 109 148.5 174.5t172.5 93t191 27.5q55 0 82.5 -33t27.5 -81q0 -64 -23 -138.5t-72 -195.5t-73 -195t-24 -135v-8q0 -12 8 -12q9 0 33 14l24 14q25 19 78 104t61 85q17 0 17 -17q0 -2 -2 -10t-2 -10q-40 -92 -96.5 -165.5t-129.5 -117.5
q-38 -32 -86 -32q-29 0 -53 26.5t-24 67.5q0 60 26 143t69.5 191.5t51.5 140.5q57 208 57 254q0 41 -28 41q-88 0 -139 -35t-74 -121q-11 -36 -36.5 -122.5t-43.5 -144t-35 -102.5q-38 -98 -98 -176t-125.5 -118.5t-124.5 -40.5q-30 0 -62 12z" />
    <glyph glyph-name="igrave" unicode="&#xec;" horiz-adv-x="1337" 
d="M475 733l-24 25q-23 0 -47 -26t-60.5 -79t-44.5 -63q-6 -12 -16 -12q-3 0 -8 5.5t-5 14.5v4q7 44 65.5 120.5t102.5 113.5q16 11 41 28.5t46.5 27t39.5 9.5q31 0 56.5 -28.5t41 -68.5t17.5 -71q3 -30 6.5 -89t5.5 -102t7.5 -123t13.5 -153q9 13 97.5 140.5t167.5 246
t136 211.5q12 25 74 25h65q21 0 21 -25v-20l-164 -504q0 2 -26.5 -80.5t-26.5 -120.5q0 -28 16 -28q17 0 21 4q18 10 41 41.5t54.5 82t50.5 76t30 25.5h4q4 -4 4 -16q0 -34 -53 -118.5t-128.5 -151t-138.5 -66.5q-65 0 -65 98q0 40 14 99.5t30 108.5t30 91q24 80 59.5 192.5
t38.5 122.5q-25 -38 -81 -122t-101.5 -152.5t-140 -213t-119.5 -183.5q-3 -7 -15.5 -12t-21.5 -5q-33 0 -33 29q-5 66 -9 134.5t-11.5 183t-11 172.5t-9.5 133q-10 -46 -29.5 -113.5t-36.5 -123.5t-24 -83q-46 -144 -119.5 -254t-167.5 -110q-39 0 -78 16q-32 19 -32 78
q0 63 32 123.5t74 60.5q16 0 30.5 -10t20.5 -23t6 -20q0 -16 -8 -43t-8 -35q0 -10 12 -16q16 -9 25 -9q48 0 111 119.5t109 276t46 235.5z" />
    <glyph glyph-name="igrave" unicode="&#x43c;" horiz-adv-x="1337" 
d="M475 733l-24 25q-23 0 -47 -26t-60.5 -79t-44.5 -63q-6 -12 -16 -12q-3 0 -8 5.5t-5 14.5v4q7 44 65.5 120.5t102.5 113.5q16 11 41 28.5t46.5 27t39.5 9.5q31 0 56.5 -28.5t41 -68.5t17.5 -71q3 -30 6.5 -89t5.5 -102t7.5 -123t13.5 -153q9 13 97.5 140.5t167.5 246
t136 211.5q12 25 74 25h65q21 0 21 -25v-20l-164 -504q0 2 -26.5 -80.5t-26.5 -120.5q0 -28 16 -28q17 0 21 4q18 10 41 41.5t54.5 82t50.5 76t30 25.5h4q4 -4 4 -16q0 -34 -53 -118.5t-128.5 -151t-138.5 -66.5q-65 0 -65 98q0 40 14 99.5t30 108.5t30 91q24 80 59.5 192.5
t38.5 122.5q-25 -38 -81 -122t-101.5 -152.5t-140 -213t-119.5 -183.5q-3 -7 -15.5 -12t-21.5 -5q-33 0 -33 29q-5 66 -9 134.5t-11.5 183t-11 172.5t-9.5 133q-10 -46 -29.5 -113.5t-36.5 -123.5t-24 -83q-46 -144 -119.5 -254t-167.5 -110q-39 0 -78 16q-32 19 -32 78
q0 63 32 123.5t74 60.5q16 0 30.5 -10t20.5 -23t6 -20q0 -16 -8 -43t-8 -35q0 -10 12 -16q16 -9 25 -9q48 0 111 119.5t109 276t46 235.5z" />
    <glyph glyph-name="iacute" unicode="&#xed;" horiz-adv-x="932" 
d="M578 410q0 16 -132 16q-13 0 -46 2t-48 2q-41 0 -45 -8q-2 -4 -25.5 -77.5t-53.5 -175t-35 -128.5q-16 -45 -82 -45h-17q-57 0 -57 33q0 13 16 77l201 652q0 16 -16 16q-17 0 -29 -12q-27 -20 -48 -45.5t-49.5 -68t-41.5 -58.5q-6 -12 -17 -12q-8 0 -8 20v4
q3 41 61.5 119t102.5 115q91 69 156 69q26 0 49 -16q24 -12 24 -58q0 -26 -8.5 -56t-21 -62t-19.5 -49l-61 -177q0 -9 38.5 -14.5t92.5 -5.5q6 0 23 -2t22 -2q91 0 98 20q29 92 40 128t29.5 98t28.5 94q6 23 21 61q5 17 23 21t51 4h65q17 0 17 -25v-20l-160 -504
q0 2 -26.5 -80.5t-26.5 -120.5q0 -28 16 -28q12 0 16 4q19 10 45.5 45t55.5 81.5t47 72.5t28 26h9q0 -2 2 -7t2 -9q0 -34 -51 -118.5t-125.5 -151t-143.5 -66.5t-69 98q0 40 14 99.5t34.5 122t24.5 77.5q2 6 5.5 11t3.5 14z" />
    <glyph glyph-name="iacute" unicode="&#x43d;" horiz-adv-x="932" 
d="M578 410q0 16 -132 16q-13 0 -46 2t-48 2q-41 0 -45 -8q-2 -4 -25.5 -77.5t-53.5 -175t-35 -128.5q-16 -45 -82 -45h-17q-57 0 -57 33q0 13 16 77l201 652q0 16 -16 16q-17 0 -29 -12q-27 -20 -48 -45.5t-49.5 -68t-41.5 -58.5q-6 -12 -17 -12q-8 0 -8 20v4
q3 41 61.5 119t102.5 115q91 69 156 69q26 0 49 -16q24 -12 24 -58q0 -26 -8.5 -56t-21 -62t-19.5 -49l-61 -177q0 -9 38.5 -14.5t92.5 -5.5q6 0 23 -2t22 -2q91 0 98 20q29 92 40 128t29.5 98t28.5 94q6 23 21 61q5 17 23 21t51 4h65q17 0 17 -25v-20l-160 -504
q0 2 -26.5 -80.5t-26.5 -120.5q0 -28 16 -28q12 0 16 4q19 10 45.5 45t55.5 81.5t47 72.5t28 26h9q0 -2 2 -7t2 -9q0 -34 -51 -118.5t-125.5 -151t-143.5 -66.5t-69 98q0 40 14 99.5t34.5 122t24.5 77.5q2 6 5.5 11t3.5 14z" />
    <glyph glyph-name="icircumflex" unicode="&#xee;" horiz-adv-x="838" 
d="M446 123q25 32 56.5 100.5t56.5 145t42 161t17 154.5q0 89 -28 135q-37 49 -82 49q-44 0 -89.5 -36.5t-74.5 -81.5q-49 -83 -102.5 -252t-53.5 -293q0 -67 29 -127q36 -53 82 -53q39 0 79 28.5t68 69.5zM217 782q35 35 82 65.5t98.5 48t102.5 17.5q107 0 176 -69
q56 -47 79 -123.5t23 -163.5v-25q-1 -74 -22.5 -146.5t-61.5 -142t-92 -124.5q-59 -62 -141 -103t-158 -41q-104 0 -180 82q-86 97 -86 267q0 4 2 14t2 14q3 125 48 237.5t128 192.5z" />
    <glyph glyph-name="icircumflex" unicode="&#x43e;" horiz-adv-x="838" 
d="M446 123q25 32 56.5 100.5t56.5 145t42 161t17 154.5q0 89 -28 135q-37 49 -82 49q-44 0 -89.5 -36.5t-74.5 -81.5q-49 -83 -102.5 -252t-53.5 -293q0 -67 29 -127q36 -53 82 -53q39 0 79 28.5t68 69.5zM217 782q35 35 82 65.5t98.5 48t102.5 17.5q107 0 176 -69
q56 -47 79 -123.5t23 -163.5v-25q-1 -74 -22.5 -146.5t-61.5 -142t-92 -124.5q-59 -62 -141 -103t-158 -41q-104 0 -180 82q-86 97 -86 267q0 4 2 14t2 14q3 125 48 237.5t128 192.5z" />
    <glyph glyph-name="idieresis" unicode="&#xef;" horiz-adv-x="973" 
d="M53 106l140 447q0 -2 24.5 80.5t24.5 120.5q0 32 -17 32q-6 0 -24 -12q-24 -21 -44.5 -47.5t-44.5 -64.5t-38 -60q-20 -20 -29 -20q-8 0 -8 16q1 36 53.5 112.5t122 135t127.5 59.5q70 0 70 -98q0 -39 -10 -86.5t-20.5 -83t-24.5 -74.5t-19 -55q68 105 118 172.5
t120 131.5t143 89q32 8 57 8q39 0 71.5 -17.5t43.5 -51.5q4 -13 4 -49q0 -63 -28 -152t-77.5 -210t-72.5 -186.5t-23 -103.5q0 -2 2 -6t2 -6q0 -12 13 -12q10 0 25.5 10t23.5 18q17 16 45 54.5t60 86.5t34 48h8q8 0 8 -17q0 -16 -4 -20q-35 -88 -92.5 -163t-128.5 -120
q-38 -32 -86 -32q-32 0 -55 26t-23 68q0 139 168 544q9 21 19.5 49t18 54t7.5 49q0 19 -13 34t-32 15q-96 0 -286 -295q-37 -55 -66 -110t-53 -114t-55.5 -149l-38.5 -110q-16 -45 -99 -45q-57 0 -57 33q0 13 16 77z" />
    <glyph glyph-name="idieresis" unicode="&#x43f;" horiz-adv-x="973" 
d="M53 106l140 447q0 -2 24.5 80.5t24.5 120.5q0 32 -17 32q-6 0 -24 -12q-24 -21 -44.5 -47.5t-44.5 -64.5t-38 -60q-20 -20 -29 -20q-8 0 -8 16q1 36 53.5 112.5t122 135t127.5 59.5q70 0 70 -98q0 -39 -10 -86.5t-20.5 -83t-24.5 -74.5t-19 -55q68 105 118 172.5
t120 131.5t143 89q32 8 57 8q39 0 71.5 -17.5t43.5 -51.5q4 -13 4 -49q0 -63 -28 -152t-77.5 -210t-72.5 -186.5t-23 -103.5q0 -2 2 -6t2 -6q0 -12 13 -12q10 0 25.5 10t23.5 18q17 16 45 54.5t60 86.5t34 48h8q8 0 8 -17q0 -16 -4 -20q-35 -88 -92.5 -163t-128.5 -120
q-38 -32 -86 -32q-32 0 -55 26t-23 68q0 139 168 544q9 21 19.5 49t18 54t7.5 49q0 19 -13 34t-32 15q-96 0 -286 -295q-37 -55 -66 -110t-53 -114t-55.5 -149l-38.5 -110q-16 -45 -99 -45q-57 0 -57 33q0 13 16 77z" />
    <glyph glyph-name="eth" unicode="&#xf0;" horiz-adv-x="1047" 
d="M238 -262q-17 -62 -17 -78q0 -13 6 -20t19.5 -11t44.5 -8.5t37 -5.5q8 0 14 -7t6 -14q0 -12 -8 -20q-4 -8 -66 -8q-30 0 -85 2t-62 2q-22 0 -74 -2t-78 -2h-49q-9 0 -14.5 8t-5.5 16q0 13 8 21q18 12 37 12h29q26 0 50 26t48 101l311 1041q-4 -2 -37.5 -20t-57 -30
t-32.5 -12l-4 4q-8 0 -8 8q0 21 70 65t94 50l61 205q8 35 27.5 46t54.5 11q16 0 51 -8.5t35 -19.5q0 -23 -25 -100t-28 -89q61 12 119 12q136 0 209 -72t73 -206q0 -73 -20 -168q-33 -118 -107 -230.5t-181 -184.5t-228 -72q-79 0 -131 53zM807 762q-14 52 -52 77t-87 25
q-37 0 -99 -20l-200 -664q-9 -45 -9 -57q0 -40 24.5 -67t61.5 -27q69 0 152 79.5t143 235.5q78 179 78 324q0 50 -12 94z" />
    <glyph glyph-name="eth" unicode="&#x440;" horiz-adv-x="1047" 
d="M238 -262q-17 -62 -17 -78q0 -13 6 -20t19.5 -11t44.5 -8.5t37 -5.5q8 0 14 -7t6 -14q0 -12 -8 -20q-4 -8 -66 -8q-30 0 -85 2t-62 2q-22 0 -74 -2t-78 -2h-49q-9 0 -14.5 8t-5.5 16q0 13 8 21q18 12 37 12h29q26 0 50 26t48 101l311 1041q-4 -2 -37.5 -20t-57 -30
t-32.5 -12l-4 4q-8 0 -8 8q0 21 70 65t94 50l61 205q8 35 27.5 46t54.5 11q16 0 51 -8.5t35 -19.5q0 -23 -25 -100t-28 -89q61 12 119 12q136 0 209 -72t73 -206q0 -73 -20 -168q-33 -118 -107 -230.5t-181 -184.5t-228 -72q-79 0 -131 53zM807 762q-14 52 -52 77t-87 25
q-37 0 -99 -20l-200 -664q-9 -45 -9 -57q0 -40 24.5 -67t61.5 -27q69 0 152 79.5t143 235.5q78 179 78 324q0 50 -12 94z" />
    <glyph glyph-name="ntilde" unicode="&#xf1;" horiz-adv-x="780" 
d="M668 889q30 -20 47.5 -58.5t17.5 -76.5q0 -40 -28 -73.5t-70 -33.5q-48 0 -60 53.5t-23.5 106.5t-59.5 53q-61 0 -131 -79.5t-117 -213t-47 -280.5q0 -66 33 -131.5t106 -65.5q48 0 101 50.5t116 131t74 80.5q3 0 9.5 -5.5t6.5 -10.5q0 -23 -25 -72t-54.5 -93t-31.5 -44
q-63 -75 -134 -113.5t-136 -38.5q-66 0 -120 36t-85.5 107.5t-31.5 164.5q0 101 46.5 221t125 217.5t172.5 142.5q44 21 96 35t96 14q57 0 107 -24z" />
    <glyph glyph-name="ntilde" unicode="&#x441;" horiz-adv-x="780" 
d="M668 889q30 -20 47.5 -58.5t17.5 -76.5q0 -40 -28 -73.5t-70 -33.5q-48 0 -60 53.5t-23.5 106.5t-59.5 53q-61 0 -131 -79.5t-117 -213t-47 -280.5q0 -66 33 -131.5t106 -65.5q48 0 101 50.5t116 131t74 80.5q3 0 9.5 -5.5t6.5 -10.5q0 -23 -25 -72t-54.5 -93t-31.5 -44
q-63 -75 -134 -113.5t-136 -38.5q-66 0 -120 36t-85.5 107.5t-31.5 164.5q0 101 46.5 221t125 217.5t172.5 142.5q44 21 96 35t96 14q57 0 107 -24z" />
    <glyph glyph-name="ograve" unicode="&#xf2;" horiz-adv-x="1374" 
d="M754 479q103 173 211 299.5t219 126.5q34 0 64 -16.5t38 -48.5q8 -26 8 -49q0 -62 -27.5 -148.5t-83.5 -223t-74.5 -187t-18.5 -93.5q0 -9 4 -16.5t8 -7.5q11 0 27.5 7.5t21.5 12.5q22 22 82 109.5t70 87.5q3 -3 7.5 -9.5t4.5 -11.5v-12q-30 -76 -86.5 -151t-122.5 -123
q-62 -45 -107 -45q-62 0 -73 61q0 6 -2 19t-2 18q0 61 23.5 143t55.5 166.5t64 161.5q1 4 20 48.5t34.5 92.5t15.5 80q0 45 -21 45q-24 0 -54.5 -22t-63.5 -56.5t-62 -70.5t-41 -52q-164 -232 -258 -548q-7 -60 -57 -66q-21 -4 -54 -4q-49 0 -49 37q0 13 17 73l139 447
q0 1 24.5 80.5t24.5 120.5q0 53 -29 53q-50 0 -127 -102q-173 -214 -282 -504q-4 -10 -30 -92.5t-36 -92.5q-25 -20 -70 -20h-12q-61 0 -61 33q0 9 7.5 39.5t8.5 37.5l139 447q13 35 33.5 99.5t20.5 101.5q0 13 -5.5 22.5t-11.5 9.5q-18 0 -41.5 -31.5t-75.5 -102t-63 -70.5
v4q-4 0 -8 4t-4 8q0 19 15.5 48.5t37 61t25.5 33.5q115 164 225 164q38 0 56 -27t18 -71q0 -47 -14 -102t-36 -120.5t-24 -76.5q75 120 124.5 189.5t132 136.5t173.5 67q37 0 53.5 -32t16.5 -78q0 -50 -15.5 -110.5t-34 -112t-32.5 -89.5z" />
    <glyph glyph-name="ograve" unicode="&#x442;" horiz-adv-x="1374" 
d="M754 479q103 173 211 299.5t219 126.5q34 0 64 -16.5t38 -48.5q8 -26 8 -49q0 -62 -27.5 -148.5t-83.5 -223t-74.5 -187t-18.5 -93.5q0 -9 4 -16.5t8 -7.5q11 0 27.5 7.5t21.5 12.5q22 22 82 109.5t70 87.5q3 -3 7.5 -9.5t4.5 -11.5v-12q-30 -76 -86.5 -151t-122.5 -123
q-62 -45 -107 -45q-62 0 -73 61q0 6 -2 19t-2 18q0 61 23.5 143t55.5 166.5t64 161.5q1 4 20 48.5t34.5 92.5t15.5 80q0 45 -21 45q-24 0 -54.5 -22t-63.5 -56.5t-62 -70.5t-41 -52q-164 -232 -258 -548q-7 -60 -57 -66q-21 -4 -54 -4q-49 0 -49 37q0 13 17 73l139 447
q0 1 24.5 80.5t24.5 120.5q0 53 -29 53q-50 0 -127 -102q-173 -214 -282 -504q-4 -10 -30 -92.5t-36 -92.5q-25 -20 -70 -20h-12q-61 0 -61 33q0 9 7.5 39.5t8.5 37.5l139 447q13 35 33.5 99.5t20.5 101.5q0 13 -5.5 22.5t-11.5 9.5q-18 0 -41.5 -31.5t-75.5 -102t-63 -70.5
v4q-4 0 -8 4t-4 8q0 19 15.5 48.5t37 61t25.5 33.5q115 164 225 164q38 0 56 -27t18 -71q0 -47 -14 -102t-36 -120.5t-24 -76.5q75 120 124.5 189.5t132 136.5t173.5 67q37 0 53.5 -32t16.5 -78q0 -50 -15.5 -110.5t-34 -112t-32.5 -89.5z" />
    <glyph glyph-name="oacute" unicode="&#xf3;" horiz-adv-x="1014" 
d="M569 74q65 96 124 187.5t105 188t46 164.5q0 38 -16.5 105t-16.5 96q0 17 8 49q9 22 25 33.5t33 11.5q28 0 52.5 -30t24.5 -72q0 -186 -221 -553q-68 -117 -139 -228t-151 -215t-152 -167q-105 -95 -189 -95q-61 0 -90 62q-8 16 -8 53q0 42 22.5 76.5t55.5 34.5
q12 0 37 -17q16 -8 27.5 -38t20.5 -50.5t30 -21.5h4q37 0 72 35.5t61.5 82.5t38.5 82q37 90 57.5 281.5t20.5 382.5q0 152 -9 205q-3 30 -14.5 52t-30.5 22q-14 0 -37 -21q-11 -12 -34 -61.5t-40 -87.5t-24 -39l-8 -4q-12 0 -12 20q0 35 37.5 110.5t90.5 134t101 58.5
q62 0 90.5 -52.5t36.5 -127.5q8 -132 8 -201q0 -187 -37 -446z" />
    <glyph glyph-name="oacute" unicode="&#x443;" horiz-adv-x="1014" 
d="M569 74q65 96 124 187.5t105 188t46 164.5q0 38 -16.5 105t-16.5 96q0 17 8 49q9 22 25 33.5t33 11.5q28 0 52.5 -30t24.5 -72q0 -186 -221 -553q-68 -117 -139 -228t-151 -215t-152 -167q-105 -95 -189 -95q-61 0 -90 62q-8 16 -8 53q0 42 22.5 76.5t55.5 34.5
q12 0 37 -17q16 -8 27.5 -38t20.5 -50.5t30 -21.5h4q37 0 72 35.5t61.5 82.5t38.5 82q37 90 57.5 281.5t20.5 382.5q0 152 -9 205q-3 30 -14.5 52t-30.5 22q-14 0 -37 -21q-11 -12 -34 -61.5t-40 -87.5t-24 -39l-8 -4q-12 0 -12 20q0 35 37.5 110.5t90.5 134t101 58.5
q62 0 90.5 -52.5t36.5 -127.5q8 -132 8 -201q0 -187 -37 -446z" />
    <glyph glyph-name="ocircumflex" unicode="&#xf4;" horiz-adv-x="1202" 
d="M373 -12q-42 -8 -62 -8q-46 0 -89 16.5t-83 52.5q-102 92 -102 291q0 73 21.5 154t61.5 153.5t93 126.5q59 62 137.5 103t157.5 41q72 0 135 -37l82 266q1 7 8.5 35t7.5 39q0 40 -41 45q-2 0 -10 -2t-10 -2q-28 0 -41 20q-4 0 -4 8q0 10 12.5 17.5t24.5 7.5q106 8 159 28
q30 11 57 20.5t50 12.5h4q12 0 12 -16q0 -3 -2 -16t-2 -17l-131 -422q42 8 58 8q100 0 176 -69q53 -45 77.5 -122.5t24.5 -164.5q0 -120 -48 -236t-128 -202q-59 -62 -141.5 -103t-157.5 -41q-77 0 -135 45l-86 -282q-17 -70 -17 -78q0 -14 6 -20.5t20.5 -10.5t31.5 -6.5
t49 -7.5q8 0 14 -7t6 -14q0 -16 -4 -20q-8 -8 -65 -8q-35 0 -90 2t-58 2q-22 0 -76 -2t-79 -2h-45q-21 0 -21 24q0 13 8 21q12 12 33 12h29q27 0 52.5 26t49.5 101zM225 78q37 -49 82 -49q41 0 90 37l213 708q-8 36 -12 41q-35 57 -86 57q-38 0 -78 -29.5t-65 -68.5
q-36 -49 -77 -148.5t-70 -213t-29 -203.5q0 -78 32 -131zM967 819q-34 45 -82 45q-46 0 -90 -33l-217 -712q10 -32 16 -41q34 -53 82 -53q39 0 79 28.5t68 69.5q25 32 56.5 100.5t56.5 145t42 161t17 154.5q0 89 -28 135z" />
    <glyph glyph-name="ocircumflex" unicode="&#x444;" horiz-adv-x="1202" 
d="M373 -12q-42 -8 -62 -8q-46 0 -89 16.5t-83 52.5q-102 92 -102 291q0 73 21.5 154t61.5 153.5t93 126.5q59 62 137.5 103t157.5 41q72 0 135 -37l82 266q1 7 8.5 35t7.5 39q0 40 -41 45q-2 0 -10 -2t-10 -2q-28 0 -41 20q-4 0 -4 8q0 10 12.5 17.5t24.5 7.5q106 8 159 28
q30 11 57 20.5t50 12.5h4q12 0 12 -16q0 -3 -2 -16t-2 -17l-131 -422q42 8 58 8q100 0 176 -69q53 -45 77.5 -122.5t24.5 -164.5q0 -120 -48 -236t-128 -202q-59 -62 -141.5 -103t-157.5 -41q-77 0 -135 45l-86 -282q-17 -70 -17 -78q0 -14 6 -20.5t20.5 -10.5t31.5 -6.5
t49 -7.5q8 0 14 -7t6 -14q0 -16 -4 -20q-8 -8 -65 -8q-35 0 -90 2t-58 2q-22 0 -76 -2t-79 -2h-45q-21 0 -21 24q0 13 8 21q12 12 33 12h29q27 0 52.5 26t49.5 101zM225 78q37 -49 82 -49q41 0 90 37l213 708q-8 36 -12 41q-35 57 -86 57q-38 0 -78 -29.5t-65 -68.5
q-36 -49 -77 -148.5t-70 -213t-29 -203.5q0 -78 32 -131zM967 819q-34 45 -82 45q-46 0 -90 -33l-217 -712q10 -32 16 -41q34 -53 82 -53q39 0 79 28.5t68 69.5q25 32 56.5 100.5t56.5 145t42 161t17 154.5q0 89 -28 135z" />
    <glyph glyph-name="otilde" unicode="&#xf5;" horiz-adv-x="1010" 
d="M471 414q-11 77 -21.5 137.5t-26 119t-34.5 95.5q-12 29 -45 29q-16 0 -25 -4q-31 -15 -42 -52.5t-20 -95t-19 -57.5q-17 0 -17 45q0 57 27 131t67 106q44 37 95 37q44 0 69 -20q28 -22 46 -60t27.5 -75t19 -91t14.5 -86q25 43 77 128t107 144.5t107 59.5q20 0 36 -8
q41 -20 41 -90q0 -56 -33.5 -108t-76.5 -52q-49 0 -49 49q0 9 2 29t2 29q0 24 -13 24h-4q-21 0 -89.5 -102t-94.5 -152q11 -61 27 -150t30 -169q18 -94 54 -94q19 0 30.5 31.5t23.5 96t18 87t18 22.5q20 0 20 -53q0 -42 -15 -102.5t-42.5 -114t-61.5 -74.5q-33 -20 -61 -20
q-40 0 -67.5 40.5t-46 106.5t-27 119t-15.5 102q-82 -142 -171 -257t-177 -115q-25 0 -57 16q-41 28 -41 90t33 117t77 55q21 0 37 -8q29 -17 29 -49q0 -20 -14.5 -56t-14.5 -47q0 -10 13 -16q0 -4 12 -4q32 0 85 67t103 148t74 121z" />
    <glyph glyph-name="otilde" unicode="&#x445;" horiz-adv-x="1010" 
d="M471 414q-11 77 -21.5 137.5t-26 119t-34.5 95.5q-12 29 -45 29q-16 0 -25 -4q-31 -15 -42 -52.5t-20 -95t-19 -57.5q-17 0 -17 45q0 57 27 131t67 106q44 37 95 37q44 0 69 -20q28 -22 46 -60t27.5 -75t19 -91t14.5 -86q25 43 77 128t107 144.5t107 59.5q20 0 36 -8
q41 -20 41 -90q0 -56 -33.5 -108t-76.5 -52q-49 0 -49 49q0 9 2 29t2 29q0 24 -13 24h-4q-21 0 -89.5 -102t-94.5 -152q11 -61 27 -150t30 -169q18 -94 54 -94q19 0 30.5 31.5t23.5 96t18 87t18 22.5q20 0 20 -53q0 -42 -15 -102.5t-42.5 -114t-61.5 -74.5q-33 -20 -61 -20
q-40 0 -67.5 40.5t-46 106.5t-27 119t-15.5 102q-82 -142 -171 -257t-177 -115q-25 0 -57 16q-41 28 -41 90t33 117t77 55q21 0 37 -8q29 -17 29 -49q0 -20 -14.5 -56t-14.5 -47q0 -10 13 -16q0 -4 12 -4q32 0 85 67t103 148t74 121z" />
    <glyph glyph-name="odieresis" unicode="&#xf6;" horiz-adv-x="932" 
d="M872 340q4 0 6.5 -6t2.5 -10q0 -41 -66 -144q-57 -132 -77.5 -209.5t-20.5 -126.5v-53q-6 -66 -52 -103t-112 -53h-12q-12 0 -18.5 7t-6.5 14q0 3 5.5 9.5t10.5 6.5q18 16 44 46.5t26 56.5q0 12 -4 16q0 1 -2 10t-2 15q0 44 40.5 115t106.5 163q-50 -50 -88.5 -78
t-74.5 -28q-45 0 -63.5 25t-18.5 69t14 103t34.5 122t24.5 78q-68 -101 -100.5 -148t-88 -108t-121.5 -101t-132 -40q-27 0 -50.5 12.5t-23.5 40.5q0 70 27 168t76 231t73.5 205t24.5 113q0 16 -16 16q-17 0 -29 -12q-27 -20 -48 -45.5t-49.5 -68t-41.5 -58.5
q-12 -12 -17 -12q-4 0 -8 5.5t-4 14.5q0 39 62.5 120.5t105.5 117.5q91 69 156 69q26 0 49 -16q24 -12 24 -58q0 -26 -8.5 -56t-21 -62t-19.5 -49q-18 -51 -35.5 -95t-58.5 -154t-57.5 -167.5t-16.5 -95.5q0 -41 25 -41q35 0 86 46t99.5 111.5t91.5 135.5t63 112
q58 117 114 287q6 23 21 61q5 17 23 21t51 4h65q17 0 17 -25v-20l-160 -504q-14 -35 -36 -101t-22 -104q0 -12 6 -20.5t15 -8.5q3 1 9.5 5l6.5 4q19 10 45.5 45t55.5 81.5t47 72.5t28 26z" />
    <glyph glyph-name="odieresis" unicode="&#x446;" horiz-adv-x="932" 
d="M872 340q4 0 6.5 -6t2.5 -10q0 -41 -66 -144q-57 -132 -77.5 -209.5t-20.5 -126.5v-53q-6 -66 -52 -103t-112 -53h-12q-12 0 -18.5 7t-6.5 14q0 3 5.5 9.5t10.5 6.5q18 16 44 46.5t26 56.5q0 12 -4 16q0 1 -2 10t-2 15q0 44 40.5 115t106.5 163q-50 -50 -88.5 -78
t-74.5 -28q-45 0 -63.5 25t-18.5 69t14 103t34.5 122t24.5 78q-68 -101 -100.5 -148t-88 -108t-121.5 -101t-132 -40q-27 0 -50.5 12.5t-23.5 40.5q0 70 27 168t76 231t73.5 205t24.5 113q0 16 -16 16q-17 0 -29 -12q-27 -20 -48 -45.5t-49.5 -68t-41.5 -58.5
q-12 -12 -17 -12q-4 0 -8 5.5t-4 14.5q0 39 62.5 120.5t105.5 117.5q91 69 156 69q26 0 49 -16q24 -12 24 -58q0 -26 -8.5 -56t-21 -62t-19.5 -49q-18 -51 -35.5 -95t-58.5 -154t-57.5 -167.5t-16.5 -95.5q0 -41 25 -41q35 0 86 46t99.5 111.5t91.5 135.5t63 112
q58 117 114 287q6 23 21 61q5 17 23 21t51 4h65q17 0 17 -25v-20l-160 -504q-14 -35 -36 -101t-22 -104q0 -12 6 -20.5t15 -8.5q3 1 9.5 5l6.5 4q19 10 45.5 45t55.5 81.5t47 72.5t28 26z" />
    <glyph glyph-name="divide" unicode="&#xf7;" horiz-adv-x="932" 
d="M217 606q37 116 37 152q0 16 -16 16q-17 0 -29 -12q-27 -20 -48 -45.5t-49.5 -68t-41.5 -58.5q-6 -12 -17 -12q-8 0 -8 20q0 39 61 121t103 117q91 69 156 69q26 0 49 -16q24 -12 24 -58q0 -26 -8.5 -56t-21 -62t-19.5 -49q-40 -110 -48 -135.5t-13 -69.5
q0 -18 8.5 -33.5t23.5 -15.5q54 0 123 78t130.5 182.5t103.5 193.5q8 25 78 25h65q17 0 17 -25v-20l-160 -504q0 2 -26.5 -80.5t-26.5 -120.5q0 -28 16 -28q12 0 16 4q19 10 45.5 45t55.5 81.5t47 72.5t28 26h9q0 -2 2 -7t2 -9q0 -35 -52 -119t-126.5 -150.5t-141.5 -66.5
q-69 0 -69 98q0 40 14 99.5t34.5 122t24.5 77.5q51 130 111 315q-25 -38 -80 -120t-110 -144.5t-116.5 -103.5t-127.5 -41q-26 0 -56 29t-30 57q0 80 57 229z" />
    <glyph glyph-name="divide" unicode="&#x447;" horiz-adv-x="932" 
d="M217 606q37 116 37 152q0 16 -16 16q-17 0 -29 -12q-27 -20 -48 -45.5t-49.5 -68t-41.5 -58.5q-6 -12 -17 -12q-8 0 -8 20q0 39 61 121t103 117q91 69 156 69q26 0 49 -16q24 -12 24 -58q0 -26 -8.5 -56t-21 -62t-19.5 -49q-40 -110 -48 -135.5t-13 -69.5
q0 -18 8.5 -33.5t23.5 -15.5q54 0 123 78t130.5 182.5t103.5 193.5q8 25 78 25h65q17 0 17 -25v-20l-160 -504q0 2 -26.5 -80.5t-26.5 -120.5q0 -28 16 -28q12 0 16 4q19 10 45.5 45t55.5 81.5t47 72.5t28 26h9q0 -2 2 -7t2 -9q0 -35 -52 -119t-126.5 -150.5t-141.5 -66.5
q-69 0 -69 98q0 40 14 99.5t34.5 122t24.5 77.5q51 130 111 315q-25 -38 -80 -120t-110 -144.5t-116.5 -103.5t-127.5 -41q-26 0 -56 29t-30 57q0 80 57 229z" />
    <glyph glyph-name="oslash" unicode="&#xf8;" horiz-adv-x="1374" 
d="M565 -16q-69 0 -69 98q0 44 14 103t34.5 122t24.5 78q-110 -164 -221.5 -280.5t-220.5 -116.5q-25 0 -51.5 24t-26.5 58q0 74 27 153t102.5 284t75.5 251q0 16 -16 16q-17 0 -29 -12q-27 -20 -48 -45.5t-49.5 -68t-41.5 -58.5q-6 -12 -17 -12q-8 0 -8 24q0 39 61 119
t103 115q91 69 156 69q26 0 49 -16q24 -12 24 -58q0 -26 -8.5 -56t-21 -62t-19.5 -49q-21 -59 -48.5 -131.5t-56.5 -153t-46.5 -138.5t-20.5 -98q0 -32 29 -32q81 0 182.5 143t157.5 262q58 117 114 287q6 23 21 61q5 17 23 21t51 4h65q17 0 17 -25v-20l-160 -504
q0 2 -26.5 -73.5t-26.5 -114.5q0 -41 24 -41q66 0 172 146t164 259q64 128 111 287q4 10 9.5 29.5t10.5 31.5q12 25 74 25h65q21 0 21 -25v-20l-164 -504q0 2 -26.5 -80.5t-26.5 -120.5q0 -28 16 -28t21 4q18 10 41 41.5t54.5 82t50.5 76t30 25.5h8v-16q0 -34 -55.5 -118
t-131 -151t-133.5 -67q-65 0 -65 98q0 40 14 99.5t30 108.5t30 91q-65 -98 -132.5 -184t-150 -151.5t-160.5 -65.5z" />
    <glyph glyph-name="oslash" unicode="&#x448;" horiz-adv-x="1374" 
d="M565 -16q-69 0 -69 98q0 44 14 103t34.5 122t24.5 78q-110 -164 -221.5 -280.5t-220.5 -116.5q-25 0 -51.5 24t-26.5 58q0 74 27 153t102.5 284t75.5 251q0 16 -16 16q-17 0 -29 -12q-27 -20 -48 -45.5t-49.5 -68t-41.5 -58.5q-6 -12 -17 -12q-8 0 -8 24q0 39 61 119
t103 115q91 69 156 69q26 0 49 -16q24 -12 24 -58q0 -26 -8.5 -56t-21 -62t-19.5 -49q-21 -59 -48.5 -131.5t-56.5 -153t-46.5 -138.5t-20.5 -98q0 -32 29 -32q81 0 182.5 143t157.5 262q58 117 114 287q6 23 21 61q5 17 23 21t51 4h65q17 0 17 -25v-20l-160 -504
q0 2 -26.5 -73.5t-26.5 -114.5q0 -41 24 -41q66 0 172 146t164 259q64 128 111 287q4 10 9.5 29.5t10.5 31.5q12 25 74 25h65q21 0 21 -25v-20l-164 -504q0 2 -26.5 -80.5t-26.5 -120.5q0 -28 16 -28t21 4q18 10 41 41.5t54.5 82t50.5 76t30 25.5h8v-16q0 -34 -55.5 -118
t-131 -151t-133.5 -67q-65 0 -65 98q0 40 14 99.5t30 108.5t30 91q-65 -98 -132.5 -184t-150 -151.5t-160.5 -65.5z" />
    <glyph glyph-name="ugrave" unicode="&#xf9;" horiz-adv-x="1374" 
d="M1180 94q-108 -106 -181 -106q-65 0 -65 98q0 40 14 99.5t30 108.5t30 91q-65 -98 -132.5 -184t-150 -151.5t-160.5 -65.5q-69 0 -69 98q0 44 14 103t34.5 122t24.5 78q-110 -164 -221.5 -280.5t-220.5 -116.5q-25 0 -51.5 24t-26.5 58q0 74 27 153t102.5 284t75.5 251
q0 16 -16 16q-17 0 -29 -12q-27 -20 -48 -45.5t-49.5 -68t-41.5 -58.5q-6 -12 -17 -12q-8 0 -8 24q0 39 61 119t103 115q91 69 156 69q26 0 49 -16q24 -12 24 -58q0 -26 -8.5 -56t-21 -62t-19.5 -49q-21 -59 -48.5 -131.5t-56.5 -153t-46.5 -138.5t-20.5 -98q0 -32 29 -32
q81 0 182.5 143t157.5 262q58 117 114 287q6 23 21 61q5 17 23 21t51 4h65q17 0 17 -25v-20l-160 -504q0 2 -26.5 -73.5t-26.5 -114.5q0 -41 24 -41q66 0 172 146t164 259q64 128 111 287q4 10 9.5 29.5t10.5 31.5q12 25 74 25h65q21 0 21 -25v-20l-164 -504
q0 2 -26.5 -80.5t-26.5 -120.5q0 -28 16 -28t21 4q18 10 41 41.5t54.5 82t50.5 76t30 25.5h8v-16q0 -19 -20.5 -59t-45.5 -85q-53 -103 -73.5 -190.5t-20.5 -145.5v-53q0 -61 -63 -108.5t-113 -47.5q-10 0 -17.5 7t-7.5 14q0 3 6.5 9.5t10.5 6.5q16 21 40.5 58t24.5 61
q0 1 -2 10t-2 15q0 85 144 278z" />
    <glyph glyph-name="ugrave" unicode="&#x449;" horiz-adv-x="1374" 
d="M1180 94q-108 -106 -181 -106q-65 0 -65 98q0 40 14 99.5t30 108.5t30 91q-65 -98 -132.5 -184t-150 -151.5t-160.5 -65.5q-69 0 -69 98q0 44 14 103t34.5 122t24.5 78q-110 -164 -221.5 -280.5t-220.5 -116.5q-25 0 -51.5 24t-26.5 58q0 74 27 153t102.5 284t75.5 251
q0 16 -16 16q-17 0 -29 -12q-27 -20 -48 -45.5t-49.5 -68t-41.5 -58.5q-6 -12 -17 -12q-8 0 -8 24q0 39 61 119t103 115q91 69 156 69q26 0 49 -16q24 -12 24 -58q0 -26 -8.5 -56t-21 -62t-19.5 -49q-21 -59 -48.5 -131.5t-56.5 -153t-46.5 -138.5t-20.5 -98q0 -32 29 -32
q81 0 182.5 143t157.5 262q58 117 114 287q6 23 21 61q5 17 23 21t51 4h65q17 0 17 -25v-20l-160 -504q0 2 -26.5 -73.5t-26.5 -114.5q0 -41 24 -41q66 0 172 146t164 259q64 128 111 287q4 10 9.5 29.5t10.5 31.5q12 25 74 25h65q21 0 21 -25v-20l-164 -504
q0 2 -26.5 -80.5t-26.5 -120.5q0 -28 16 -28t21 4q18 10 41 41.5t54.5 82t50.5 76t30 25.5h8v-16q0 -19 -20.5 -59t-45.5 -85q-53 -103 -73.5 -190.5t-20.5 -145.5v-53q0 -61 -63 -108.5t-113 -47.5q-10 0 -17.5 7t-7.5 14q0 3 6.5 9.5t10.5 6.5q16 21 40.5 58t24.5 61
q0 1 -2 10t-2 15q0 85 144 278z" />
    <glyph glyph-name="uacute" unicode="&#xfa;" horiz-adv-x="895" 
d="M434 356q-11 -31 -33.5 -77.5t-31.5 -77.5t-9 -82q0 -38 25.5 -66t65.5 -28q45 0 99.5 46t104.5 142q41 87 41 176q0 29 -13 63.5t-40 34.5q-45 0 -102 -36t-107 -95zM311 909q26 0 92.5 -20.5t96.5 -20.5q36 0 77 20.5t58 20.5q16 0 33 -16q4 0 4 -8q0 -18 -48 -90.5
t-75 -130.5q-17 -35 -42.5 -101t-39.5 -112q57 43 116.5 66.5t104.5 23.5q72 0 114 -46t42 -126q0 -90 -59 -181.5t-154 -152t-197 -60.5q-51 0 -101.5 32.5t-81 78.5t-30.5 86q0 142 81 312.5t267 338.5q-17 -5 -52 -16.5t-52 -17t-64 -23.5q-27 -5 -82.5 -8.5t-85.5 -3.5
q-94 0 -94 -103q0 -2 2 -9t2 -11q0 -2 4.5 -19.5t4.5 -29.5q0 -8 -5.5 -14.5t-11.5 -6.5q-9 0 -16.5 11.5t-7.5 21.5q-9 29 -9 57q0 62 26 122.5t73.5 98t109.5 37.5z" />
    <glyph glyph-name="uacute" unicode="&#x44a;" horiz-adv-x="895" 
d="M434 356q-11 -31 -33.5 -77.5t-31.5 -77.5t-9 -82q0 -38 25.5 -66t65.5 -28q45 0 99.5 46t104.5 142q41 87 41 176q0 29 -13 63.5t-40 34.5q-45 0 -102 -36t-107 -95zM311 909q26 0 92.5 -20.5t96.5 -20.5q36 0 77 20.5t58 20.5q16 0 33 -16q4 0 4 -8q0 -18 -48 -90.5
t-75 -130.5q-17 -35 -42.5 -101t-39.5 -112q57 43 116.5 66.5t104.5 23.5q72 0 114 -46t42 -126q0 -90 -59 -181.5t-154 -152t-197 -60.5q-51 0 -101.5 32.5t-81 78.5t-30.5 86q0 142 81 312.5t267 338.5q-17 -5 -52 -16.5t-52 -17t-64 -23.5q-27 -5 -82.5 -8.5t-85.5 -3.5
q-94 0 -94 -103q0 -2 2 -9t2 -11q0 -2 4.5 -19.5t4.5 -29.5q0 -8 -5.5 -14.5t-11.5 -6.5q-9 0 -16.5 11.5t-7.5 21.5q-9 29 -9 57q0 62 26 122.5t73.5 98t109.5 37.5z" />
    <glyph glyph-name="ucircumflex" unicode="&#xfb;" horiz-adv-x="1165" 
d="M545 397q0 43 -20.5 66.5t-49.5 23.5q-40 0 -77.5 -27.5t-114.5 -94.5q-20 -54 -33.5 -90.5t-21 -70.5t-7.5 -73q0 -106 74 -106q31 0 93 56.5t109.5 141.5t47.5 174zM1106 332q4 -4 4 -17q0 -36 -49 -119t-120 -149.5t-134 -66.5q-36 0 -59 28.5t-23 69.5q0 40 14 99.5
t30 108.5t30 91q20 61 39 123.5t47 158t41 136.5q4 10 9.5 31t10.5 30q14 29 74 29q13 0 37 -2t28 -2q21 0 21 -25q0 -12 -4 -16l-160 -508q0 2 -26.5 -80.5t-26.5 -120.5q0 -11 5 -20t11 -9q34 0 66.5 42.5t77 115t57.5 72.5zM82 172q0 50 20 116.5t64 181.5t66 183t22 105
q0 16 -16 16q-17 0 -29 -12q-27 -20 -48 -45.5t-49.5 -68t-41.5 -58.5q-12 -12 -17 -12q-4 0 -8 5.5t-4 14.5q0 39 62.5 120.5t105.5 117.5q91 69 156 69q26 0 45.5 -19.5t19.5 -54.5q0 -72 -37 -163q-9 -23 -29 -73.5t-32 -85t-17 -58.5q119 90 222 90q73 0 114 -49
t41 -123q0 -55 -34.5 -122.5t-93.5 -129.5t-136.5 -102t-153.5 -40q-79 0 -135.5 56.5t-56.5 140.5z" />
    <glyph glyph-name="ucircumflex" unicode="&#x44b;" horiz-adv-x="1165" 
d="M545 397q0 43 -20.5 66.5t-49.5 23.5q-40 0 -77.5 -27.5t-114.5 -94.5q-20 -54 -33.5 -90.5t-21 -70.5t-7.5 -73q0 -106 74 -106q31 0 93 56.5t109.5 141.5t47.5 174zM1106 332q4 -4 4 -17q0 -36 -49 -119t-120 -149.5t-134 -66.5q-36 0 -59 28.5t-23 69.5q0 40 14 99.5
t30 108.5t30 91q20 61 39 123.5t47 158t41 136.5q4 10 9.5 31t10.5 30q14 29 74 29q13 0 37 -2t28 -2q21 0 21 -25q0 -12 -4 -16l-160 -508q0 2 -26.5 -80.5t-26.5 -120.5q0 -11 5 -20t11 -9q34 0 66.5 42.5t77 115t57.5 72.5zM82 172q0 50 20 116.5t64 181.5t66 183t22 105
q0 16 -16 16q-17 0 -29 -12q-27 -20 -48 -45.5t-49.5 -68t-41.5 -58.5q-12 -12 -17 -12q-4 0 -8 5.5t-4 14.5q0 39 62.5 120.5t105.5 117.5q91 69 156 69q26 0 45.5 -19.5t19.5 -54.5q0 -72 -37 -163q-9 -23 -29 -73.5t-32 -85t-17 -58.5q119 90 222 90q73 0 114 -49
t41 -123q0 -55 -34.5 -122.5t-93.5 -129.5t-136.5 -102t-153.5 -40q-79 0 -135.5 56.5t-56.5 140.5z" />
    <glyph glyph-name="udieresis" unicode="&#xfc;" horiz-adv-x="739" 
d="M545 397q0 43 -20.5 66.5t-49.5 23.5q-40 0 -77.5 -27.5t-114.5 -94.5q-20 -54 -33.5 -90.5t-21 -70.5t-7.5 -73q0 -106 74 -106q31 0 93 56.5t109.5 141.5t47.5 174zM82 172q0 50 20 116.5t64 181.5t66 183t22 105q0 16 -16 16q-17 0 -29 -12q-27 -20 -48 -45.5
t-49.5 -68t-41.5 -58.5q-12 -12 -17 -12q-4 0 -8 5.5t-4 14.5q0 39 62.5 120.5t105.5 117.5q91 69 156 69q26 0 45.5 -19.5t19.5 -54.5q0 -72 -37 -163q-9 -23 -29 -73.5t-32 -85t-17 -58.5q119 90 222 90q73 0 114 -49t41 -123q0 -55 -34.5 -122.5t-93.5 -129.5
t-136.5 -102t-153.5 -40q-79 0 -135.5 56.5t-56.5 140.5z" />
    <glyph glyph-name="udieresis" unicode="&#x44c;" horiz-adv-x="739" 
d="M545 397q0 43 -20.5 66.5t-49.5 23.5q-40 0 -77.5 -27.5t-114.5 -94.5q-20 -54 -33.5 -90.5t-21 -70.5t-7.5 -73q0 -106 74 -106q31 0 93 56.5t109.5 141.5t47.5 174zM82 172q0 50 20 116.5t64 181.5t66 183t22 105q0 16 -16 16q-17 0 -29 -12q-27 -20 -48 -45.5
t-49.5 -68t-41.5 -58.5q-12 -12 -17 -12q-4 0 -8 5.5t-4 14.5q0 39 62.5 120.5t105.5 117.5q91 69 156 69q26 0 45.5 -19.5t19.5 -54.5q0 -72 -37 -163q-9 -23 -29 -73.5t-32 -85t-17 -58.5q119 90 222 90q73 0 114 -49t41 -123q0 -55 -34.5 -122.5t-93.5 -129.5
t-136.5 -102t-153.5 -40q-79 0 -135.5 56.5t-56.5 140.5z" />
    <glyph glyph-name="yacute" unicode="&#xfd;" horiz-adv-x="760" 
d="M406 913q77 0 135 -38t95 -94.5t55 -115t18 -100.5q0 -144 -44 -257.5t-114 -187t-145.5 -109.5t-143.5 -36q-63 0 -116.5 39t-79.5 113q-5 23 -13 69t-8 87q0 69 29 69q13 0 35.5 -79t51 -131t85.5 -52q71 0 128 58t91 131.5t51 138.5q-58 8 -123 8q-46 0 -114 -2
t-74 -2q-25 12 -25 24q0 11 9.5 20t15.5 13q98 -8 176 -8q79 0 151 8q1 12 3 37t2 74q0 105 -23 185.5t-76 80.5q-46 0 -72.5 -26.5t-53.5 -80t-47.5 -78t-59.5 -24.5q-25 0 -43.5 16t-18.5 37q0 41 44 102t100 87q55 24 119 24z" />
    <glyph glyph-name="yacute" unicode="&#x44d;" horiz-adv-x="760" 
d="M406 913q77 0 135 -38t95 -94.5t55 -115t18 -100.5q0 -144 -44 -257.5t-114 -187t-145.5 -109.5t-143.5 -36q-63 0 -116.5 39t-79.5 113q-5 23 -13 69t-8 87q0 69 29 69q13 0 35.5 -79t51 -131t85.5 -52q71 0 128 58t91 131.5t51 138.5q-58 8 -123 8q-46 0 -114 -2
t-74 -2q-25 12 -25 24q0 11 9.5 20t15.5 13q98 -8 176 -8q79 0 151 8q1 12 3 37t2 74q0 105 -23 185.5t-76 80.5q-46 0 -72.5 -26.5t-53.5 -80t-47.5 -78t-59.5 -24.5q-25 0 -43.5 16t-18.5 37q0 41 44 102t100 87q55 24 119 24z" />
    <glyph glyph-name="thorn" unicode="&#xfe;" horiz-adv-x="1239" 
d="M1180 532q-3 -114 -49.5 -220.5t-126.5 -192.5q-59 -62 -141.5 -103t-157.5 -41q-103 0 -181 82q-44 51 -65 121.5t-21 145.5q0 4 2 14t2 14q0 45 4 74h-139q-30 -98 -33 -108t-25.5 -82.5t-36 -118.5t-19.5 -76q-16 -45 -82 -45h-17q-57 0 -57 33q0 13 16 77l201 652
q0 16 -16 16q-17 0 -29 -12q-27 -20 -48 -45.5t-49.5 -68t-41.5 -58.5q-12 -12 -17 -12q-4 0 -8 5.5t-4 14.5q0 28 29.5 75t70 93t68.5 70q91 69 156 69q26 0 49 -16q24 -12 24 -58q0 -26 -8.5 -56t-21 -62t-19.5 -49q-4 -9 -65 -189h131q38 180 163 307q35 35 82.5 65.5
t99.5 48t101 17.5t96 -17t80 -52q37 -31 60.5 -78.5t33 -101.5t9.5 -107v-25zM618 78q36 -53 82 -53q40 0 81 29t67 69q25 32 54.5 97t56 145t44 167t17.5 152q0 89 -29 135q-36 49 -82 49q-42 0 -88.5 -36.5t-75.5 -81.5q-49 -83 -102 -253t-53 -292q0 -69 28 -127z" />
    <glyph glyph-name="thorn" unicode="&#x44e;" horiz-adv-x="1239" 
d="M1180 532q-3 -114 -49.5 -220.5t-126.5 -192.5q-59 -62 -141.5 -103t-157.5 -41q-103 0 -181 82q-44 51 -65 121.5t-21 145.5q0 4 2 14t2 14q0 45 4 74h-139q-30 -98 -33 -108t-25.5 -82.5t-36 -118.5t-19.5 -76q-16 -45 -82 -45h-17q-57 0 -57 33q0 13 16 77l201 652
q0 16 -16 16q-17 0 -29 -12q-27 -20 -48 -45.5t-49.5 -68t-41.5 -58.5q-12 -12 -17 -12q-4 0 -8 5.5t-4 14.5q0 28 29.5 75t70 93t68.5 70q91 69 156 69q26 0 49 -16q24 -12 24 -58q0 -26 -8.5 -56t-21 -62t-19.5 -49q-4 -9 -65 -189h131q38 180 163 307q35 35 82.5 65.5
t99.5 48t101 17.5t96 -17t80 -52q37 -31 60.5 -78.5t33 -101.5t9.5 -107v-25zM618 78q36 -53 82 -53q40 0 81 29t67 69q25 32 54.5 97t56 145t44 167t17.5 152q0 89 -29 135q-36 49 -82 49q-42 0 -88.5 -36.5t-75.5 -81.5q-49 -83 -102 -253t-53 -292q0 -69 28 -127z" />
    <glyph glyph-name="ydieresis" unicode="&#xff;" horiz-adv-x="1047" 
d="M700 434q-8 4 -32 4q-44 0 -99 -32q-39 -23 -73.5 -69t-74 -116t-56.5 -94q-46 -68 -102 -110t-107 -42q-68 0 -95.5 50.5t-27.5 109.5q0 84 35 150.5t100 66.5q11 0 18 -13t7 -32q0 -40 -29 -69q-10 -12 -33.5 -40.5t-38 -52.5t-14.5 -43q0 -17 10 -29t27 -12
q23 0 49 26.5t52.5 68t37.5 57.5q62 103 117 166.5t137 79.5q-67 8 -117.5 44.5t-50.5 110.5q0 114 82.5 180.5t189.5 92.5t195 26h168q20 0 20 -24q0 -17 -4 -21l-160 -520q0 -1 -15.5 -47.5t-26.5 -89t-11 -72.5q0 -28 17 -28q1 0 8 2t12 2q20 14 43 46.5t52.5 78.5
t51.5 75t33 29q4 0 4 -12q0 -26 -31.5 -83.5t-80.5 -117.5t-104.5 -101.5t-102.5 -41.5q-70 0 -70 98q0 46 14 102t35.5 123t24.5 82q2 7 8 21t8 20zM700 868q-47 0 -95 -36t-78.5 -95t-30.5 -127q0 -56 32 -93.5t82 -37.5q44 0 79 22t44 60l74 230q0 4 2 12t2 12
q0 53 -111 53z" />
    <glyph glyph-name="ydieresis" unicode="&#x44f;" horiz-adv-x="1047" 
d="M700 434q-8 4 -32 4q-44 0 -99 -32q-39 -23 -73.5 -69t-74 -116t-56.5 -94q-46 -68 -102 -110t-107 -42q-68 0 -95.5 50.5t-27.5 109.5q0 84 35 150.5t100 66.5q11 0 18 -13t7 -32q0 -40 -29 -69q-10 -12 -33.5 -40.5t-38 -52.5t-14.5 -43q0 -17 10 -29t27 -12
q23 0 49 26.5t52.5 68t37.5 57.5q62 103 117 166.5t137 79.5q-67 8 -117.5 44.5t-50.5 110.5q0 114 82.5 180.5t189.5 92.5t195 26h168q20 0 20 -24q0 -17 -4 -21l-160 -520q0 -1 -15.5 -47.5t-26.5 -89t-11 -72.5q0 -28 17 -28q1 0 8 2t12 2q20 14 43 46.5t52.5 78.5
t51.5 75t33 29q4 0 4 -12q0 -26 -31.5 -83.5t-80.5 -117.5t-104.5 -101.5t-102.5 -41.5q-70 0 -70 98q0 46 14 102t35.5 123t24.5 82q2 7 8 21t8 20zM700 868q-47 0 -95 -36t-78.5 -95t-30.5 -127q0 -56 32 -93.5t82 -37.5q44 0 79 22t44 60l74 230q0 4 2 12t2 12
q0 53 -111 53z" />
    <glyph glyph-name="OE" unicode="&#x152;" 
 />
    <glyph glyph-name="oe" unicode="&#x153;" 
 />
    <glyph glyph-name="Scaron" unicode="&#x160;" 
 />
    <glyph glyph-name="scaron" unicode="&#x161;" 
 />
    <glyph glyph-name="Ydieresis" unicode="&#x178;" horiz-adv-x="1047" 
d="M700 434q-8 4 -32 4q-44 0 -99 -32q-39 -23 -73.5 -69t-74 -116t-56.5 -94q-46 -68 -102 -110t-107 -42q-68 0 -95.5 50.5t-27.5 109.5q0 84 35 150.5t100 66.5q11 0 18 -13t7 -32q0 -40 -29 -69q-10 -12 -33.5 -40.5t-38 -52.5t-14.5 -43q0 -17 10 -29t27 -12
q23 0 49 26.5t52.5 68t37.5 57.5q62 103 117 166.5t137 79.5q-67 8 -117.5 44.5t-50.5 110.5q0 114 82.5 180.5t189.5 92.5t195 26h168q20 0 20 -24q0 -17 -4 -21l-160 -520q0 -1 -15.5 -47.5t-26.5 -89t-11 -72.5q0 -28 17 -28q1 0 8 2t12 2q20 14 43 46.5t52.5 78.5
t51.5 75t33 29q4 0 4 -12q0 -26 -31.5 -83.5t-80.5 -117.5t-104.5 -101.5t-102.5 -41.5q-70 0 -70 98q0 46 14 102t35.5 123t24.5 82q2 7 8 21t8 20zM700 868q-47 0 -95 -36t-78.5 -95t-30.5 -127q0 -56 32 -93.5t82 -37.5q44 0 79 22t44 60l74 230q0 4 2 12t2 12
q0 53 -111 53z" />
    <glyph glyph-name="florin" unicode="&#x192;" 
 />
    <glyph glyph-name="emdash" unicode="&#x2013;" horiz-adv-x="932" 
d="M197 492h675v-123h-675v123z" />
    <glyph glyph-name="endash" unicode="&#x2014;" horiz-adv-x="1337" 
d="M111 492h1175v-123h-1175v123z" />
    <glyph glyph-name="quoteleft" unicode="&#x2018;" horiz-adv-x="489" 
d="M467 1401l-8 -58q-76 -3 -128 -40.5t-52 -110.5q0 -31 16 -40.5t57.5 -19t63.5 -31.5t22 -73q0 -45 -35.5 -75.5t-83.5 -30.5q-70 0 -108.5 63t-38.5 141q0 89 38 150.5t104.5 93t152.5 31.5z" />
    <glyph glyph-name="quoteright" unicode="&#x2019;" horiz-adv-x="510" 
d="M152 922l4 57q77 0 130.5 37t53.5 110q0 52 -41 58q-52 0 -85.5 29.5t-33.5 80.5q0 46 33.5 74.5t81.5 28.5q74 0 112.5 -63.5t38.5 -141.5q0 -86 -38 -147t-104.5 -92t-151.5 -31z" />
    <glyph glyph-name="quotesinglbase" unicode="&#x201a;" 
 />
    <glyph glyph-name="quotedblleft" unicode="&#x201c;" horiz-adv-x="838" 
d="M811 1401l-8 -58q-76 -3 -128 -40.5t-52 -110.5q0 -39 59 -56.5t79.5 -30t20.5 -77.5q0 -45 -34.5 -75.5t-79.5 -30.5q-72 0 -112 63t-40 141q0 89 38 150.5t104.5 93t152.5 31.5zM451 1401l-5 -58q-79 -3 -131.5 -40t-52.5 -111q0 -31 16.5 -40.5t58 -19t63.5 -31.5
t22 -73q0 -45 -34.5 -75.5t-80.5 -30.5q-73 0 -112 63t-39 141q0 89 38 150.5t104.5 93t152.5 31.5z" />
    <glyph glyph-name="quotedblright" unicode="&#x201d;" horiz-adv-x="854" 
d="M147 922l5 57q77 0 130.5 37t53.5 110q0 52 -41 58q-52 0 -85.5 29.5t-33.5 80.5q0 46 33.5 74.5t81.5 28.5q74 0 112.5 -63.5t38.5 -141.5q0 -86 -38 -147t-104.5 -92t-152.5 -31zM508 922l4 57q75 0 129.5 37.5t54.5 109.5q0 31 -18.5 42t-58.5 22.5t-61 33.5t-21 70
q0 46 33.5 74.5t80.5 28.5q75 0 113.5 -63.5t38.5 -141.5q0 -86 -38 -147t-104.5 -92t-152.5 -31z" />
    <glyph glyph-name="quotedblbase" unicode="&#x201e;" 
 />
    <glyph glyph-name="dagger" unicode="&#x2020;" 
 />
    <glyph glyph-name="daggerdbl" unicode="&#x2021;" 
 />
    <glyph glyph-name="ellipsis" unicode="&#x2026;" 
 />
    <glyph glyph-name="perthousand" unicode="&#x2030;" 
 />
    <glyph glyph-name="guilsinglleft" unicode="&#x2039;" horiz-adv-x="1473" 
d="M1421 1098v-123l-954 -389l954 -389v-123l-1126 463v98z" />
    <glyph glyph-name="guilsinglright" unicode="&#x203a;" horiz-adv-x="1473" 
d="M295 1098l1126 -463v-98l-1126 -463v123l958 389l-958 389v123z" />
    <glyph glyph-name="trademark" unicode="&#x2122;" 
 />
    <glyph glyph-name="periodcentered" unicode="&#x2219;" horiz-adv-x="489" 
d="M442 426q0 -29 -15.5 -55t-42 -41t-52.5 -15q-46 0 -78.5 32.5t-32.5 78.5q0 43 32 77t79 34q27 0 52.5 -15.5t41.5 -41.5t16 -54z" />
  </font>
</defs>
</svg>
